<svg viewBox="0 0 138 138" xmlns="http://www.w3.org/2000/svg" data-sanitized-data-name="Layer 1" data-name="Layer 1" id="Layer_1">
  <defs>
    <style>
      .cls-1 {
        fill: #dec8e1;
        stroke-width: 0px;
      }

      .cls-2 {
        fill: none;
        stroke: #1a2e58;
        stroke-linecap: round;
        stroke-linejoin: round;
        stroke-width: 2.5px;
      }
    </style>
  </defs>
  <path d="M127.57,68.93c0,32.35-26.22,58.57-58.57,58.57S10.43,101.27,10.43,68.93,36.65,10.35,69,10.35s58.57,26.22,58.57,58.58h0Z" class="cls-1"></path>
  <g>
    <path d="M74.68,90.61c.68.63,1.78,2.24,2.29,3.03,2.07,3.23,3.96,7.18,3.78,11.25-.05,1.07-.23,2.12-.3,3.19-.19,3.09,2.33,7.09,3.42,9.93,2.02,5.26,4.23,10.37,5.38,15.9.18.86.4,1.71.53,2.58" class="cls-2"></path>
    <path d="M48.59,84.31c-.04-.2,1.4-2.66,1.46-2.85,1.05-3.25-.74-7.2-3.41-9.11-1.96-1.4-4.93-2.62-5.84-5.12-1.29-3.53,2.57-5.32,2.1-8.51-.35-2.33-2.24-2.78-3.83-4.02-.92-.72-1.04-1.98-1.5-3.04-.66-1.5-1.57-1.94-2.67-3.05-5.4-.15-11.47,4.78-12.01,10.26-.85,8.72-9.9,15.29-10.4,24.04-.27,4.67,2.29,9.4,6.35,11.73,1.44.83,3.07,1.4,4.22,2.59,2.02,2.1,1.94,5.38,1.73,8.28-.21,2.93-.42,5.85-.63,8.78-.62,8.61,4.34,17.46,13.94,17.35,3.43-.04,10.41-1.74,12.58-4.39" class="cls-2"></path>
    <path d="M97.31,31.19c-.15.46-.06.92-.01,1.39.11,1.02-.02,2.03-.12,3.05-.1,1.01-.35,1.99-.65,2.96-.2.62-.42,1.24-.66,1.84-.47,1.15-.33,2.25.01,3.38,1.86,6.17,3.85,12.3,5.36,18.57.75,3.13,1.39,6.29,1.82,9.49.18,1.32.52,2.71.32,4.05-.27,1.77-1.36,2.21-2.83,2.92-1.51.72-2.82,1.77-4.35,2.43-1.09.48-2.14,1.05-3.23,1.54-4.81,2.17-9.48,4.74-14.46,6.51-.99.35-1.97.71-2.96,1.06-.28.1-.58.16-.88.23-3.36.9-6.85,1.38-10.16,2.46-.66.21-1.26.56-1.57,1.24" class="cls-2"></path>
    <path d="M69.69,91.81c.53,3.47-1.6,5.33-3.05,8.2-1.46,2.9-2.43,6.46-5.31,8.33-3.26,2.13-8.17,2.75-12.01,2.6-.22,0-1.65-.21-1.86-.32" class="cls-2"></path>
    <path d="M74.54,27.82c-.47.53-1.18.59-1.78.9.16.45.09.86-.07,1.27-.19.49-.21,1.01-.22,1.52-.01.45.23.81.55,1.11.4.37.73.77.85,1.34.02.12.09.25.07.37-.14.94.28,1.68.84,2.35.41.49.83.98,1.42,1.32.51.29.83.83,1.19,1.29.64.81,1.39,1.47,2.18,2.12,1.09.89,2.12,1.83,3.28,2.63.23.16.4.39.35.74-.02.12.05.31.1.47.31.87.57,1.75.85,2.63.33,1.05.62,2.1.98,3.14.38,1.12.82,2.22,1.24,3.33.34.89.5,1.82.78,2.73.35,1.13.64,2.28.98,3.42.38,1.27.55,2.58.79,3.88.24,1.26.31,2.52.36,3.79.03.74.02,1.48.06,2.22.01.28-.08.42-.33.51-.88.32-1.79.59-2.68.89-.77.26-1.57.47-2.31.83-1.03.49-2.8,1.55-3.47,1.75" class="cls-2"></path>
    <path d="M86.32,33.22c-.5-.13-.64-.56-.78-.97-.16-.47-.34-.94-.47-1.43-.24-.91-.91-1.48-1.61-2.04-.25-.2-.52-.38-.79-.54-.23-.13-.49-.15-.73,0-.24.15-.19.42-.13.59.38,1.03.33,2.15.63,3.2.14.49.31.95.57,1.38.35.59.51,1.2.52,1.9,0,1.11.43,2.11.9,3.1.47.98.96,1.93,1.77,2.67.61.55.8,1.33,1.09,2.04.1.25.16.54.29.78.59,1.02.99,2.14,1.3,3.25.25.89.7,1.69.92,2.57.28,1.15.57,2.29.93,3.42.34,1.06.59,2.14.72,3.24.24,2.09.44,4.19.36,6.29s-.74,4.15-.69,6.23c.02.69-.07,1.38-.04,2.08.06,1.95-3.87,2.17-5.13,2.32-2.09.26-4.16.66-6.19,1.25s-3.9,1.74-5.99,1.65c-3.51-.15-7.07-.05-10.53.63-3.82.75-7.93,2.53-11.33,4.43-2.03,1.14-3.31,2.84-4.47,4.82-.7,1.18-1.39,2.37-1.91,3.64-.34.82-.74,1.63-.89,2.5-.25,1.34-.49,2.69-.58,4.06-.1,1.47.06,2.9.3,4.35.25,1.47.87,2.79,1.38,4.15.41,1.1.71,2.23,1.1,3.33.29.82.42,1.67.63,2.5.12.48.13.98.2,1.48.38,2.95,1.9,5.75,3.08,8.46.83,1.92.09,4.65-.04,6.69-.21,3.07-.4,6.14-.6,9.21" class="cls-2"></path>
    <path d="M105.4,34.84c.72.86,1.37,1.79,1.97,2.73.21.32.55.53.8.56.73.07,1.22.54,1.74.93,3.88,2.88,6.5,5.42,6.62,10.57.1,4.28-1.55,7.43-5.55,8.96l-4.9,1.28" class="cls-2"></path>
    <path d="M60.54,16.03c-.09.25-.06.48.04.72.4.93.85,1.82,1.61,2.53.48.45.89.99,1.35,1.47.58.61.63,1.3.47,2.08-.07.34-.13.68-.19,1.01-.12.66.37,1.15,1.05,1.22.41.04.79-.24,1.21-.03.15.07.31.12.4.25.47.69,1.1,1.13,1.89,1.4.43.14.8.47,1.11.82.76.83,2.14,1.23,3.26,1.22" class="cls-2"></path>
    <path d="M52.04,48.19c.56.47.75,1.14.71,1.8-.04.79.12,1.31.94,1.6,2.34.81,6.75,1.53,6.71,4.66-.03,2.35-1.67,4.33-1.95,6.61-.37,3.08.4,6.55,1.23,9.5.38,1.36.28,2.99.29,4.39,0,.32-.11.64-.08.97" class="cls-2"></path>
    <path d="M103.32,60.72c.09.11.16.26.28.32.89.44,1.58,1.11,2.32,1.75.69.6,1.36,1.24,1.99,1.89,1,1.04,2.1,1.93,3.21,2.84,1.01.83,2.15,1.36,3.34,1.83.6.24,1.04.66,1.48,1.11.3.31.3.69.31,1.07.04,1.02-.34,1.92-.97,2.67-1.04,1.23-1.78,2.61-2.38,4.08-.29.7-.37,1.48-.58,2.21-.29,1.03-.56,2.08-1.14,3.01-.18.29-.43.53-.74.69-.26.14-.57.17-.83.04-1.08-.52-1.43-.95-1.53-2.21-.12-1.4.18-2.75.41-4.12.15-.9.17-1.81.24-2.72.02-.2.14-.39.1-.6-.1-.51-.46-.82-.93-.91-.9-.19-1.73-.54-2.59-.83-.52-.18-1.04-.35-1.56-.53-.19-.06-.37-.08-.56-.08" class="cls-2"></path>
    <path d="M77.87,75.15c-.63.17-2.1-.1-2.73-.18-4.76-.62-7.7-.12-11.41.88-.67.18-1.35.57-2.02.75-.57.15-1.13,0-1.67.15" class="cls-2"></path>
    <path d="M63.5,15.99c-.84.43-1.68.63-2.59.15-.57-.31-.95-.77-1.09-1.35-.19-.79-.13-1.6.07-2.4.58-2.26,1.8-4.29,3.36-6.02.48-.54,1.01-1.03,1.49-1.56.75-.84,1.69-1.43,2.59-2.08.62-.45,1.35-.63,2.04-.92,0,0,4.48-1.42,8.73,1.94,3.49,2.76,5.28,7.71,4.54,12.11-.07.4.06.79.22,1.15" class="cls-2"></path>
    <path d="M90.16,19.67c1.58.79,3.13,1.62,4.75,2.33.57.25,1.2.42,1.63.95.11.14.35.21.54.23.98.11,1.84.59,2.76.87,2.52.78,5.32,3.32,6.31,5.78.51,1.26,1.09,2.63,1.77,3.81.3.53.38,1.37,0,1.73" class="cls-2"></path>
    <path d="M80.22,22.69c-.01-.71.08-1.39.26-2.08.41-1.52,1.35-3.26,2.98-3.69,1.98-.53,5.4-.5,6.7,2.76" class="cls-2"></path>
    <path d="M109.97,61.59c.25.16.52.23.83.24.51.03.98.29,1.48.39,1.34.28,2.48.98,3.65,1.61,1.12.61,2.22,1.25,3.45,1.64,1.05.34,2.11.45,3.19.49,0,0,2.64-.2,2.88,2.08.25,2.37-.36,3.37-1.15,5.29-.37.89-.34,1.9-.3,2.86s.09,1.96-.24,2.87-1.16,1.71-2.12,1.7" class="cls-2"></path>
    <path d="M52.04,48.19c-1.13.29-3.01.55-4.16.77-.59.11-1.17-.09-1.75-.22-1.68-.36-2.95-1.35-4.76-1.42-1.9-.07-4.74.15-6.37,1.23" class="cls-2"></path>
    <path d="M54.4,122.68c3.04.64,7.27,1.65,10.53,0" class="cls-2"></path>
    <path d="M80.22,22.69c-.72,2.29-3.14,5.27-4.43,6.7-.63.69-1.34,1.27-2.17,1.72-.36.19-.69.28-1.07.13" class="cls-2"></path>
    <path d="M68.03,43.9c-1.88-.31-3.66-.04-5.31.93-.61.36-1.01.94-1.28,1.57-.29.69.36,1.77,1.09,2.05.34.13.63.38,1.02.35" class="cls-2"></path>
    <path d="M78.93,40.99c-.47.66-1.08,1.17-1.71,1.66-1.12.89-2.13,1.92-3.32,2.74-.87.6-1.77,1.11-2.78,1.41-.19.06-.43.13-.65-.03-.65-.49-1.38-.85-1.9-1.52-.64-.82-.61-1.56.02-2.26.62-.68,1.18-1.41,1.84-2.04.63-.61,1.02-1.34,1.4-2.12.48-.98.98-1.95,1.64-2.83.15-.2.4-.2.56-.37" class="cls-2"></path>
    <path d="M47.66,112.1c-.19.18.28,3.23.28,3.47,0,1.63-.25,3.23-.68,4.81-.21.79-.4,1.59-.71,2.35-.08.19-.1.45-.37.51" class="cls-2"></path>
    <path d="M80.73,116.67c-1.97,2.06-4.37,3.47-8.19,4.12" class="cls-2"></path>
    <path d="M96.48,23.01c-.1.15-.24.24-.42.28-.96.21-1.59.86-2.12,1.62-.76,1.08-1.38,2.23-1.51,3.56-.09.92-.29,2.31-.15,3.23" class="cls-2"></path>
    <path d="M63.64,10.67c.38.95.87,1.83,1.62,2.54.61.57,1.34.99,2.08,1.39.15.08.32.09.46,0,.13-.09.02-.24,0-.36-.1-.62-.03-1.24.09-1.85.05-.28.23-.37.47-.43.26.37.11.96.67,1.18.13-.12.28-.26.42-.39.2.07.29.22.34.38.32,1.13,1.41,1.96,2.45,2.4" class="cls-2"></path>
    <path d="M72.23,15.53c.23-.47.35-.99.64-1.44,1.08-1.67,2.92-.79,3.63.64.43.86.72,1.74.66,2.69-.04.68-.14,1.37-.32,2.03-.34,1.19-1.7,1.38-2.48.83-.14-.1-.26-.22-.14-.41" class="cls-2"></path>
    <path d="M48.49,64c.69.5.62,1.3-.19,1.89-.72.52-1.43,1.06-2.14,1.6-.75.58-1.62.94-2.62.91-.69-.02-1.39-.06-2.08.04" class="cls-2"></path>
    <path d="M60.4,56.47c-1.97,2.12-3.43,5.09-5.91,6.65" class="cls-2"></path>
    <path d="M82.1,30.21c-.09.77-.53,2.29-.64,3.06-.12.83-.27,1.66-.41,2.5-.06.34-.16.67-.14,1.02" class="cls-2"></path>
    <path d="M92.28,31.7c-.96-.22-1.93-.35-2.91-.22-.81.1-1.57.39-2.26.82-.16.1-.31.67-.47.65-.39,1.22-.78,1.98-1.05,3.23" class="cls-2"></path>
    <path d="M107.15,32.44c-.63-.07-1.24-.3-1.89-.23-1.11.12-2.12.41-2.82,1.38-.2.28-.46.86-1.07,1.91" class="cls-2"></path>
    <path d="M88.86,47.69c-.72-.24-1.31-.7-1.99-1.02-1.04-.49-1.91-1.22-2.87-1.84-.22-.14-.42-.37-.73-.28" class="cls-2"></path>
    <path d="M76.06,32.39c-.18.73-.25,1.47-.33,2.22-.09.87,1.35,3.87,1.66,4.68" class="cls-2"></path>
    <path d="M93.99,27.54c-.4,2.38,2.74,3.21,4.29,3.98,1.1.55,1.97,1.37,2.75,2.33.43.54.54.95.34,1.64-.33,1.11-.21,2.27.25,3.36.22.51.59,1.01,1.07,1.22.49.21,1.03.59,1.65.23.37-.21-.19-1.48-.51-1.77" class="cls-2"></path>
    <path d="M84.89,19.59c-1.01,1.08-1.37,2.33-1.12,3.79.08.48.07.98.1,1.48" class="cls-2"></path>
    <path d="M75.46,17.84c.47-.05.37-.47.35-.69-.06-.71-.18-1.42-.58-2.03-.22-.34-.5-.59-.92-.6-.38-.01-.74.38-.79.88" class="cls-2"></path>
    <path d="M121.65,80.78c-2.67-.89-2.5-4.35-2.47-6.25,0-.5-.02-1-.11-1.48-.29-1.41-1.18-1.83-2.63-1.67-.05,0-.09,0-.14,0" class="cls-2"></path>
    <path d="M78.79,14.88c.79,1.13.97,3.06,3,1.66.24-.16.46-.34.74-.41" class="cls-2"></path>
    <path d="M77.45,21.9c.35,1.03-.53,3.07-.78,4.11-.02.08-.04.13-.1.18" class="cls-2"></path>
    <path d="M107.37,37.57c.11.25,1.07,1.38.2,1.8-.33.16-.54.06-.88-.05-.41-.14-1.02-1.03-1.57-2.22-.32-.71-1.3-1.89-1.3-1.89" class="cls-2"></path>
    <path d="M50.33,78.92c1.5-.05,2.93.22,4.25.97" class="cls-2"></path>
    <path d="M70.38,46.81c-.06.22-.09.45-.19.64-.49.88-1.27,1.32-2.26,1.39-.36.02-.71.02-1.06.1" class="cls-2"></path>
    <path d="M63.57,10.53c-.72.45-1.13,1.07-1.08,1.94.03.56.2,1.1.51,1.57.11.17.31.31.21.51-.11.23-.37.18-.59.2-.08,0-.15-.11-.23-.02-.19.57.2,1.26,1.11,1.26" class="cls-2"></path>
    <path d="M101.05,60.48c.12,0,.26-.03.37,0,.62.22,1.29.16,1.89.13.94-.04,1.91-.3,2.76-.75.56-.3,1.04-.61,1.57-.92,2.1-1.23,5.41-4.44,4.62-7.1-1.62-5.46-10.03-4.56-14.17-3.79-.24.04-.46.15-.69.23" class="cls-2"></path>
    <path d="M91.4,57.25c-.6.42-.75,1.1-1.01,1.71-.2.47-.31.97-.37,1.48-.06.48.03.97.15,1.43.2.79.51,1.53,1.09,2.14.12.13.23.19.38.22" class="cls-2"></path>
    <path d="M104.52,40.29c.12.77-.14,1.41-.69,1.94-.28.27-.59.26-.87.22-.23-.04-.35-.5-.33-.77.04-.49.06-.99.09-1.48" class="cls-2"></path>
    <path d="M80.22,22.69c.15,1.21.68,4.31,2.44,5.55" class="cls-2"></path>
    <path d="M64.47,45.33c-.1.35-.37.6-.65.77-.61.38-.97.87-1.06,1.58-.03.23-.1.46-.16.69" class="cls-2"></path>
    <path d="M107.43,34.98c.54.62.85,1.28,1.19,1.9.22.4.09.84-.09,1.29" class="cls-2"></path>
    <path d="M110.6,59.33c-.23,1.07-.51,2.14-1.21,2.99-.36.43-.59.85-.69,1.4-.07.42-.43.69-.73.97" class="cls-2"></path>
    <path d="M86.92,18.16c.72.23,2.58,1.16,3.24,1.52" class="cls-2"></path>
    <path d="M108.81,62.89c-.82-.04-1.65-.18-2.45.14" class="cls-2"></path>
    <path d="M66.76,49.67c.24.33.1.58-.21.73-.23.11-.48.18-.74.23-.37.07-.51-.07-.55-.5" class="cls-2"></path>
    <path d="M66.41,48.52c-.6.3-1.28.23-1.9.45-.2.07-.39.21-.65.11-.26-.09-.36-.18-.18-.43.09-.12.24-.23.27-.37.11-.5.45-.59.89-.62.08,0,.18-.09.28-.03,0,0,.57-.08.88-.03.28.04.61.44.42.86" class="cls-2"></path>
    <path d="M45.81,66.17c-.59.69-1.39.8-2.22.83" class="cls-2"></path>
    <path d="M94.82,29.94c-.66.39-1.67.16-2.4.18" class="cls-2"></path>
    <path d="M102.76,37.38c.46.29.76.72,1.07,1.15" class="cls-2"></path>
    <path d="M64.15,49.21c.04.62.48.97,1.15.87.39-.06.79-.17,1.15-.32.52-.22.57-.7.14-1.1-.05-.04-.09-.09-.14-.14" class="cls-2"></path>
    <path d="M106.27,39.18c-.05.2-.07.41-.14.6,0,0,0,0,0,0-.19.46-.8.53-1.11.15-.42-.51-1.03-1.31-1.18-1.41" class="cls-2"></path>
    <path d="M51.58,81.19c-.11-.19-.3-.13-.46-.14-.29-.01-.59-.03-.88-.05" class="cls-2"></path>
    <path d="M78.74,15.02c-.5.1-1.01.2-1.52.09-.13-.03-.26.02-.37.09" class="cls-2"></path>
    <path d="M65.81,46.58c-.06.37-.52.75-.65,1.06" class="cls-2"></path>
  </g>
</svg>