<svg viewBox="0 0 138 138" version="1.1" xmlns="http://www.w3.org/2000/svg" data-sanitized-data-name="Layer 1" data-name="Layer 1" id="Layer_1">
  <defs>
    <style>
      .cls-1 {
        fill: #d8ebf7;
        stroke-width: 0px;
      }

      .cls-2 {
        fill: none;
        stroke: #001f60;
        stroke-linecap: round;
        stroke-linejoin: round;
        stroke-width: 2.5px;
      }
    </style>
  </defs>
  <path d="M127.6,68.9c0,32.3-26.2,58.6-58.6,58.6S10.4,101.3,10.4,68.9,36.7,10.4,69,10.4s58.6,26.2,58.6,58.6h0Z" class="cls-1"></path>
  <g>
    <path d="M43.2,65.1S34.1,4.3,62.2,4.8c0,0,14.4-10.3,26.5,8.6s6.2,48.1,6.2,48.1" class="cls-2"></path>
    <path d="M69.1,9.9s-7.2,13.1-16.2,23.6c0,0-4.6-1-2.7,5.5s3,6.8,5.5,7c0,0,6.5,15.1,17.3,13.3,11.1-1.8,12.4-18.5,12.4-18.5,0,0,3.9-.3,3.6-7.6-.3-7.3-4-4.4-4-4.4,0,0-12.1-9.2-15.8-18.8h0Z" class="cls-2"></path>
    <path d="M61.5,54.6s1.3,3.8-2.7,9" class="cls-2"></path>
    <path d="M80.3,54.6s3.2,7.5,7.9,7.4" class="cls-2"></path>
    <path d="M77.5,75.4s7.3-1.7,10.8-13.5c.4-1.4,2-2.2,3.3-1.6l9.5,3.6c6.1,2.3,11.1,6.8,14.1,12.5,3.6,6.8,7.9,16.1,8.9,22.7,0,0,5.8,22.5-.7,27.8-11.8,9.6-36.6,6.4-36.6,6.4-3.6,1.3-8.4.7-8.4.7-1.3-2.9-1.5-12.1-1.5-12.1,4-2.2,8.3-2.1,8.3-2.1,1.6-4.2,10.1-5.2,10.1-5.2" class="cls-2"></path>
    <path d="M37.2,89.3s2.7-8.8,9.3-17.7c0,0,2.5-3.7,6.3-6.3,0,0,2.5-1,1,1.7s-4.1,5.6-5.3,8.3c0,0,5.8-5.7,8.6-7.8s2.6.1,2.3.7-5.8,7.6-5.8,7.6c0,0-1.4,1.8-.8,2.3s1.5-.2,5.3-3.5c3.8-3.3,4.8-3.6,4.8-3.6,0,0,1.6-.8,1.7.5s-2.3,3.8-2.3,3.8l-4.5,5.1s-1.4,1.3-1,1.7,1.1.2,2.8-1.3c1.7-1.4,3.6-2.5,3.6-2.5,0,0,1.6-1,2.1,0s-1.1,2.4-1.1,2.4c0,0-3.2,2.8-5.9,5.2s-7.1,6.9-7.1,6.9c0,0-2.9,3.2-5.4,2.8-2.5-.3-6-1-8.7-6.4h0Z" class="cls-2"></path>
    <path d="M44.3,74.6s-2.2-3.2,1.7-8.5c3.3-4.5,5.3-4.8,5.3-4.8,0,0,2.5-.9,5,.7s4.4,4.2,9.2,5c4.8.8,6.4,2.8,6.4,5.3,0,0-5.4,6.4-5.3,12.8,0,0-2.8,3.3-7.2,0" class="cls-2"></path>
    <path d="M66.6,85.1s.9,1.4,3.6,2.1c1.2.3,2.5-.3,3-1.5,1-2.1,2.6-5.7,3.6-8.6.4-1.2,0-2.5-1.1-3.2-.8-.5-2.1-1.1-3.9-1.7" class="cls-2"></path>
    <path d="M72.8,86.8l1.9.8c.9.4,2,0,2.4-1h0c.4-.9,1.5-1.4,2.4-1h.2c.9.5,2,0,2.4-.9v-.2c0,0,.2-.2.2-.2.4-.9,0-2-1-2.4h-.2c-.9-.5-1.4-1.6-1-2.5h0c.4-.9,0-2-1-2.4l-1.9-.8" class="cls-2"></path>
    <path d="M47.7,64c-12.4,4.2-19.2,13.3-23.6,20.8-5.4,9.4-14.8,21.1-12.4,32.5,1,5,6.2,12.5,14.1,8.2,18.5-10,17.8-22,17.8-22,4.1-6.3,2.9-7.8,2.9-7.8" class="cls-2"></path>
    <path d="M37.2,89.3s-2.3,1.8-4.2,4c-3.1,3.8,5.4,8.8,5.4,8.8" class="cls-2"></path>
    <path d="M79.7,90.9s-7.8-2.8-18,1.4c-10.1,4.2-15.5,6.5-15.5,6.5" class="cls-2"></path>
    <path d="M105.9,112.3s9.3-4.2,7.2-16.6-14.1-13.2-14.1-13.2c0,0-3.9-.6-6.7,1.7s-2.9,1.9-6.1,2.8c-3.2.9-7.2,1.7-7.6,8.1-.4,6.4,1.7,8,1.7,8,0,0,10.3,7,11.8,10.1s11.8.4,13.9-.9h0Z" class="cls-2"></path>
    <path d="M91.8,105.9s-1.1,4.5,6.3,3.4c5.6-.8,3.6-5.5,3.6-5.5" class="cls-2"></path>
    <path d="M114.1,117.7s-1.1-4.3-6.2-6.6" class="cls-2"></path>
    <path d="M85.3,119.9s1.9,6.1,1.6,13.5" class="cls-2"></path>
    <path d="M77,123.2s-1.7.5-3.2,0-2.1-1.4-6.1-1.7c-4-.3-4.6-.2-7-.9s-4.5-1.4-4.7,0,.6,1.7,1.3,2.2,2.1.9,3.9,1.3,3.4,1.6,3.8,3.4" class="cls-2"></path>
    <path d="M65.8,126.6s-5.5,4.4-9.9,5.6c0,0-4.5.2-6.2.4s-1.5,1.8-.5,2.1,8,1.3,13.2-1.3" class="cls-2"></path>
    <path d="M48.4,133.4s-1.7.3-1.6,1.2c.1,1.5,2.7,1.4,6.9,1.3s6.6,0,8-.4,4.7-2.2,8.2-2.7,8.1-.4,8.1-.4" class="cls-2"></path>
    <path d="M30.5,123.3s-1.2,9.4,16.8,10.4" class="cls-2"></path>
    <path d="M18.8,106.2s8.4-11.4,13.6-11.8" class="cls-2"></path>
  </g>
</svg>