<svg viewBox="0 0 138 138" version="1.1" xmlns="http://www.w3.org/2000/svg" data-sanitized-data-name="Layer 1" data-name="Layer 1" id="Layer_1">
  <defs>
    <style>
      .cls-1 {
        fill: none;
        stroke: #1a2e58;
        stroke-linecap: round;
        stroke-linejoin: round;
        stroke-width: 2.5px;
      }

      .cls-2 {
        fill: #ffe1a1;
        stroke-width: 0px;
      }
    </style>
  </defs>
  <path d="M127.6,68.9c0,32.3-26.2,58.6-58.6,58.6S10.4,101.3,10.4,68.9,36.7,10.4,69,10.4s58.6,26.2,58.6,58.6h0Z" class="cls-2"></path>
  <g>
    <path d="M91.8,39.7c-.5-.6-1.4-1.3-1.9-1.9-.6-.6-1.2-1.1-1.9-1.6-.9-.7-1.7-1.5-2.5-2.2-4.6-4-5.9-10.4-8.6-15.6-.7-1.3-1.4-2.6-2.1-3.9-2.3-4.2-5.5-8.1-9.6-10.6-2.3-1.4-5.1-2.3-7.8-2.3-2.1,0-5.1.5-6.6,2-1,1-2.5,1.4-3.6,2.2-2.4,1.8-4,4.3-5.2,7s-1.8,5.6-2.3,8.5c-.8,4.8-.9,9.6-1.2,14.5,0,.5,0,1,0,1.5,0,1.1-.1,2.2-.3,3.3-.2,1.5-.7,3-1,4.5-.4,1.9-.8,3.9-1,5.8-.2,1.9.5,3.7,1.2,5.4.8,2,1,3.8.6,5.9-.3,1.5-1,2.8-1.9,4-.9,1.2-1.6,2.6-2.2,4.1s-.7,3-.8,4.5c0,1,.1,1.9.4,2.9,0,.3,0,.5-.1.8-.2.5-.3,1.1-.5,1.6-.6,1.8-1.1,3.6-1.7,5.4-.5,1.5-1,3-1.6,4.4-.6,1.5-1.2,3-1.7,4.6-.6,1.8-1.1,3.6-1.5,5.5-.3,1.4-.6,2.8-.7,4.3-.1,1.1-.2,2.1-.2,3.2,0,1.3,0,2.6,0,3.9,0,1.1.2,2.2.4,3.2.2,1.5.6,3,1,4.4.3,1.2.7,2.4,1.2,3.6.7,1.5,1.6,2.8,2.9,3.9.9.7,1.8,1.1,2.8,1.7.9.5,1.8,1,2.6,1.6.8.7,1.8,1.4,2.8,1.8,0,0,0,0,.1,0,.6.1,1.2.4,1.7.7,1,.5,2,.9,2.9,1.4.9.4,1.6,1.1,2.6,1.5s2.1.5,3.1.9c.4.2.8.1,1-.2.2-.3.2-.7,0-1,0,0-.9-1-1.9-1.3" class="cls-1"></path>
    <path d="M51.4,5.5c-.7,1.3-1.5,2.5-2.1,3.9-.5,1.1-1,2.3-1.3,3.5-.3,1.3-.7,2.5-.8,3.9,0,.1,0,.2-.1.3-1.2.9-2,2.1-2.4,3.1-.7,1.5-.7,3.1-.5,4.7.3,2.3.8,4.2,2.6,5.7.8.6,1.2,1.5,1.4,2.4.3,1.2.7,2.4,1.5,3.4.2.3.4.6.7.8,1.5,1.6,3.1,3,4.9,4.2,1,.7,2,1.3,3,1.8.9.4,1.8.2,2.7,0,.4-.1.7-.3,1-.5.2,0,.2.3.2.5.8,3.8-1,7.7-3.5,10.4-2.6,3-6.7,5.6-10.6,6.5-.4.1-.9.2-1.3.4-1.1.5-1.5,1.7-2,2.7-.6,1.3-1.2,2.6-1.5,4-.5,1.8-.4,3.6-.2,5.5.2,1.8.6,3.4,1.3,5.1.3.7,1.5,3.2,2.4,3.3,2.1.2,3.9.7,5.9,1.5,10.5,4.4,19.7,7.9,31.3,7,.6,0,2-.2,2.9-1.1" class="cls-1"></path>
    <path d="M112.6,99.1c-.8,4.9-7.6,8.8-11.6,11.3-5.4,3.3-11,6.3-16.8,8.8s-11.8,4.5-17.7,6.7c-1.4.6-3,.9-4.5,1.3-1.1.2-2.2.3-3.3.4-1.3.1-2.6.3-3.9.4-.5,0-1,0-1.5-.1-.7-.4,0-1.2.4-1.4.5-.3,1.1-.4,1.6-.4,1.2,0,2.4-.2,3.6-.4s2.3-.6,3.4-.6" class="cls-1"></path>
    <path d="M59.6,13.9c2,.7,3,2.9,4.1,4.5,1.3,1.9,2.6,3.8,3.8,5.8s2.1,3.9,3.5,5.6,3,3.3,4.7,4.7c2.4,1.9,5.1,3,8,3.5,7,1.2,13.9,2.6,18.9,8.2,9.4,10.7,8.2,27,8.8,40.2,0,2.2.3,4.3.5,6.5.2,2,.8,4.1.7,6.2" class="cls-1"></path>
    <path d="M98.8,42.9c-3.5.7-5.4,3-6.6,6.2-1.3,3.5-1.2,7.5-.6,11.2.4,2.3.8,4.7,1.4,7,.4,1.9.7,3.9,1.4,5.7,1.5,3.6,2,7.1,2.7,10.8.2,1.1,2.2,11.9,4.3,11.2,1-.4,2.4-.9,3.5-.7" class="cls-1"></path>
    <path d="M83.7,38c0,1.3-.8,3.2-1.3,4.2-.7,1.3-1.4,2.5-2.3,3.7-1.6,2.2-3.7,4-6,5.4-2.3,1.4-5,2.3-7.7,2.7-1.3.2-2.7.3-4,.3s-2,0-3.6-.6" class="cls-1"></path>
    <path d="M46.7,81.2c-1,.8-2.7,1.6-3.9,2.6-1.4,1.2-2.7,2.5-3.8,4-2.2,2.8-3.9,6-4.9,9.4-1.8,6.3-1.2,15.1,2.6,20.7" class="cls-1"></path>
    <path d="M93.9,71.5c-.3.1-.5.4-.6.7-1,2.6-2.2,5-3.3,7.5-1.6,3.6-2.9,7.6-3.7,11.5-.5,2.4,0,5,.6,7.3.7,2.1,2.3,4,2.8,6" class="cls-1"></path>
    <path d="M70.3,110.9c-1-.3-2.1-.7-3.2-.6-1,.1-2,.2-3,.3-1.2,0-2.3.2-3.5.3-1.2,0-2.4,0-3.6,0-.8,0-1.7,0-2.5,0-.3,0-.6,0-.8.3-.5.8.1,1.6.7,2.2.6.5,1.3.7,2,.9.8.2,1.7,0,2.5,0,1,0,3.1,0,4,0" class="cls-1"></path>
    <path d="M47.2,17c.2.2.6.2.8.2.9.1,1.7.4,2.6.6,1.2.3,2.3.6,3.5,1,.9.4,1.7.8,2.6,1.1,1.2.6,2.5,1,3.9,1.3,1,.3,2.1.5,3.2.7.6,0,1.8.3,2.5.2" class="cls-1"></path>
    <path d="M61.3,75.8c.9,1.1,2,2.1,3.2,2.8,4.3,2.4,9.3,3.1,14,1.5" class="cls-1"></path>
    <path d="M100.7,94.8c-.2.6-.7,1.4-1.2,1.8-3.1,2.5-6,5.1-9,7.7s-5.9,5.4-9.4,7.2c-.5.3-1,.7-1.6.9-.8.3-1.6.7-2.4.8-.6,0-1.2,0-1.8,0-1.5-.2-3.7-1.5-5-2.2" class="cls-1"></path>
    <path d="M60.5,123.2c-1.2.2-2.3.6-3.5.8-1.1.2-2.2.4-3.3.5-.4,0-.8,0-1.2-.1-1.2-.3-2.4-.4-3.7-.4-.6,0-2.2,0-2.7-.1" class="cls-1"></path>
    <path d="M59.2,120.9c-2.1,0-4.2.9-6.3.8-.6,0-1.2-.1-1.8-.2-1-.1-2,.1-3,0-.8,0-1.9-.1-2.5.4-.8.6-.6,1.1-.6,1.1" class="cls-1"></path>
    <path d="M62.1,114.4c-1.5,2-5.3,3.4-7.7,3.8-.7.1-1.4.4-2.1.4-1.7,0-3.5,0-4.9,1-.6.3-1.6,1.3-1.3,2.1" class="cls-1"></path>
    <path d="M69.2,30.7c.2,1.2.1,2.3-.2,3.5s-.9,2.2-1.6,3.1c-1.4,1.9-3.2,3.4-4.9,5-.1,0-.4.3-.5.4" class="cls-1"></path>
    <path d="M48,60.2c-1,.3-2.2.5-2.6.6-.6,0-1.2.2-1.9.2" class="cls-1"></path>
    <path d="M37.3,120.3c-.1.7,0,1.3.3,1.9,0,.1.1.2.2.3" class="cls-1"></path>
    <path d="M48.4,124.1c-.3.2-.7.4-.7.8,0,.3.2.6.4.7s.5.3.7.3c2.2.2,2.7.2,6,.3" class="cls-1"></path>
    <path d="M33.4,77.7s.8,5,6.4,9" class="cls-1"></path>
    <path d="M39.3,131.8s.2.4,2.1.4,3.8.1,4.5.4,1.8,0,1.8,0c0,0,2.3-1,3-1s2.9-.3,4.1-.3.3-1.3.3-1.3c0,0-.7-.7-1.7-.8" class="cls-1"></path>
    <path d="M37.1,129.2s.4,1.4,2.5,1.1" class="cls-1"></path>
    <path d="M41.1,130.6s3.3-.3,4.9-.2,3.2-.3,3.2-.3c0,0,2.8-.9,3.5-.9s1.9.2,1.8-.6l-.2-.5" class="cls-1"></path>
    <path d="M53,127.4s.2-.2-3.3-.2-2.7.1-4.1-.2" class="cls-1"></path>
    <path d="M49.9,131.7s4.7,0,4.9,1.8c0,0,.2.6-1,.6s-2.1-.3-3.1-.3-3.5.3-3.5.3c0,0-.7.3-2.6-.6s-3.2-1.4-3.2-1.4" class="cls-1"></path>
    <path d="M31.5,118s4.4-.4,6.2,0,1.8,1.4,3.1,2.5,5.2,3.2,5.8,4.2.6,1.3.3,1.8-1.4.8-2.4.6-2.7-1.7-2.7-1.7c0,0-2.5-1.8-4.7-1.8s-2.1-.3-2.1-.3" class="cls-1"></path>
    <path d="M44.4,97.3c-.6.9-.9,1.9-1,3" class="cls-1"></path>
  </g>
</svg>