<svg viewBox="0 0 138 138" version="1.1" xmlns="http://www.w3.org/2000/svg" data-sanitized-data-name="Layer 1" data-name="Layer 1" id="Layer_1">
  <defs>
    <style>
      .cls-1 {
        fill: #bcd9ad;
        stroke-width: 0px;
      }

      .cls-2 {
        fill: none;
        stroke: #1a2e58;
        stroke-linecap: round;
        stroke-linejoin: round;
        stroke-width: 2.5px;
      }
    </style>
  </defs>
  <path d="M127.6,68.9c0,32.3-26.2,58.6-58.6,58.6S10.4,101.3,10.4,68.9,36.7,10.4,69,10.4s58.6,26.2,58.6,58.6h0Z" class="cls-1"></path>
  <g>
    <path d="M89.8,58.5c0,.1.1.2,0,.4-1.2,7-1.5,14.1-2.7,21.1-.3,1.6-.6,3.3-.8,4.9-.4,3.1-1.3,6.2-1.4,9.3-.2,10.1-.8,20.4-3.6,30.1-.2.8-.4,1.7-.8,2.5-.2.2,0,.5-.2.8" class="cls-2"></path>
    <path d="M72.2,15.6c-.3,0-1.4.7-1.6.9-.8.5-1.6.9-2.4,1.5-1,.6-1.8,1.5-2.4,2.4-2.5,3.4-4.2,7.6-5.2,11.6-.3,1.3-.7,2.6-1.1,3.8-.6,1.7-1.8,3-2.8,4.3-3,3.8-4.7,9-5.8,13.7-.2.8-.3,1.6-.7,2.4-.8,1.5-1.4,3.1-2.9,4.1-.5.4-.4.9-.4,1.3,0,.8.2,1.5.2,2.3,0,.3.1.5.4.6.3.2.7.5,1,.7.5.4,1,.5,1.6.4,0,.2,0,.4.2.6-.7.4-1.3.6-2.1.4-.4-.1-.8-.3-1.2-.6-.4-.2-.5-.5-.6-.9-.2-.6,0-1.1,0-1.7,0-.5,0-1.1,0-1.6,0-.3.2-.4.4-.4" class="cls-2"></path>
    <path d="M81.7,15.2c-.1,0-.2,0-.4,0-1.1.6-2.1,1.4-2.7,2.5-2.6,4.7-3.4,11.3-2.6,16.6.6,3.8,5,7.4,8.8,5.1" class="cls-2"></path>
    <path d="M78.3,70.1c.6,4.5,0,9.4-4.2,11.8-.2.1-.2.3-.2.5.4,4.5-.2,9,.7,13.5.3,1.2.3,2.4,0,3.5-.3,1.2-.3,2.5-.5,3.8,0,.5,0,1,0,1.5,0,1.9,0,3.8-.1,5.6,0,2-.2,4-.2,6,0,3.3-.1,6.5,0,9.8,0,0,0,.1,0,.2.1.3,0,.8.3.9.3.1.6,0,.9,0,1.5,0,2.9.2,4.4.6.3,0,.4.2.4.5,0,.7,0,1.4.4,2.1.5.9,1.8,1.4,2.6,2" class="cls-2"></path>
    <path d="M69.8,108.2c0,1.1.2,2.1.1,3.2,0,.7,0,1.4-.3,2.2-.3.9-.2,1.9-.2,2.9.1,1.8.2,3.7,0,5.5,0,1.2-.2,2.3-.5,3.5-.2.9-.4,1.8-.7,2.7-.2.4-.4.9-.6,1.3-.4,1.6-.3,3.2.7,4.6.2.3.5.6.9.8.3.1.4.4.6.7.1.3,0,.6-.4.7-.4.1-.8.1-1.2.1-1,0-2.1.1-3.1-.2-.3-.1-.4-.3-.5-.6-.3-1.7-.5-3.4-.6-5.2,0-1.2,0-2.3.1-3.5,0-.8,0-1.6,0-2.4,0-1.2-.2-2.4,0-3.6,0-.4,0-.8.2-1.1,0,0,0,0,0,0s0,0,0,0" class="cls-2"></path>
    <path d="M52.4,117.5c0,.8.4,2.3.4,3.1,0,.7.2,1.4.3,2.1.4,1.6,1,3.2,1.8,4.6.4.7.2,1.3,0,1.9-.4,1.1-.9,2.3-1.6,3.3-.5.6-.4,1.1.6,1.3.4,0,.8.1,1.2.2.5,0,1.1,0,1.6-.2.5-.1.6-.5.7-.9.2-.9.5-1.7.7-2.6.1-.4.2-.8.2-1.2,0-.8.1-1.5.2-2.3,0-1.2-.2-2.4-.3-3.7,0-1.3-.2-2.6-.3-3.9,0-.5,0-.9.4-1.2.6-.8.7-1.7.7-2.7" class="cls-2"></path>
    <path d="M98.3,39.3c.3-.4.5-1.8.6-2.2.7-2.8,2.1-6.1.6-8.9-.3-.6-1.4-1.8-1.7-2.4" class="cls-2"></path>
    <path d="M49.9,96.7c0,1-.6,1.9-.9,2.8-1.2,4-1.9,8.1-3.3,12-.6,1.6-1,3.2-1.3,4.8-.3,1.6-.5,3.1-.6,4.7,0,.3,0,.7,0,1,.1.5.2.5.7.5,1.1,0,2.2,0,3.2,0,1,0,2,.4,3.1.4" class="cls-2"></path>
    <path d="M68.9,31.2c-.5.5-.6,1.2-.9,1.8-.2.3-.3.7-.4,1-.4,1.3-1.4,2.7-1.9,4-.5,1.2-.8,2.4-1.4,3.5-.8,1.6-1.3,3.1-2.2,4.6-.4.8-.8,1.6-1.3,2.3-.2.3,0,.5,0,.6,1.5,1.3,3,2.6,4.7,3.6,1.3.8,2.7,1.4,4.2,2,.8.3,1.7.5,2.5.6,4.2.8,8.3,0,12.4-1,.2,0,.5,0,.7,0" class="cls-2"></path>
    <path d="M73,67.8c-.3,0-.3-.4-.4-.6-.7-1.1-1.8-1.6-2.9-1.9-1.2-.4-2.5-.4-3.8-.3-1.8.2-3.3.9-4.3,2.5-.4.7-.7,1.3-.8,2.1,0,.3,0,.6.2.9.3-.1.5-.5.7-.8.4-.5,1.2-.8,1.9-.6,1.2.4,2.5.6,3.8.5.7,0,1.4-.3,2-.5.2,0,.3-.1.5-.1" class="cls-2"></path>
    <path d="M67.5,34c-.2,0-.7,1.2-.8,1.4-.6,1.2-1.4,2.4-1.9,3.7-.4,1-.8,2-1.3,3-.4.8-1,1.4-1.4,2.2-1,1.5-2,3-3,4.5-.8,1.2-1.6,2.2-2.4,3.3-.8,1.2-1.7,2.3-2.3,3.6-.4.8-.8,1.6-1.2,2.4,0,.2-.2.3-.3.4-.2.3,0,.6,0,.9.1.7.1,1.3-.3,1.8-.6.7-.7,1.6-.4,2.4.1.4,0,.6-.3.7-.1,0-.2.1-.3.2" class="cls-2"></path>
    <path d="M60.8,49.1c0,.7-.3,1.7-.6,2.3-.7,1.8-1.4,3.7-1.9,5.5-1.1,3.8-2,7.6-2.7,11.5-.2.9-.4,1.9-.5,2.8,0,.5-.2.9-.2,1.4" class="cls-2"></path>
    <path d="M72.9,79.2c-.2.9-.5,1.6-.6,2.5-.1,1-.1,2-.1,3.1,0,3.2.2,7.4,1.5,10.3.5,1.2.3,1.9-.7,2.9-1.8,1.7-5.6,1.7-7.9,1.8-4.7.3-9-.6-13.3-2.4-1.9-.8-3.8-2.2-4.3-4.3-.2-1-.3-1.9.2-2.9.9-1.8,2-3.7,2.6-5.7.7-2.2.5-4.3.4-6.5,0-.2,0-.3,0-.5" class="cls-2"></path>
    <path d="M53.9,98.4c-.5,1.2-.9,2.4-1.4,3.6-.2.5-.4.9-.3,1.5.1,1-.2,1.9-.5,2.9-.5,1.3-.6,2.7-.7,4.1,0,1,0,1.9,0,2.9,0,.6.2,1.1.3,1.6,0,.3.4.4.7.4,1.4.1,2.9.2,4.3,0,.7,0,3.9,0,3.9-1,0-.8,0-1.6-.1-2.4,0-.2,0-.3,0-.4.6,0,1.3,0,1.9,0,.2,0,.4.2.6.4" class="cls-2"></path>
    <path d="M71.7,16.1c.2,1.2.2,2.5.2,3.7,0,2.3-.1,4.5-.3,6.8-.1,1.2,0,5.4-1.3,5.9" class="cls-2"></path>
    <path d="M47.7,130.6c-.6,0-1.6-.2-1.6-.2-.2,0-.3,0-.5-.2-.8-.9-1.9-1.3-3.1-1.5-.2,0-.4.1-.5,0" class="cls-2"></path>
    <path d="M41.3,129.2c-1-.4-2.9,1.7-3.5,2.4-1.1,1.3.2,2.4,1.5,2.5,2,.3,5.6.3,6.9-1.5.3-.4,1.2-.6,2-.6" class="cls-2"></path>
    <path d="M89,2.7c-.4-.2-1.1-.2-1.5,0-2.2.5-3.9,2.3-5.3,4-1.2,1.4-2.5,2.9-3.7,4.4-1,1.3-2.2,2.3-3.3,3.4-.2.2-.4.3-.5.6" class="cls-2"></path>
    <path d="M91.1,5.7c-.2.8,0,1.7.2,2.5.4,1.6.9,3.3,1.4,4.8.3.9.8,1.9,1.2,2.8.4.8.5,1.7.3,2.6,0,.7-.2,1.4-.4,2" class="cls-2"></path>
    <path d="M75.7,69.1c0,0-.1,0-.2,0-.5.3-.6.6,0,.9.6.4,1.2.7,2,.3.2-.1.4-.3.6-.3.3,0,.4-.2.6-.5.2-.4.3-1,.8-1.2.8-.3,1.3-.9,1.8-1.6.5-.8,1.2-1.5,1.9-2.1.4-.4,1-.7,1.3-1.2.5-.8,1.1-1.5,1.8-2.1.8-.8,1.7-1.5,2.5-2.2.4-.3.8-.6,1.1-.9.8-1,5.1-6.5,5.1-8.1" class="cls-2"></path>
    <path d="M90.7,6.5c-.6.5-1.3.9-1.9,1.3-1,.6-2.1,1.2-3.2,1.8-.7.4-1.3.8-1.7,1.4-.4.7-.8,1.4-1.2,2.1-.4.6-.6,1.3-.8,1.9-.8,2.1-.3,6.8,1.8,8.1.2.1.5.3.8.3,2.9.1,6.3-.3,8.2-2.8.2-.2,1.5-1.9,1.7-2.1" class="cls-2"></path>
    <path d="M89.5,23.1c0,.6-.2,1.3-.4,1.9-.3,1.1-.9,2.1-1.5,3.2-.8,1.3-1.6,2.5-2.3,3.9-.7,1.4-.9,2.9-.9,4.5,0,.5,0,1,.2,1.5.2,1,.2,2.7.2,2.7-.3,1.3-.5,2.7-.2,4,.2,1.3.7,2.5,1.6,3.5,1.4,1.7,3.2,1.8,5.3,2,2.9.2,5.5.3,6.7-2.9,1.6-4.3-.2-8.5-1.4-12.6-.4-1.4-.7-2.7-.3-4.2.4-1.6.9-3.1,1.2-4.7s0-3,.2-4.5.4-3,.9-4.4c1.3-3.4,2.5-5.9,1.3-9.5-1.3-4.3-6.4-6.6-10.5-5.1-.2,0-.4.2-.6.4" class="cls-2"></path>
    <path d="M73.8,66.8c-.5.5-.8,1.1-1,1.7-.5,1-.9,2-1.2,3.1-.2.8-.2,1.6-.1,2.4,0,.7,0,1.4,0,2.2,0,.3-.1.5-.4.7-.8.4-1.5,1-2.1,1.7-.6.7-1.5,1.1-2.2,1.7,0,0-.3.2-.5.2-3.9,0-7.7-1.5-11.2-2.9-1-.4-2-.7-3-1.1" class="cls-2"></path>
    <path d="M47,68.3c0,.8.1,1.7.2,2.5.2,1.2.3,2.4.7,3.6.3.9.9,1.6,1.5,2.2.8.8,1.9,1.1,2.6,1.9" class="cls-2"></path>
    <path d="M52.6,69.4c.3.7.5,1.4.9,2.1.4.9,1,1.5,2.1,1.7.9.1,1.7.8,2.4,1.3.5.4,1,.7,1.3,1.1,0,0,.2.2.3.1" class="cls-2"></path>
    <path d="M69.1,99.7c0,1.9,1.2,4.6.9,6.4-.4,2.5,0,1.3-2.7,2.8-1.4.8-2.7,1.8-3.9,2.8-.6.6-.8,1.2-.8,1.9,0,.4.7,1.1,1.1,1.1.2,0,.2-.2.3-.3" class="cls-2"></path>
    <path d="M87.8,49.7c-.8,1.3-1.4,2.7-2.2,4-.5.9-.9,1.9-1.4,2.8-1,1.8-2.2,3.2-4,4.2-.9.5-1.9,1-2.7,1.7-.1,0-.2.1-.3.1-.5,0-.9.3-1.1.8,0,.2-.3.3-.2.5" class="cls-2"></path>
    <path d="M69.6,81c-.8,1.4-1.6,2.9-2.3,4.4-.6,1.1-2.1,2.8-2.2,4" class="cls-2"></path>
    <path d="M51,123.1c-.1,1.3,1.6,2.3.3,3.7-.2.2-.5.4-.8.6-1.2.7-3.6,1.1-4.1,2.5" class="cls-2"></path>
    <path d="M52.8,115.6c-.1.2,0,.4,0,.6,0,.4-.2.7-.3,1.1-.2.5-.2,1-.4,1.5-.2.7-.2,1.4-.6,2.1-.1.3,0,.6,0,.9,0,.3,0,.6,0,.9,0,.3-.2.4-.5.4" class="cls-2"></path>
    <path d="M75.5,132.3c1.2.2,2.4.4,3.6.4.6,0,2.7.3,3.1-.2" class="cls-2"></path>
    <path d="M81,15.2c-.4-.2-.8-.2-1.2-.3-1.5-.1-3,0-4.5,0-1.1,0-2.1.3-3.1.6" class="cls-2"></path>
    <path d="M84.1,51.1c-2,.5-4,.9-6.1.6" class="cls-2"></path>
    <path d="M81.1,131.5s-1.4-.3-1.9-.4c-.6,0-1.3-.1-1.9,0-.8,0-1.3.5-1.9.9-.3.2-.6.5-.9.7" class="cls-2"></path>
    <path d="M44.4,122.7c-.2.8-.5,1.5-.8,2.2-.4.9-.8,1.8-1.2,2.7-.3.5-.5,1.1-1,1.5" class="cls-2"></path>
    <path d="M88.7,23.6c-1.2.9-2.5,1.6-3.7,2.6-.6.5-1.1,1-1.8,1.3,0,0-.1,0-.2,0" class="cls-2"></path>
    <path d="M50.3,60.6c.2.2.2.5.1.8,0,.5,0,1,0,1.6,0,.8.4,1.3,1,1.8.1,0,.2.2.3.3.3,1.1.8,2.3,1,3.4.1.6-.3,1.3-.9,1.5-.4.1-.8-.2-1.1-.3-.5-.2-2-.2-2-.2" class="cls-2"></path>
    <path d="M74.3,127.5c.1,1.3.2,2.6,0,3.8-.1,1.2.2,2.2.7,3.2.3.7.9,1.1,1.5,1.5.4.2.8,0,1.2,0,1.1,0,2.1,0,3.2,0,.3,0,.6,0,1,0,1.2-.3,1.6-1.5,1.3-2.7,0-.1-.4-.7-.4-.9" class="cls-2"></path>
    <path d="M48.2,132.1c1.4.1,4.2.3,3.8-1.2-.2-.8-3.8-.4-4.4-.4-.3,0,.5-.1.3,0" class="cls-2"></path>
    <path d="M63.5,114.8c0,.2-.2.4-.3.6-.4.9-.4,1.7,0,2.6.3.6.8,1.1,1.2,1.6" class="cls-2"></path>
    <path d="M68.3,104.1c-.8.7-1.6,1.3-2.4,2-.8.6-1.4,1.4-2.2,2" class="cls-2"></path>
    <path d="M48.3,61.8c-.2,1.4.5,2,1.6,2.6.4.2.9.3,1,.9" class="cls-2"></path>
    <path d="M79.2,67.4c-1,.5-1.1.4-2.1.8-.3.1-.6-.1-.9-.2-.4-.2-.9-.4-1.3-.9-.7-.6-.4-.6-.6-1.1,0-.1,0-.3,0-.5-.1-.3,0-.6.1-.9" class="cls-2"></path>
    <path d="M40,129.6c1.5.2,4.1.8,5.6.7" class="cls-2"></path>
    <path d="M76.2,62.8c-.5,0-.9-.1-1.4-.4-.2,0-.4,0-.6,0-.4.1-.4.3-.3.6.3.5.6.9,1.3.8.5,0,1,0,1.6.1.8,0,1.6,0,2.3-.4" class="cls-2"></path>
    <path d="M60.8,70.6c-.3.3-.3.8-.3,1.2-.1.7-.2,1.5-.5,2.1-.3.7-.3,1.4-.3,2.1s0,1.4.3,2.1c.2.4.6.7.7,1.2" class="cls-2"></path>
    <path d="M74.4,63.8c-.4.4-.4.5,0,.9.5.4,1.1,1.1,1.7,1.2.6.2,1.2,0,1.7,0" class="cls-2"></path>
    <path d="M69.8,68.7c.2.1,0,.3,0,.5,0,1.1.6,2.1,1.3,2.9,0,0,.1,0,.2,0" class="cls-2"></path>
    <path d="M60.4,71.6c-.3-.1-1.2,0-1.3.3-.2.6,0,1.5.4,2,0,.2.1.2.2.3" class="cls-2"></path>
    <path d="M71.5,75.3c.2.4,0,2.3,0,2.7,0,.6,0,1.2,0,1.8" class="cls-2"></path>
    <path d="M79.4,68.4c-.3.2-1.8.9-2.1,1.1-.5.2-.9,0-1.2-.3-.8-.4-1.6-.9-1.9-1.8,0-.3-.4-.5-.4-.9,0-.2,0-.4.4-.4" class="cls-2"></path>
    <path d="M58,113.3c-1.6.2-3.2.2-4.8,0" class="cls-2"></path>
    <path d="M81.4,18.5c-.3.4-.5.8-.6,1.3-.1.4-.2.7-.3,1.1" class="cls-2"></path>
    <path d="M45.9,64.7c-.5.5-.5,1.2,0,1.7.3.5.8.7,1.2,1.1.4.4.8.1,1.2.2.2,0,.5-.1.7-.2.6-.2.7-.3.4-.9" class="cls-2"></path>
    <path d="M68.8,31.4c.2.5.5.9.6,1.4,0,.8.1,1.7.2,2.5" class="cls-2"></path>
    <path d="M68.3,117.4c-.3.5-.8.8-1.3,1-.2.1-.4,0-.6,0" class="cls-2"></path>
    <path d="M54.5,118.2c.5.4,1,.6,1.6.5,0,0,.2,0,.3,0" class="cls-2"></path>
    <path d="M52.4,56.3c.1.7.2,1.5.4,2.2" class="cls-2"></path>
    <path d="M56.4,74c0,.1,0,.2,0,.3.1.6-.2.9-.8,1" class="cls-2"></path>
    <path d="M68.6,80.1c-.5.2-2.3.3-2.3.3" class="cls-2"></path>
    <path d="M46.1,66.8c-.2.4,0,.7.2,1,.2.2.4.3.6.4.5.3,1,0,1.2-.5,0,0,0,0,0,0" class="cls-2"></path>
    <path d="M73.8,82.3s-.8.4-1.2.4c-.1,0-.2,0-.4,0" class="cls-2"></path>
    <path d="M63.2,47c.3.6.8,1,1.3,1.4" class="cls-2"></path>
    <path d="M68.3,30.1s.1,0,.1.1c.4.9,1.2,1.3,1.7,2.2" class="cls-2"></path>
    <path d="M66.6,135.1c-.4-.2-.9-.3-1.3,0" class="cls-2"></path>
    <path d="M50.9,65.3c-.3.1-.6.2-.9.3" class="cls-2"></path>
    <path d="M77.1,62.5s1.2.4,1.1,1.4" class="cls-2"></path>
  </g>
</svg>