<svg version="1.0" preserveAspectRatio="xMidYMid meet" height="70" viewBox="0 0 52.5 52.499999" zoomAndPan="magnify" width="70" xmlns:xlink="http://www.w3.org/1999/xlink" xmlns="http://www.w3.org/2000/svg"><path fill-rule="nonzero" fill-opacity="1" d="M 48.015625 25.980469 C 48.015625 26.699219 47.980469 27.417969 47.90625 28.136719 C 47.835938 28.855469 47.730469 29.566406 47.589844 30.273438 C 47.449219 30.980469 47.273438 31.679688 47.066406 32.371094 C 46.855469 33.058594 46.613281 33.738281 46.339844 34.402344 C 46.0625 35.070312 45.753906 35.71875 45.414062 36.355469 C 45.074219 36.992188 44.703125 37.609375 44.304688 38.207031 C 43.902344 38.808594 43.476562 39.386719 43.015625 39.945312 C 42.558594 40.5 42.078125 41.035156 41.566406 41.542969 C 41.058594 42.054688 40.523438 42.539062 39.964844 42.996094 C 39.410156 43.453125 38.832031 43.882812 38.230469 44.28125 C 37.632812 44.683594 37.015625 45.050781 36.378906 45.390625 C 35.742188 45.730469 35.09375 46.039062 34.425781 46.316406 C 33.761719 46.589844 33.082031 46.835938 32.390625 47.042969 C 31.703125 47.253906 31.003906 47.425781 30.296875 47.570312 C 29.589844 47.710938 28.878906 47.816406 28.160156 47.886719 C 27.441406 47.957031 26.722656 47.992188 26.003906 47.992188 C 25.28125 47.992188 24.5625 47.957031 23.84375 47.886719 C 23.128906 47.816406 22.414062 47.710938 21.707031 47.566406 C 21 47.425781 20.300781 47.253906 19.613281 47.042969 C 18.921875 46.835938 18.246094 46.589844 17.578125 46.316406 C 16.914062 46.039062 16.261719 45.730469 15.625 45.390625 C 14.992188 45.050781 14.371094 44.683594 13.773438 44.28125 C 13.175781 43.882812 12.59375 43.453125 12.039062 42.996094 C 11.480469 42.539062 10.949219 42.054688 10.4375 41.542969 C 9.929688 41.035156 9.445312 40.5 8.988281 39.945312 C 8.53125 39.386719 8.101562 38.808594 7.699219 38.207031 C 7.300781 37.609375 6.929688 36.992188 6.589844 36.355469 C 6.25 35.71875 5.941406 35.070312 5.667969 34.402344 C 5.390625 33.738281 5.148438 33.058594 4.9375 32.371094 C 4.730469 31.679688 4.554688 30.980469 4.414062 30.273438 C 4.273438 29.566406 4.167969 28.855469 4.097656 28.136719 C 4.027344 27.417969 3.992188 26.699219 3.992188 25.980469 C 3.992188 25.257812 4.027344 24.539062 4.097656 23.820312 C 4.167969 23.105469 4.273438 22.390625 4.414062 21.683594 C 4.554688 20.976562 4.730469 20.28125 4.9375 19.589844 C 5.148438 18.898438 5.390625 18.222656 5.667969 17.554688 C 5.941406 16.890625 6.25 16.238281 6.589844 15.605469 C 6.929688 14.96875 7.300781 14.351562 7.699219 13.75 C 8.101562 13.152344 8.53125 12.574219 8.988281 12.015625 C 9.445312 11.457031 9.929688 10.925781 10.4375 10.414062 C 10.949219 9.90625 11.480469 9.421875 12.039062 8.964844 C 12.59375 8.507812 13.175781 8.078125 13.773438 7.679688 C 14.371094 7.277344 14.992188 6.90625 15.625 6.566406 C 16.261719 6.226562 16.914062 5.917969 17.578125 5.644531 C 18.246094 5.367188 18.921875 5.125 19.613281 4.914062 C 20.300781 4.707031 21 4.53125 21.707031 4.390625 C 22.414062 4.25 23.128906 4.144531 23.84375 4.074219 C 24.5625 4.003906 25.28125 3.96875 26.003906 3.96875 C 26.722656 3.96875 27.441406 4.003906 28.160156 4.074219 C 28.878906 4.144531 29.589844 4.25 30.296875 4.390625 C 31.003906 4.53125 31.703125 4.707031 32.390625 4.914062 C 33.082031 5.125 33.761719 5.367188 34.425781 5.644531 C 35.09375 5.917969 35.742188 6.226562 36.378906 6.566406 C 37.015625 6.90625 37.632812 7.277344 38.230469 7.679688 C 38.832031 8.078125 39.410156 8.507812 39.964844 8.964844 C 40.523438 9.421875 41.058594 9.90625 41.566406 10.414062 C 42.078125 10.925781 42.558594 11.457031 43.015625 12.015625 C 43.476562 12.574219 43.902344 13.152344 44.304688 13.75 C 44.703125 14.351562 45.074219 14.96875 45.414062 15.605469 C 45.753906 16.238281 46.0625 16.890625 46.339844 17.554688 C 46.613281 18.222656 46.855469 18.898438 47.066406 19.589844 C 47.273438 20.28125 47.449219 20.976562 47.589844 21.683594 C 47.730469 22.390625 47.835938 23.105469 47.90625 23.820312 C 47.980469 24.539062 48.015625 25.257812 48.015625 25.980469 Z M 48.015625 25.980469" fill="#e8d1f2"></path><path stroke-miterlimit="4" stroke-opacity="1" stroke-width="2.5" stroke="#001f60" d="M 88.957983 133.405877 L 96.359055 117.432414 L 113.524567 121.402457 L 89.735406 72.735744 L 65.168823 84.749529 Z M 88.957983 133.405877" stroke-linejoin="round" fill="none" transform="matrix(0.376846, 0, 0, 0.376846, 0.0000005, 0.000000990566)" stroke-linecap="round"></path><path stroke-miterlimit="4" stroke-opacity="1" stroke-width="2.5" stroke="#001f60" d="M 49.039876 133.405877 L 41.638803 117.432414 L 24.483657 121.402457 L 48.262452 72.735744 L 72.829036 84.749529 Z M 49.039876 133.405877" stroke-linejoin="round" fill="none" transform="matrix(0.376846, 0, 0, 0.376846, 0.0000005, 0.000000990566)" stroke-linecap="round"></path><path stroke-miterlimit="4" stroke-opacity="1" stroke-width="2.5" stroke="#001f60" d="M 76.726519 7.598017 C 79.494147 10.282719 83.453824 11.340015 87.175092 10.396742 C 93.000585 8.92482 98.929736 12.345483 100.567508 18.129514 C 101.624804 21.83005 104.506454 24.732432 108.217355 25.779362 C 114.001387 27.406769 117.42205 33.346284 115.950128 39.171778 C 115.006854 42.903411 116.074516 46.863088 118.748853 49.620351 C 122.926209 53.922094 122.926209 60.784153 118.748853 65.07553 C 116.074516 67.843158 115.006854 71.802836 115.950128 75.534469 C 117.42205 81.349597 114.001387 87.278747 108.217355 88.916519 C 104.516819 89.973815 101.624804 92.855465 100.567508 96.566367 C 98.940101 102.350398 93.000585 105.771061 87.175092 104.299139 C 83.453824 103.355866 79.494147 104.423527 76.726519 107.097864 C 72.435141 111.27522 65.573083 111.27522 61.271339 107.097864 C 58.514077 104.423527 54.5544 103.355866 50.822767 104.299139 C 44.997273 105.771061 39.068123 102.350398 37.430351 96.566367 C 36.38342 92.865831 33.491405 89.973815 29.780503 88.916519 C 23.996472 87.289112 20.575808 81.349597 22.04773 75.534469 C 22.991004 71.802836 21.933708 67.843158 19.249006 65.07553 C 15.07165 60.784153 15.07165 53.922094 19.249006 49.620351 C 21.933708 46.863088 22.991004 42.903411 22.04773 39.171778 C 20.575808 33.346284 23.996472 27.417134 29.780503 25.779362 C 33.481039 24.732432 36.38342 21.840416 37.430351 18.129514 C 39.057757 12.345483 44.997273 8.935185 50.822767 10.396742 C 54.5544 11.340015 58.514077 10.282719 61.271339 7.598017 C 65.573083 3.420661 72.435141 3.420661 76.726519 7.598017 Z M 76.726519 7.598017" stroke-linejoin="round" fill-rule="nonzero" fill="#e8d1f2" fill-opacity="1" transform="matrix(0.376846, 0, 0, 0.376846, 0.0000005, 0.000000990566)" stroke-linecap="round"></path><path stroke-miterlimit="4" stroke-opacity="1" stroke-width="2.5" stroke="#001f60" d="M 100.84738 57.353123 C 100.84738 59.436618 100.650433 61.509748 100.235807 63.562146 C 99.831547 65.614544 99.230339 67.604748 98.421819 69.543124 C 97.623664 71.471135 96.649293 73.305854 95.477975 75.047283 C 94.317023 76.788712 93.000585 78.395387 91.518298 79.867309 C 90.046376 81.349597 88.429335 82.666034 86.698272 83.837352 C 84.956843 84.998304 83.122124 85.972675 81.183748 86.77083 C 79.255737 87.579351 77.265533 88.180558 75.213135 88.584818 C 73.160737 88.999444 71.087607 89.196392 69.004112 89.196392 C 66.910251 89.196392 64.837122 88.999444 62.784724 88.584818 C 60.732326 88.180558 58.742121 87.579351 56.814111 86.77083 C 54.875735 85.972675 53.041015 84.998304 51.309952 83.837352 C 49.568524 82.666034 47.961848 81.349597 46.479561 79.867309 C 44.997273 78.395387 43.680836 76.788712 42.519883 75.047283 C 41.358931 73.305854 40.374195 71.471135 39.57604 69.543124 C 38.777885 67.604748 38.166312 65.614544 37.762051 63.562146 C 37.357791 61.509748 37.150478 59.436618 37.150478 57.353123 C 37.150478 55.259263 37.357791 53.186133 37.762051 51.133735 C 38.166312 49.081337 38.777885 47.091133 39.57604 45.163122 C 40.374195 43.224746 41.358931 41.390027 42.519883 39.658964 C 43.680836 37.917535 44.997273 36.31086 46.479561 34.828572 C 47.961848 33.346284 49.568524 32.029847 51.309952 30.868895 C 53.041015 29.707942 54.875735 28.723206 56.814111 27.925051 C 58.742121 27.126896 60.732326 26.515323 62.784724 26.111063 C 64.837122 25.706802 66.910251 25.499489 69.004112 25.499489 C 71.087607 25.499489 73.160737 25.706802 75.213135 26.111063 C 77.265533 26.515323 79.255737 27.126896 81.183748 27.925051 C 83.122124 28.723206 84.956843 29.707942 86.698272 30.868895 C 88.429335 32.029847 90.046376 33.346284 91.518298 34.828572 C 93.000585 36.31086 94.317023 37.917535 95.477975 39.658964 C 96.649293 41.390027 97.623664 43.224746 98.421819 45.163122 C 99.230339 47.091133 99.831547 49.081337 100.235807 51.133735 C 100.650433 53.186133 100.84738 55.259263 100.84738 57.353123 Z M 100.84738 57.353123" stroke-linejoin="round" fill-rule="nonzero" fill="#e8d1f2" fill-opacity="1" transform="matrix(0.376846, 0, 0, 0.376846, 0.0000005, 0.000000990566)" stroke-linecap="round"></path></svg>