<svg version="1.0" preserveAspectRatio="xMidYMid meet" height="70" viewBox="0 0 52.5 52.499999" zoomAndPan="magnify" width="70" xmlns:xlink="http://www.w3.org/1999/xlink" xmlns="http://www.w3.org/2000/svg"><path fill-rule="evenodd" fill-opacity="1" d="M 48.09375 25.929688 C 48.09375 38.09375 38.203125 47.953125 26.003906 47.953125 C 13.800781 47.953125 3.910156 38.09375 3.910156 25.929688 C 3.910156 13.765625 13.804688 3.902344 26.003906 3.902344 C 38.199219 3.902344 48.09375 13.761719 48.09375 25.929688 Z M 48.09375 25.929688" fill="#e8d1f2"></path><path stroke-miterlimit="4" stroke-opacity="1" stroke-width="2.5" stroke="#001f60" d="M 68.382173 135.085112 C 68.382173 135.085112 23.530018 136.702153 26.546421 89.154929 C 26.546421 89.154929 26.971413 70.942487 41.700997 52.688582 C 56.420216 34.445043 61.789622 26.722636 63.137156 15.247864 C 63.935311 8.541291 62.950574 3.814556 68.382173 2.809088 C 73.813772 3.814556 72.829036 8.541291 73.616825 15.247864 C 74.974725 26.71227 80.34413 34.434677 95.063349 52.688582 C 109.782568 70.942487 110.20756 89.154929 110.20756 89.154929 C 113.223963 136.702153 68.382173 135.085112 68.382173 135.085112 Z M 68.382173 135.085112" stroke-linejoin="round" fill="none" transform="matrix(0.376846, 0, 0, 0.376846, 0.0000005, 0.000000990566)" stroke-linecap="round"></path><path stroke-miterlimit="10" stroke-opacity="1" stroke-width="2.1" stroke="#001f60" d="M 50.377044 69.377274 C 50.802036 68.123031 51.67275 67.490726 52.989187 67.490726 L 56.772648 67.490726 C 58.089086 67.490726 58.9598 68.123031 59.384791 69.377274 L 68.081569 94.887132 C 68.361442 95.695652 68.330345 96.348688 67.967547 96.815142 C 67.615115 97.302328 67.034639 97.530372 66.195022 97.530372 L 63.417028 97.530372 C 62.100591 97.530372 61.240242 96.887702 60.804885 95.602361 L 59.550642 91.228058 L 50.180097 91.228058 L 48.915488 95.602361 C 48.563056 96.887702 47.702707 97.530372 46.355173 97.530372 L 43.587545 97.530372 C 42.747928 97.530372 42.14672 97.291962 41.815019 96.815142 C 41.462587 96.338322 41.421125 95.695652 41.700997 94.887132 L 50.397775 69.377274 Z M 57.819579 85.350736 L 56.140344 79.514877 C 55.995225 79.027692 55.870837 78.499044 55.736084 77.908202 C 55.622062 77.31736 55.476942 76.757615 55.342189 76.228967 C 55.19707 75.607028 55.062317 74.985089 54.917198 74.342419 L 54.834272 74.342419 C 54.689153 74.985089 54.5544 75.607028 54.409281 76.228967 C 54.274527 76.757615 54.139774 77.327725 54.005021 77.908202 C 53.880633 78.499044 53.745879 79.027692 53.611126 79.514877 L 51.890429 85.350736 Z M 57.819579 85.350736" stroke-linejoin="miter" fill="none" transform="matrix(0.376846, 0, 0, 0.376846, 0.0000005, 0.000000990566)" stroke-linecap="butt"></path><path stroke-miterlimit="10" stroke-opacity="1" stroke-width="2.1" stroke="#001f60" d="M 72.404044 94.29629 C 72.404044 92.451205 72.715014 90.844529 73.357684 89.465898 C 74.000354 88.097633 74.798509 86.884852 75.762514 85.827556 C 76.705788 84.780626 77.752718 83.858083 78.89294 83.059928 C 80.022795 82.261774 81.05936 81.525813 82.023365 80.862411 C 82.966639 80.188644 83.775159 79.535608 84.407464 78.934401 C 85.050134 78.322828 85.381835 77.638695 85.381835 76.9131 C 85.381835 75.876535 85.039768 75.119843 84.34527 74.643023 C 83.661137 74.155837 82.925176 73.927793 82.137387 73.927793 C 81.473986 73.927793 80.862412 74.083278 80.313033 74.373516 C 79.763654 74.663754 79.307565 75.005821 78.944768 75.399715 C 78.405754 75.897266 77.86674 76.228967 77.317361 76.384452 C 76.767982 76.539936 76.218603 76.384452 75.658858 75.897266 L 74.021085 74.60156 C 72.787573 73.616824 72.590626 72.580259 73.430243 71.491866 C 73.793041 71.015046 74.24913 70.50713 74.81924 69.978482 C 75.378985 69.449834 76.042387 68.962648 76.788713 68.527291 C 77.545405 68.102299 78.41612 67.729136 79.421588 67.438898 C 80.406324 67.138294 81.53618 67.003541 82.800788 67.003541 C 84.055032 67.003541 85.257447 67.179757 86.480593 67.55292 C 87.70374 67.905352 88.802498 68.465097 89.776869 69.211424 C 90.761606 69.947385 91.549395 70.901024 92.160968 72.072342 C 92.762175 73.24366 93.062779 74.611926 93.062779 76.208236 C 93.062779 77.814911 92.762175 79.141714 92.160968 80.313032 C 91.55976 81.48435 90.803068 82.510549 89.890891 83.422726 C 88.978714 84.334903 87.993978 85.133058 86.926316 85.817191 C 85.858654 86.511689 84.873918 87.143993 83.951375 87.734835 C 83.018467 88.315312 82.241044 88.885422 81.588008 89.445167 C 80.945338 90.004912 80.603271 90.60612 80.541077 91.259155 L 91.207328 91.259155 C 92.75181 91.259155 93.518868 92.026213 93.518868 93.570695 L 93.518868 95.249929 C 93.518868 96.794411 92.75181 97.561469 91.207328 97.561469 L 74.871068 97.561469 C 74.135107 97.561469 73.544266 97.364522 73.088177 96.970627 C 72.632089 96.576732 72.404044 95.996256 72.404044 95.249929 Z M 72.404044 94.29629" stroke-linejoin="miter" fill="none" transform="matrix(0.376846, 0, 0, 0.376846, 0.0000005, 0.000000990566)" stroke-linecap="butt"></path></svg>