<svg version="1.0" xmlns="http://www.w3.org/2000/svg" width="1474.000000pt" height="258.000000pt" viewBox="0 0 1474.000000 258.000000" preserveAspectRatio="xMidYMid meet">

<g transform="translate(0.000000,258.000000) scale(0.100000,-0.100000)" fill="#0a0747" stroke="none">
<path d="M12922 2570 c-86 -18 -179 -103 -202 -185 -21 -74 -8 -165 30 -225
59 -92 148 -136 261 -128 105 8 177 58 232 162 27 51 29 161 3 219 -22 50 -88
115 -140 137 -52 23 -129 31 -184 20z"></path>
<path d="M7033 2519 c-10 -10 -13 -105 -13 -403 l0 -390 -57 56 c-73 72 -157
122 -256 153 -141 45 -369 30 -547 -34 -226 -83 -396 -273 -474 -531 -41 -138
-51 -214 -50 -385 1 -189 18 -267 89 -412 127 -257 359 -438 640 -499 184 -40
507 -11 690 61 267 105 426 326 465 647 8 64 10 317 8 808 l-3 715 -24 53
c-30 66 -94 123 -163 146 -71 23 -288 34 -305 15z m-309 -990 c122 -48 219
-173 263 -339 22 -84 25 -348 4 -430 -33 -136 -101 -228 -200 -274 -39 -18
-65 -21 -162 -21 -113 0 -116 1 -191 38 -131 64 -228 194 -274 367 -22 82 -25
272 -5 350 41 166 145 291 271 327 69 20 222 11 294 -18z"></path>
<path d="M14426 2496 c-86 -32 -146 -121 -146 -216 0 -71 26 -126 80 -172 77
-66 185 -74 272 -19 108 69 136 211 63 323 -51 78 -178 118 -269 84z m159 -35
c68 -30 125 -113 125 -181 0 -38 -24 -95 -56 -130 -95 -105 -255 -85 -321 39
-86 164 84 349 252 272z"></path>
<path d="M14420 2281 l0 -121 29 0 c28 0 30 2 33 46 l3 46 32 -46 c27 -38 38
-46 63 -46 l31 0 -30 43 -29 43 24 21 c29 26 32 71 5 104 -16 19 -30 24 -90
27 l-71 4 0 -121z m101 69 c28 -15 24 -49 -7 -60 -35 -14 -34 -15 -34 30 0 41
8 47 41 30z"></path>
<path d="M13540 2441 c-8 -15 -10 -290 -7 -1004 3 -878 5 -988 19 -1036 40
-128 112 -229 206 -290 161 -103 494 -133 638 -58 76 39 124 135 124 248 0 89
-9 95 -170 107 -154 12 -197 22 -240 58 -60 51 -60 44 -60 929 0 864 0 857
-53 935 -29 44 -97 96 -145 111 -20 6 -96 14 -169 16 -125 5 -132 4 -143 -16z"></path>
<path d="M18 2404 c-5 -4 -8 -524 -8 -1156 0 -1130 0 -1148 20 -1168 29 -29
50 -32 258 -28 184 3 192 4 214 26 l23 23 5 477 5 477 49 -94 c107 -203 310
-481 474 -647 259 -264 562 -350 802 -229 55 28 70 48 70 97 0 48 -20 71 -102
116 -154 84 -287 198 -457 387 -127 142 -187 218 -246 310 -41 65 -85 157 -85
179 0 15 82 118 454 571 126 154 236 292 244 306 18 30 10 71 -18 99 -18 18
-34 20 -153 20 -221 0 -301 -25 -411 -129 -79 -75 -266 -300 -461 -556 l-160
-210 -5 450 -5 450 -33 67 c-36 73 -86 121 -155 146 -45 17 -306 30 -319 16z"></path>
<path d="M2461 1939 c-420 -90 -688 -401 -733 -850 -27 -269 43 -502 209 -697
114 -133 300 -248 482 -296 337 -90 741 -36 911 121 75 69 100 131 107 258 5
83 4 92 -16 110 -25 21 -16 23 -156 -39 -135 -60 -279 -86 -471 -86 -261 0
-471 125 -525 312 l-8 28 177 0 c195 0 469 15 571 30 288 44 434 132 482 292
42 136 13 332 -68 466 -82 136 -172 215 -327 287 -139 66 -188 77 -376 81
-138 3 -180 0 -259 -17z m359 -396 c142 -39 200 -105 200 -228 0 -49 -4 -60
-29 -85 -57 -57 -205 -80 -520 -80 l-214 0 5 63 c21 255 278 407 558 330z"></path>
<path d="M4348 1945 c-250 -47 -476 -203 -573 -395 -91 -180 -95 -217 -95
-881 l0 -558 24 -28 24 -28 184 -3 c207 -4 240 0 268 30 19 21 20 36 20 568 0
351 4 567 11 605 15 80 45 142 94 191 62 62 124 87 225 92 172 8 294 -51 357
-172 45 -86 46 -105 52 -704 l6 -574 24 -19 c21 -17 41 -19 216 -19 107 0 205
4 220 10 57 22 57 28 52 654 -5 653 -5 657 -94 829 -99 192 -270 324 -499 387
-104 29 -397 37 -516 15z"></path>
<path d="M8349 1950 c-240 -30 -432 -137 -509 -281 -28 -52 -34 -77 -38 -141
-8 -133 28 -157 143 -93 149 84 285 117 490 119 231 2 344 -39 397 -144 16
-32 30 -81 34 -116 l6 -61 -198 -6 c-228 -7 -313 -17 -473 -58 -272 -68 -428
-200 -476 -400 -40 -171 7 -344 128 -468 131 -135 314 -210 572 -232 245 -21
451 8 614 88 104 52 224 169 274 270 64 130 69 177 65 565 -4 317 -6 349 -27
423 -29 102 -98 235 -156 302 -86 98 -231 177 -394 214 -98 22 -346 33 -452
19z m525 -1186 c-2 -127 -13 -171 -58 -222 -41 -46 -99 -71 -192 -82 -144 -16
-293 23 -342 90 -29 38 -44 101 -36 152 5 32 17 53 48 84 70 69 181 93 426 90
l155 -1 -1 -111z"></path>
<path d="M10225 1945 c-193 -36 -322 -100 -440 -219 -112 -112 -178 -246 -205
-416 -6 -39 -10 -297 -10 -642 l0 -577 27 -21 c26 -20 36 -21 235 -18 183 3
209 5 225 21 17 16 18 59 23 610 6 661 5 646 77 741 22 28 61 62 93 80 52 29
61 31 160 31 97 0 110 -2 164 -30 77 -39 130 -101 158 -184 22 -65 23 -78 25
-636 2 -395 7 -577 14 -592 21 -39 54 -44 262 -41 189 3 197 4 219 26 l23 23
5 607 c5 595 5 608 27 653 30 65 78 116 137 147 46 24 62 27 156 27 94 0 111
-3 160 -27 105 -51 159 -129 179 -258 7 -39 11 -277 11 -602 l0 -537 24 -28
24 -28 200 -3 c218 -3 256 4 267 51 3 12 4 301 2 642 -4 696 0 657 -81 820
-102 203 -270 322 -528 376 -131 27 -318 26 -418 -2 -122 -33 -215 -85 -300
-166 -41 -40 -77 -73 -80 -73 -3 0 -25 21 -50 47 -88 90 -228 167 -357 197
-88 20 -324 20 -428 1z"></path>
<path d="M12743 1869 c-10 -10 -13 -202 -13 -890 l0 -878 24 -28 24 -28 212 0
212 0 24 28 25 29 -3 771 -3 772 -31 66 c-33 69 -63 98 -144 140 -39 20 -63
23 -180 27 -101 3 -138 1 -147 -9z"></path>
</g>
</svg>