<svg version="1.0" preserveAspectRatio="xMidYMid meet" height="70" viewBox="0 0 52.5 52.499999" zoomAndPan="magnify" width="70" xmlns:xlink="http://www.w3.org/1999/xlink" xmlns="http://www.w3.org/2000/svg"><defs><clipPath id="65458ce009"><path clip-rule="nonzero" d="M 25 9 L 27 9 L 27 52.003906 L 25 52.003906 Z M 25 9"></path></clipPath></defs><path fill-rule="nonzero" fill-opacity="1" d="M 48.074219 25.976562 C 48.074219 38.167969 38.191406 48.046875 26.003906 48.046875 C 13.8125 48.046875 3.929688 38.164062 3.929688 25.976562 C 3.929688 13.789062 13.8125 3.898438 26.003906 3.898438 C 38.191406 3.898438 48.074219 13.78125 48.074219 25.976562 Z M 48.074219 25.976562" fill="#d8ebf7"></path><path stroke-miterlimit="4" stroke-opacity="1" stroke-width="2.5" stroke="#1a2369" d="M 68.838262 0.9951 C 68.838262 0.9951 68.931553 1.026196 68.973015 1.046928 C 71.450405 2.238977 73.616825 4.094428 75.638126 5.887685 C 80.6551 10.293085 85.081231 15.175305 88.377507 18.9484 C 89.268952 19.984965 88.833595 21.042261 88.501894 21.570909 C 87.734837 22.773324 86.967779 23.965374 86.211086 25.178154 C 85.112328 26.909217 84.013569 28.650646 82.904445 30.371344 C 82.10629 31.59449 82.147753 32.921293 83.018467 34.134074 C 84.075763 35.574899 85.330006 36.31086 86.739734 36.31086 C 87.641546 36.31086 88.522626 36.020621 89.445168 35.398683 C 90.968918 34.372483 92.565228 33.221897 94.337754 31.853631 C 94.866402 31.439005 95.39505 31.210961 95.778579 31.210961 C 96.379786 31.210961 96.887703 31.791437 97.219404 32.278623 C 99.002295 34.942594 100.84738 37.855341 103.044897 41.483317 C 103.355867 41.970503 103.594277 42.64427 103.832687 43.338768 L 104.04 43.950341 C 104.299141 44.665571 104.288775 45.411898 103.366233 46.728335 C 101.116887 49.983148 98.017559 52.595291 95.301759 54.886099 C 94.545067 55.518404 93.788375 56.119611 93.031682 56.700088 C 91.694514 57.684824 91.300619 59.260402 92.046946 60.711593 L 92.078043 60.773787 L 92.119505 60.825615 C 92.192065 60.950003 92.264624 61.074391 92.326818 61.188413 C 92.544497 61.55121 92.772541 61.965836 93.093876 62.380462 C 94.306657 63.935309 95.654191 64.26701 96.566368 64.26701 C 97.488911 64.26701 98.359625 63.956041 99.188877 63.334102 C 101.510782 61.540845 103.894881 59.602469 106.465561 57.38422 C 107.128962 56.81411 107.585051 56.544603 107.906386 56.544603 C 107.96858 56.544603 108.030774 56.544603 108.103333 56.565334 C 108.642347 56.689722 109.036242 56.959229 109.150264 57.104348 C 109.720374 57.788481 110.20756 58.721389 110.497798 59.664663 C 111.140468 61.685964 111.720944 63.893847 112.394711 66.785862 C 112.912994 69.035208 113.389813 71.294919 113.866633 73.55463 C 114.2087 75.119843 114.5404 76.685055 114.892832 78.270999 C 115.006854 78.76855 114.94466 78.820379 114.809907 78.924035 C 114.105043 79.452683 113.410545 79.991697 112.705681 80.53071 C 111.099005 81.764222 109.450867 83.028831 107.80273 84.20015 C 106.755799 84.915379 105.667406 85.568415 104.516819 86.252548 C 103.811955 86.667174 103.107091 87.092165 102.412593 87.517157 C 101.604073 88.025073 100.329098 89.300048 100.691896 90.968917 C 101.002865 92.150601 101.935773 93.042047 102.733928 93.487769 C 104.195484 94.254827 105.677772 94.638356 107.128962 94.638356 C 108.580153 94.638356 110.062441 94.244462 111.451437 93.467038 C 112.995919 92.617055 114.675154 91.839632 116.292195 91.093305 C 116.447679 91.020745 116.603164 90.93782 116.758649 90.865261 C 116.686089 92.482302 116.499508 93.964589 116.188538 95.291392 C 114.758079 101.604071 112.570927 107.699072 109.678912 113.431275 C 106.755799 119.246403 102.619906 123.268274 97.374888 125.382866 C 95.104812 126.295043 92.575594 126.89625 89.901257 127.20722 C 89.818332 127.20722 89.735406 127.20722 89.662847 127.20722 C 88.647014 127.20722 87.278748 126.637109 86.335474 126.222483 C 83.526384 124.937143 80.717293 123.527415 78.10515 122.190247 C 77.379555 121.589039 75.327157 120.044558 72.393679 119.20494 C 71.263823 118.873239 70.092505 118.676292 68.921187 118.63483 L 68.755337 118.63483 C 67.594384 118.676292 66.423066 118.873239 65.324307 119.20494 C 62.349367 120.044558 60.276237 121.589039 59.550642 122.190247 C 56.938499 123.527415 54.139774 124.926777 51.320318 126.222483 C 50.38741 126.637109 49.019144 127.20722 48.013676 127.20722 C 47.930751 127.20722 47.847826 127.20722 47.764901 127.20722 C 45.090564 126.89625 42.571712 126.284677 40.291269 125.382866 C 35.035886 123.268274 30.899993 119.236037 27.97688 113.420909 C 25.095231 107.699072 22.908079 101.604071 21.456888 95.270661 C 21.145919 93.954224 20.959337 92.471936 20.897143 90.854895 C 21.062994 90.927455 21.208113 91.01038 21.373963 91.082939 C 22.991004 91.839632 24.670239 92.606689 26.204355 93.446307 C 27.603717 94.234096 29.054908 94.627991 30.537195 94.627991 C 32.019483 94.627991 33.470673 94.244462 35.015155 93.435941 C 35.730385 93.031681 36.673658 92.140235 36.994994 90.865261 C 37.33706 89.300048 36.072451 88.025073 35.26393 87.517157 C 34.559066 87.092165 33.864568 86.667174 33.149338 86.252548 C 31.988386 85.568415 30.899993 84.915379 29.88416 84.210515 C 28.21529 83.039197 26.556787 81.764222 24.960477 80.541076 C 24.255613 80.012428 23.561115 79.473414 22.866616 78.944766 C 22.721497 78.830744 22.659303 78.778916 22.783691 78.260634 C 23.125758 76.695421 23.457458 75.130208 23.799525 73.564996 C 24.276344 71.294919 24.76353 69.035208 25.281812 66.785862 C 25.945214 63.893847 26.52569 61.685964 27.16836 59.664663 C 27.458598 58.731754 27.956149 57.798846 28.536625 57.083616 C 28.629916 56.969594 29.034176 56.700088 29.57319 56.5757 C 29.635384 56.554968 29.697578 56.554968 29.759772 56.554968 C 30.091472 56.554968 30.547561 56.824475 31.210962 57.394586 C 33.781643 59.602469 36.155376 61.540845 38.487647 63.354833 C 39.306533 63.966406 40.177247 64.277376 41.089424 64.277376 C 42.001601 64.277376 43.359501 63.945675 44.572282 62.401194 C 44.903982 61.986568 45.132027 61.571942 45.328974 61.198778 C 45.401533 61.084756 45.474093 60.960369 45.536287 60.835981 L 45.577749 60.784153 L 45.608846 60.721959 C 46.365539 59.270768 45.98201 57.69519 44.665572 56.731184 C 43.888149 56.140343 43.121091 55.528769 42.38513 54.917196 C 39.658965 52.605657 36.570002 49.993514 34.299925 46.728335 C 33.387748 45.432629 33.367017 44.686302 33.646889 43.950341 L 33.864568 43.3595 C 34.102978 42.654636 34.331022 41.991234 34.662723 41.472952 C 36.839509 37.865707 38.69496 34.95296 40.467485 32.288988 C 40.799186 31.801803 41.317468 31.221327 41.918676 31.221327 C 42.322936 31.221327 42.830853 31.449371 43.369867 31.874363 C 45.132027 33.221897 46.738702 34.382849 48.272818 35.409048 C 49.184995 36.020621 50.066075 36.321225 50.967886 36.321225 C 52.377614 36.321225 53.631857 35.585264 54.699519 34.123708 C 55.549502 32.931659 55.580599 31.604856 54.79281 30.381709 C 53.683686 28.661012 52.584927 26.929949 51.486168 25.198886 C 50.729476 23.986105 49.962418 22.78369 49.19536 21.59164 C 48.853294 21.052627 48.407571 19.984965 49.309382 18.958766 C 52.605658 15.185671 57.042155 10.293085 62.069494 5.877319 C 64.08043 4.094428 66.24685 2.249343 68.713874 1.057293 C 68.755337 1.036562 68.807165 1.015831 68.848627 0.9951" stroke-linejoin="round" fill="none" transform="matrix(0.376846, 0, 0, 0.376846, 0.0000005, 0.000000990566)" stroke-linecap="round"></path><g clip-path="url(#65458ce009)"><path stroke-miterlimit="4" stroke-opacity="1" stroke-width="2.5" stroke="#1a2369" d="M 68.838262 26.764098 L 68.838262 145.813557" stroke-linejoin="round" fill="none" transform="matrix(0.376846, 0, 0, 0.376846, 0.0000005, 0.000000990566)" stroke-linecap="round"></path></g></svg>