<svg version="1.0" preserveAspectRatio="xMidYMid meet" height="70" viewBox="0 0 52.5 52.499999" zoomAndPan="magnify" width="70" xmlns:xlink="http://www.w3.org/1999/xlink" xmlns="http://www.w3.org/2000/svg"><defs><clipPath id="7ee40faaa9"><path clip-rule="nonzero" d="M 0 0 L 52 0 L 52 52.003906 L 0 52.003906 Z M 0 0"></path></clipPath></defs><path fill-rule="nonzero" fill-opacity="1" d="M 48.398438 26.003906 C 48.398438 26.734375 48.363281 27.46875 48.292969 28.199219 C 48.21875 28.925781 48.113281 29.652344 47.96875 30.371094 C 47.828125 31.089844 47.648438 31.800781 47.433594 32.503906 C 47.222656 33.207031 46.976562 33.894531 46.695312 34.574219 C 46.414062 35.25 46.101562 35.914062 45.753906 36.558594 C 45.410156 37.207031 45.03125 37.835938 44.625 38.445312 C 44.21875 39.054688 43.78125 39.644531 43.316406 40.210938 C 42.851562 40.777344 42.359375 41.320312 41.839844 41.839844 C 41.320312 42.359375 40.777344 42.851562 40.210938 43.316406 C 39.644531 43.78125 39.054688 44.21875 38.445312 44.625 C 37.835938 45.03125 37.207031 45.410156 36.558594 45.753906 C 35.914062 46.101562 35.25 46.414062 34.574219 46.695312 C 33.894531 46.976562 33.207031 47.222656 32.503906 47.433594 C 31.800781 47.648438 31.089844 47.828125 30.371094 47.96875 C 29.652344 48.113281 28.925781 48.21875 28.199219 48.292969 C 27.46875 48.363281 26.734375 48.398438 26.003906 48.398438 C 25.269531 48.398438 24.535156 48.363281 23.808594 48.292969 C 23.078125 48.21875 22.351562 48.113281 21.632812 47.96875 C 20.914062 47.828125 20.203125 47.648438 19.5 47.433594 C 18.796875 47.222656 18.109375 46.976562 17.429688 46.695312 C 16.753906 46.414062 16.089844 46.101562 15.445312 45.753906 C 14.796875 45.410156 14.167969 45.03125 13.558594 44.625 C 12.949219 44.21875 12.359375 43.78125 11.792969 43.316406 C 11.226562 42.851562 10.683594 42.359375 10.164062 41.839844 C 9.644531 41.320312 9.15625 40.777344 8.6875 40.210938 C 8.222656 39.644531 7.789062 39.054688 7.378906 38.445312 C 6.972656 37.835938 6.59375 37.207031 6.25 36.558594 C 5.902344 35.914062 5.589844 35.25 5.308594 34.574219 C 5.027344 33.894531 4.78125 33.207031 4.570312 32.503906 C 4.355469 31.800781 4.179688 31.089844 4.035156 30.371094 C 3.890625 29.652344 3.785156 28.925781 3.714844 28.199219 C 3.640625 27.46875 3.605469 26.734375 3.605469 26.003906 C 3.605469 25.269531 3.640625 24.535156 3.714844 23.808594 C 3.785156 23.078125 3.890625 22.351562 4.035156 21.632812 C 4.179688 20.914062 4.355469 20.203125 4.570312 19.5 C 4.78125 18.796875 5.027344 18.109375 5.308594 17.429688 C 5.589844 16.753906 5.902344 16.089844 6.25 15.445312 C 6.59375 14.796875 6.972656 14.167969 7.378906 13.558594 C 7.789062 12.949219 8.222656 12.359375 8.6875 11.792969 C 9.15625 11.226562 9.644531 10.683594 10.164062 10.164062 C 10.683594 9.644531 11.226562 9.15625 11.792969 8.6875 C 12.359375 8.222656 12.949219 7.789062 13.558594 7.378906 C 14.167969 6.972656 14.796875 6.59375 15.445312 6.25 C 16.089844 5.902344 16.753906 5.589844 17.429688 5.308594 C 18.109375 5.027344 18.796875 4.78125 19.5 4.570312 C 20.203125 4.355469 20.914062 4.179688 21.632812 4.035156 C 22.351562 3.890625 23.078125 3.785156 23.808594 3.714844 C 24.535156 3.640625 25.269531 3.605469 26.003906 3.605469 C 26.734375 3.605469 27.46875 3.640625 28.199219 3.714844 C 28.925781 3.785156 29.652344 3.890625 30.371094 4.035156 C 31.089844 4.179688 31.800781 4.355469 32.503906 4.570312 C 33.207031 4.78125 33.894531 5.027344 34.574219 5.308594 C 35.25 5.589844 35.914062 5.902344 36.558594 6.25 C 37.207031 6.59375 37.835938 6.972656 38.445312 7.378906 C 39.054688 7.789062 39.644531 8.222656 40.210938 8.6875 C 40.777344 9.15625 41.320312 9.644531 41.839844 10.164062 C 42.359375 10.683594 42.851562 11.226562 43.316406 11.792969 C 43.78125 12.359375 44.21875 12.949219 44.625 13.558594 C 45.03125 14.167969 45.410156 14.796875 45.753906 15.445312 C 46.101562 16.089844 46.414062 16.753906 46.695312 17.429688 C 46.976562 18.109375 47.222656 18.796875 47.433594 19.5 C 47.648438 20.203125 47.828125 20.914062 47.96875 21.632812 C 48.113281 22.351562 48.21875 23.078125 48.292969 23.808594 C 48.363281 24.535156 48.398438 25.269531 48.398438 26.003906 Z M 48.398438 26.003906" fill="#bcd9ad"></path><path stroke-miterlimit="4" stroke-opacity="1" stroke-width="2.5" stroke="#001f60" d="M 134.304364 67.804044 C 134.304364 70.900398 134.100656 73.996752 133.703427 76.899585 C 133.601573 77.704229 132.898782 78.294981 132.104323 78.294981 L 79.201481 78.294981 C 78.294982 78.294981 77.602377 78.997772 77.602377 79.90427 L 77.602377 132.19599 C 77.602377 133.000634 77.00144 133.703425 76.196795 133.795094 C 73.395817 134.202509 70.605024 134.304362 67.804045 134.304362 C 65.003067 134.304362 62.100235 134.100655 59.40111 133.795094 C 58.596466 133.703425 57.995528 133.000634 57.995528 132.19599 L 57.995528 79.90427 C 57.995528 78.997772 57.302923 78.294981 56.396424 78.294981 L 3.503768 78.294981 C 2.699123 78.294981 1.996332 77.704229 1.904664 76.899585 C 1.497249 73.905084 1.303727 70.900398 1.303727 67.804044 C 1.303727 65.196588 1.395395 62.599317 1.700956 60.1039 C 1.80281 59.299255 2.495416 58.698318 3.30006 58.698318 L 56.304756 58.698318 C 57.201069 58.698318 57.90386 57.995527 57.90386 57.099214 L 57.90386 3.300059 C 57.90386 2.495414 58.504797 1.904663 59.197403 1.802809 C 61.998381 1.395394 64.799359 1.303726 67.702191 1.303726 C 70.605024 1.303726 73.599524 1.497248 76.502356 1.904663 C 77.103293 1.996331 77.500523 2.495414 77.500523 3.004683 L 77.500523 57.099214 C 77.500523 57.995527 78.203314 58.698318 79.099627 58.698318 L 132.104323 58.698318 C 132.898782 58.698318 133.601573 59.299255 133.703427 60.1039 C 134.100656 62.599317 134.304364 65.196588 134.304364 67.804044" stroke-linejoin="round" fill="none" transform="matrix(0.383516, 0, 0, 0.383516, 0.0000005, 0.000000990566)" stroke-linecap="round"></path><path stroke-miterlimit="4" stroke-opacity="1" stroke-width="2.5" stroke="#001f60" d="M 32.603387 51.996341 L 5.204726 51.996341 C 4.104705 51.996341 3.401914 50.998174 3.69729 50.000007 C 5.601955 43.196176 8.504787 36.79976 12.303933 31.004281 C 12.90487 30.199637 14.00489 30.097783 14.697496 30.800574 L 33.601553 49.297216 C 34.803428 50.295383 33.998783 51.996341 32.603387 51.996341" stroke-linejoin="round" fill="none" transform="matrix(0.383516, 0, 0, 0.383516, 0.0000005, 0.000000990566)" stroke-linecap="round"></path><path stroke-miterlimit="4" stroke-opacity="1" stroke-width="2.5" stroke="#001f60" d="M 50.804653 5.601954 L 50.804653 33.204322 C 50.804653 34.599719 49.103695 35.30251 48.095343 34.304343 L 29.496847 15.695661 C 28.804241 15.003056 28.89591 13.801182 29.700554 13.302098 C 35.496033 9.197392 41.902635 6.101038 48.798134 4.00285 C 49.796301 3.697289 50.804653 4.501934 50.804653 5.601954" stroke-linejoin="round" fill="none" transform="matrix(0.383516, 0, 0, 0.383516, 0.0000005, 0.000000990566)" stroke-linecap="round"></path><path stroke-miterlimit="4" stroke-opacity="1" stroke-width="2.5" stroke="#001f60" d="M 50.804653 104.298245 L 50.804653 130.097802 C 50.804653 131.197823 49.796301 131.900614 48.69628 131.595052 C 42.198011 129.700573 36.198824 126.79774 30.698721 123.100449 C 29.904262 122.499512 29.802408 121.297638 30.495014 120.6967 L 48.095343 103.198225 C 49.103695 102.200058 50.804653 102.902849 50.804653 104.298245" stroke-linejoin="round" fill="none" transform="matrix(0.383516, 0, 0, 0.383516, 0.0000005, 0.000000990566)" stroke-linecap="round"></path><path stroke-miterlimit="4" stroke-opacity="1" stroke-width="2.5" stroke="#001f60" d="M 33.795076 88.29702 L 15.603994 105.999203 C 14.901203 106.701994 13.699329 106.60014 13.200246 105.795496 C 9.401101 100.295393 6.396415 94.204538 4.400081 87.696083 C 4.104705 86.697916 4.797311 85.597895 5.897331 85.597895 L 32.603387 85.597895 C 34.100637 85.597895 34.803428 87.298853 33.795076 88.29702" stroke-linejoin="round" fill="none" transform="matrix(0.383516, 0, 0, 0.383516, 0.0000005, 0.000000990566)" stroke-linecap="round"></path><path stroke-miterlimit="4" stroke-opacity="1" stroke-width="2.5" stroke="#001f60" d="M 105.102891 122.896742 C 99.500935 126.695887 93.399895 129.700573 86.799771 131.595052 C 85.801604 131.900614 84.701584 131.197823 84.701584 130.097802 L 84.701584 103.799162 C 84.701584 102.403765 86.402541 101.700975 87.400708 102.699141 L 105.296413 120.503178 C 105.999204 121.195784 105.897351 122.397658 105.102891 122.896742" stroke-linejoin="round" fill="none" transform="matrix(0.383516, 0, 0, 0.383516, 0.0000005, 0.000000990566)" stroke-linecap="round"></path><path stroke-miterlimit="4" stroke-opacity="1" stroke-width="2.5" stroke="#001f60" d="M 131.401532 87.502561 C 129.395013 94.00083 126.400512 100.203724 122.601367 105.703827 C 122.00043 106.498287 120.900409 106.60014 120.197618 105.897349 L 101.996352 88.195166 C 100.998185 87.196999 101.700976 85.404373 103.096372 85.404373 L 129.904281 85.404373 C 130.902448 85.404373 131.696908 86.40254 131.401532 87.502561" stroke-linejoin="round" fill="none" transform="matrix(0.383516, 0, 0, 0.383516, 0.0000005, 0.000000990566)" stroke-linecap="round"></path><path stroke-miterlimit="4" stroke-opacity="1" stroke-width="2.5" stroke="#001f60" d="M 106.396434 15.899369 L 87.400708 34.803426 C 86.402541 35.801593 84.701584 35.098802 84.701584 33.703406 L 84.701584 5.5001 C 84.701584 4.40008 85.69975 3.697289 86.697917 4.00285 C 93.69527 6.101038 100.295394 9.299246 106.202912 13.49562 C 106.997371 14.004889 107.099225 15.196578 106.396434 15.899369" stroke-linejoin="round" fill="none" transform="matrix(0.383516, 0, 0, 0.383516, 0.0000005, 0.000000990566)" stroke-linecap="round"></path><path stroke-miterlimit="4" stroke-opacity="1" stroke-width="2.5" stroke="#001f60" d="M 130.301511 51.996341 L 103.004704 51.996341 C 101.599122 51.996341 100.804663 50.203715 101.904683 49.195362 L 120.798555 30.800574 C 121.501346 30.097783 122.703221 30.199637 123.202304 31.004281 C 127.001449 36.79976 129.99595 43.104508 131.798761 49.898153 C 132.195991 50.998174 131.401532 51.996341 130.301511 51.996341" stroke-linejoin="round" fill="none" transform="matrix(0.383516, 0, 0, 0.383516, 0.0000005, 0.000000990566)" stroke-linecap="round"></path><path stroke-miterlimit="4" stroke-opacity="1" stroke-width="2.5" stroke="#001f60" d="M 111.703015 19.199431 L 86.799771 43.797113 C 86.504395 44.102675 86.300688 44.499904 86.300688 44.998988 L 86.402541 49.195362 C 86.402541 50.600944 88.103499 51.303735 89.101666 50.295383 L 116.001243 23.395806 C 116.296619 23.10043 116.398473 22.805054 116.500327 22.397639 C 115.298453 21.104096 114.096578 19.902222 112.803035 18.700347 C 112.39562 18.700347 111.998391 18.904055 111.703015 19.199431 Z M 111.703015 19.199431" stroke-linejoin="round" fill="none" transform="matrix(0.383516, 0, 0, 0.383516, 0.0000005, 0.000000990566)" stroke-linecap="round"></path><path stroke-miterlimit="4" stroke-opacity="1" stroke-width="2.5" stroke="#001f60" d="M 24.699535 117.101263 L 48.299051 93.797123 C 48.604612 93.501747 48.798134 93.104517 48.798134 92.595249 L 48.69628 88.398874 C 48.69628 87.003477 46.995323 86.300686 45.997156 87.298853 L 20.401306 112.996556 C 20.095745 113.302118 20.004077 113.699347 19.902223 114.004909 C 21.104097 115.196597 22.295786 116.500326 23.599514 117.600346 C 23.996744 117.498492 24.404159 117.396639 24.699535 117.101263 Z M 24.699535 117.101263" stroke-linejoin="round" fill="none" transform="matrix(0.383516, 0, 0, 0.383516, 0.0000005, 0.000000990566)" stroke-linecap="round"></path><path stroke-miterlimit="4" stroke-opacity="1" stroke-width="2.5" stroke="#001f60" d="M 116.001243 113.801201 C 115.89939 113.49564 115.797536 113.302118 115.604014 113.09841 L 89.702603 87.095146 C 88.704436 86.096979 87.003479 86.79977 87.003479 88.195166 L 86.901625 92.401726 C 86.901625 92.798956 87.095147 93.29804 87.400708 93.603601 L 111.2956 117.30497 C 111.499307 117.498492 111.804869 117.600346 112.100245 117.7022 C 113.403973 116.398472 114.697515 115.104929 116.001243 113.801201 Z M 116.001243 113.801201" stroke-linejoin="round" fill="none" transform="matrix(0.383516, 0, 0, 0.383516, 0.0000005, 0.000000990566)" stroke-linecap="round"></path><path stroke-miterlimit="4" stroke-opacity="1" stroke-width="2.5" stroke="#001f60" d="M 19.800369 23.497659 L 46.302717 50.101861 C 47.300884 51.100028 49.001842 50.397237 49.001842 49.00184 L 49.103695 44.79528 C 49.103695 44.39805 48.899988 43.898967 48.604612 43.603591 L 24.098598 19.301285 C 23.701368 18.904055 23.100431 18.802201 22.601348 18.904055 C 21.501327 20.004075 20.299453 21.104096 19.301286 22.204117 C 19.301286 22.7032 19.40314 23.202283 19.800369 23.497659 Z M 19.800369 23.497659" stroke-linejoin="round" fill="none" transform="matrix(0.383516, 0, 0, 0.383516, 0.0000005, 0.000000990566)" stroke-linecap="round"></path><g clip-path="url(#7ee40faaa9)"><path stroke-miterlimit="4" stroke-opacity="1" stroke-width="2.5" stroke="#001f60" d="M 87.298854 93.603601 C 87.003479 93.29804 86.799771 92.90081 86.799771 92.401726 L 86.901625 88.195166 C 86.901625 86.79977 88.602583 86.096979 89.600749 87.095146 L 115.50216 113.09841 C 115.695682 113.302118 115.797536 113.597493 115.89939 113.801201 C 127.296825 101.904682 134.304364 85.699749 134.304364 67.895712 C 134.304364 50.101861 127.500533 34.396011 116.398473 22.499493 C 116.398473 22.896722 116.204951 23.202283 115.89939 23.497659 L 89.20352 50.203715 C 88.195168 51.201881 86.504395 50.499091 86.504395 49.103694 L 86.402541 44.897134 C 86.402541 44.499904 86.596064 44.000821 86.901625 43.69526 L 111.703015 19.097577 C 111.998391 18.802201 112.39562 18.598494 112.803035 18.598494 C 100.896331 7.903849 85.098813 1.201872 67.804045 1.201872 C 50.499092 1.201872 34.497866 7.995517 22.703201 18.904055 C 23.202285 18.802201 23.803222 18.904055 24.200452 19.301285 L 48.69628 43.603591 C 49.001842 43.898967 49.195364 44.296197 49.195364 44.79528 L 49.001842 49.00184 C 49.001842 50.397237 47.300884 51.100028 46.302717 50.101861 L 19.800369 23.497659 C 19.40314 23.10043 19.301286 22.7032 19.301286 22.204117 C 8.097372 34.202489 1.201873 50.203715 1.201873 67.804044 C 1.201873 85.404373 8.30108 101.904682 19.800369 113.903055 C 19.800369 113.49564 20.004077 113.200264 20.299453 112.904888 L 45.895302 87.196999 C 46.903654 86.198833 48.604612 86.901624 48.604612 88.29702 L 48.69628 92.50358 C 48.69628 92.90081 48.502758 93.399893 48.197197 93.695269 L 24.597681 116.999409 C 24.302305 117.30497 23.905076 117.396639 23.497661 117.498492 C 35.302511 127.999615 50.804653 134.396031 67.804045 134.396031 C 84.803437 134.396031 100.203726 128.101469 111.998391 117.600346 C 111.703015 117.498492 111.397454 117.396639 111.203931 117.203116 Z M 87.298854 93.603601" stroke-linejoin="round" fill="none" transform="matrix(0.383516, 0, 0, 0.383516, 0.0000005, 0.000000990566)" stroke-linecap="round"></path></g></svg>