<svg version="1.0" preserveAspectRatio="xMidYMid meet" height="70" viewBox="0 0 52.5 52.499999" zoomAndPan="magnify" width="70" xmlns:xlink="http://www.w3.org/1999/xlink" xmlns="http://www.w3.org/2000/svg"><defs><clipPath id="dbdcafc52d"><path clip-rule="nonzero" d="M 10 2.410156 L 42 2.410156 L 42 49.957031 L 10 49.957031 Z M 10 2.410156"></path></clipPath></defs><path fill-rule="nonzero" fill-opacity="1" d="M 46.558594 26.183594 C 46.558594 26.863281 46.527344 27.542969 46.460938 28.21875 C 46.394531 28.894531 46.296875 29.5625 46.164062 30.230469 C 46.03125 30.894531 45.867188 31.554688 45.671875 32.203125 C 45.476562 32.855469 45.25 33.492188 44.992188 34.121094 C 44.734375 34.746094 44.445312 35.359375 44.128906 35.960938 C 43.8125 36.558594 43.464844 37.140625 43.089844 37.707031 C 42.71875 38.269531 42.316406 38.816406 41.890625 39.339844 C 41.460938 39.863281 41.007812 40.367188 40.53125 40.847656 C 40.054688 41.328125 39.558594 41.785156 39.035156 42.214844 C 38.515625 42.644531 37.976562 43.050781 37.414062 43.425781 C 36.855469 43.804688 36.277344 44.152344 35.683594 44.472656 C 35.089844 44.792969 34.480469 45.082031 33.859375 45.34375 C 33.234375 45.601562 32.601562 45.832031 31.957031 46.027344 C 31.3125 46.226562 30.660156 46.390625 29.996094 46.523438 C 29.335938 46.65625 28.671875 46.753906 28 46.820312 C 27.332031 46.886719 26.65625 46.921875 25.984375 46.921875 C 25.308594 46.921875 24.636719 46.886719 23.96875 46.820312 C 23.296875 46.753906 22.632812 46.65625 21.96875 46.523438 C 21.308594 46.390625 20.65625 46.226562 20.011719 46.027344 C 19.367188 45.832031 18.734375 45.601562 18.109375 45.34375 C 17.488281 45.082031 16.878906 44.792969 16.285156 44.472656 C 15.691406 44.152344 15.113281 43.804688 14.554688 43.425781 C 13.992188 43.050781 13.453125 42.644531 12.929688 42.214844 C 12.410156 41.785156 11.910156 41.328125 11.433594 40.847656 C 10.957031 40.367188 10.507812 39.863281 10.078125 39.339844 C 9.652344 38.816406 9.25 38.269531 8.875 37.707031 C 8.503906 37.140625 8.15625 36.558594 7.839844 35.960938 C 7.519531 35.359375 7.234375 34.746094 6.976562 34.121094 C 6.71875 33.492188 6.492188 32.855469 6.292969 32.203125 C 6.097656 31.554688 5.9375 30.894531 5.804688 30.230469 C 5.671875 29.5625 5.574219 28.894531 5.507812 28.21875 C 5.441406 27.542969 5.410156 26.863281 5.410156 26.183594 C 5.410156 25.503906 5.441406 24.828125 5.507812 24.152344 C 5.574219 23.476562 5.671875 22.804688 5.804688 22.140625 C 5.9375 21.472656 6.097656 20.816406 6.292969 20.164062 C 6.492188 19.515625 6.71875 18.875 6.976562 18.25 C 7.234375 17.621094 7.519531 17.007812 7.839844 16.410156 C 8.15625 15.808594 8.503906 15.226562 8.875 14.664062 C 9.25 14.097656 9.652344 13.554688 10.078125 13.027344 C 10.507812 12.503906 10.957031 12 11.433594 11.519531 C 11.910156 11.042969 12.410156 10.585938 12.929688 10.15625 C 13.453125 9.722656 13.992188 9.320312 14.554688 8.941406 C 15.113281 8.566406 15.691406 8.214844 16.285156 7.894531 C 16.878906 7.574219 17.488281 7.285156 18.109375 7.027344 C 18.734375 6.765625 19.367188 6.539062 20.011719 6.339844 C 20.65625 6.144531 21.308594 5.980469 21.96875 5.847656 C 22.632812 5.714844 23.296875 5.613281 23.96875 5.546875 C 24.636719 5.480469 25.308594 5.449219 25.984375 5.449219 C 26.65625 5.449219 27.332031 5.480469 28 5.546875 C 28.671875 5.613281 29.335938 5.714844 29.996094 5.847656 C 30.660156 5.980469 31.3125 6.144531 31.957031 6.339844 C 32.601562 6.539062 33.234375 6.765625 33.859375 7.027344 C 34.480469 7.285156 35.089844 7.574219 35.683594 7.894531 C 36.277344 8.214844 36.855469 8.566406 37.414062 8.941406 C 37.976562 9.320312 38.515625 9.722656 39.035156 10.15625 C 39.558594 10.585938 40.054688 11.042969 40.53125 11.519531 C 41.007812 12 41.460938 12.503906 41.890625 13.027344 C 42.316406 13.554688 42.71875 14.097656 43.089844 14.664062 C 43.464844 15.226562 43.8125 15.808594 44.128906 16.410156 C 44.445312 17.007812 44.734375 17.621094 44.992188 18.25 C 45.25 18.875 45.476562 19.515625 45.671875 20.164062 C 45.867188 20.816406 46.03125 21.472656 46.164062 22.140625 C 46.296875 22.804688 46.394531 23.476562 46.460938 24.152344 C 46.527344 24.828125 46.558594 25.503906 46.558594 26.183594 Z M 46.558594 26.183594" fill="#bcd9ad"></path><g clip-path="url(#dbdcafc52d)"><path fill-rule="evenodd" fill-opacity="1" d="M 25.507812 49.105469 L 24.773438 49.105469 L 24.476562 49.070312 L 24.148438 49.03125 L 23.78125 48.996094 L 23.410156 48.957031 L 22.605469 48.808594 L 22.199219 48.699219 L 21.757812 48.589844 L 21.316406 48.476562 L 20.363281 48.179688 L 19.886719 47.957031 L 19.40625 47.773438 L 18.453125 47.328125 L 17.972656 47.070312 L 17.496094 46.8125 L 17.019531 46.515625 L 16.542969 46.179688 L 16.101562 45.8125 L 15.660156 45.402344 L 15.21875 44.996094 L 14.816406 44.550781 L 14.410156 44.070312 L 14.042969 43.550781 L 13.675781 42.996094 L 13.34375 42.402344 L 13.050781 41.773438 L 12.757812 41.109375 L 12.5 40.40625 L 12.28125 39.664062 L 12.097656 38.886719 L 11.949219 38.070312 L 11.800781 37.21875 L 11.726562 36.292969 L 11.65625 35.367188 L 11.65625 34.367188 L 11.691406 33.292969 L 11.691406 32.777344 L 11.726562 32.515625 L 11.765625 32.21875 L 11.800781 31.851562 L 11.875 31.441406 L 11.949219 31 L 12.058594 30.515625 L 12.207031 29.960938 L 12.351562 29.40625 L 12.535156 28.8125 L 12.757812 28.183594 L 13.015625 27.519531 L 13.273438 26.8125 L 13.566406 26.109375 L 13.894531 25.371094 L 14.261719 24.628906 L 14.703125 23.851562 L 15.183594 23.074219 L 15.695312 22.296875 L 16.246094 21.519531 L 16.871094 20.742188 L 17.570312 19.851562 L 18.230469 19 L 18.855469 18.1875 L 19.445312 17.410156 L 19.996094 16.667969 L 20.507812 15.964844 L 20.988281 15.296875 L 21.429688 14.667969 L 21.832031 14.074219 L 22.199219 13.484375 L 22.53125 12.929688 L 22.824219 12.371094 L 23.339844 11.261719 L 23.558594 10.707031 L 23.742188 10.152344 L 23.925781 9.59375 L 24.074219 9.039062 L 24.292969 7.929688 L 24.367188 7.335938 L 24.402344 6.890625 L 24.441406 6.484375 L 24.476562 6.078125 L 24.515625 5.707031 L 24.550781 5.375 L 24.734375 5.003906 L 24.773438 4.707031 L 24.808594 4.449219 L 24.882812 4.226562 L 24.992188 4.003906 L 25.101562 3.816406 L 25.210938 3.671875 L 25.359375 3.558594 L 25.542969 3.449219 L 25.761719 3.335938 L 25.984375 3.300781 L 26.203125 3.335938 L 26.425781 3.449219 L 26.609375 3.558594 L 26.753906 3.671875 L 26.867188 3.816406 L 26.976562 4.003906 L 27.050781 4.226562 L 27.121094 4.449219 L 27.234375 4.707031 L 27.269531 5.003906 L 27.308594 5.335938 L 27.378906 6.078125 L 27.417969 6.484375 L 27.453125 6.890625 L 27.492188 7.335938 L 27.5625 7.929688 L 27.675781 8.484375 L 27.785156 9.039062 L 27.929688 9.59375 L 28.113281 10.152344 L 28.296875 10.707031 L 28.519531 11.261719 L 28.777344 11.816406 L 29.070312 12.371094 L 29.363281 12.929688 L 29.695312 13.484375 L 30.0625 14.074219 L 30.464844 14.667969 L 30.90625 15.296875 L 31.386719 15.964844 L 31.898438 16.667969 L 32.449219 17.410156 L 33.039062 18.1875 L 33.664062 19 L 34.324219 19.851562 L 35.023438 20.742188 L 35.648438 21.519531 L 36.199219 22.296875 L 36.710938 23.074219 L 37.191406 23.851562 L 37.632812 24.628906 L 38 25.371094 L 38.328125 26.109375 L 38.621094 26.8125 L 38.878906 27.519531 L 39.136719 28.183594 L 39.359375 28.8125 L 39.542969 29.40625 L 39.6875 29.960938 L 39.835938 30.515625 L 39.945312 31 L 40.019531 31.441406 L 40.09375 31.851562 L 40.128906 32.21875 L 40.167969 32.554688 L 40.203125 32.8125 L 40.203125 33.332031 L 40.238281 34.40625 L 40.238281 35.367188 L 40.203125 36.332031 L 40.128906 37.257812 L 40.019531 38.109375 L 39.871094 38.921875 L 39.6875 39.699219 L 39.46875 40.441406 L 39.210938 41.144531 L 38.917969 41.8125 L 38.621094 42.441406 L 38.292969 43.035156 L 37.925781 43.589844 L 37.558594 44.109375 L 37.152344 44.589844 L 36.75 45.035156 L 35.867188 45.847656 L 35.425781 46.21875 L 34.949219 46.550781 L 34.472656 46.847656 L 33.992188 47.105469 L 33.515625 47.367188 L 33.039062 47.589844 L 32.5625 47.808594 L 32.082031 47.996094 L 31.605469 48.179688 L 31.128906 48.328125 L 30.648438 48.476562 L 30.210938 48.589844 L 29.769531 48.699219 L 29.363281 48.808594 L 28.960938 48.882812 L 28.554688 48.957031 L 28.1875 48.996094 L 27.820312 49.03125 L 27.492188 49.070312 L 27.195312 49.105469 L 26.460938 49.105469 C 26.460938 49.105469 25.507812 49.105469 25.507812 49.105469 Z M 25.46875 49.808594 L 27.308594 49.808594 L 27.601562 49.773438 L 27.929688 49.734375 L 28.296875 49.699219 L 28.703125 49.625 L 29.105469 49.550781 L 29.546875 49.476562 L 29.988281 49.367188 L 30.429688 49.253906 L 30.90625 49.105469 L 31.386719 48.957031 L 31.863281 48.808594 L 32.378906 48.625 L 32.890625 48.441406 L 33.40625 48.21875 L 33.921875 47.957031 L 34.433594 47.699219 L 34.949219 47.402344 L 35.425781 47.070312 L 35.902344 46.699219 L 36.382812 46.328125 L 36.859375 45.921875 L 37.300781 45.476562 L 37.742188 44.996094 L 38.144531 44.476562 L 38.550781 43.921875 L 38.917969 43.367188 L 39.285156 42.738281 L 39.613281 42.070312 L 39.910156 41.367188 L 40.167969 40.625 L 40.386719 39.847656 L 40.605469 39.035156 L 40.753906 38.183594 L 40.902344 37.292969 L 40.972656 36.332031 L 41.011719 35.332031 L 41.011719 34.292969 L 40.972656 33.21875 L 40.972656 32.703125 L 40.9375 32.441406 L 40.902344 32.109375 L 40.828125 31.738281 L 40.753906 31.332031 L 40.644531 30.851562 L 40.535156 30.332031 L 40.386719 29.777344 L 40.238281 29.183594 L 40.054688 28.554688 L 39.835938 27.886719 L 39.320312 26.480469 L 38.992188 25.742188 L 38.621094 25 L 38.21875 24.222656 L 37.777344 23.445312 L 37.300781 22.628906 L 36.785156 21.816406 L 36.199219 21 L 35.574219 20.1875 L 34.875 19.296875 L 34.214844 18.445312 L 33.589844 17.628906 L 33 16.890625 L 32.449219 16.1875 L 31.9375 15.484375 L 31.457031 14.816406 L 31.054688 14.261719 L 30.648438 13.667969 L 30.28125 13.074219 L 29.953125 12.519531 L 29.65625 11.964844 L 29.402344 11.445312 L 29.179688 10.929688 L 28.960938 10.410156 L 28.777344 9.890625 L 28.628906 9.371094 L 28.480469 8.855469 L 28.371094 8.335938 L 28.261719 7.78125 L 28.1875 7.226562 L 28.152344 6.816406 L 28.113281 6.410156 L 28.078125 6.003906 L 28.042969 5.632812 L 28.003906 5.261719 L 27.96875 4.890625 L 27.929688 4.558594 L 27.859375 4.261719 L 27.785156 3.964844 L 27.675781 3.671875 L 27.527344 3.410156 L 27.34375 3.152344 L 27.085938 2.929688 L 26.753906 2.78125 L 26.425781 2.632812 L 26.058594 2.558594 L 25.910156 2.558594 L 25.542969 2.632812 L 24.957031 2.929688 L 24.699219 3.152344 L 24.515625 3.410156 L 24.367188 3.671875 L 24.257812 3.964844 L 24.148438 4.261719 L 24.074219 4.597656 L 24.035156 4.929688 L 24 5.300781 L 23.964844 5.667969 L 23.925781 6.039062 L 23.890625 6.449219 L 23.851562 6.855469 L 23.816406 7.261719 L 23.742188 7.816406 L 23.523438 8.855469 L 23.375 9.371094 L 23.226562 9.890625 L 23.042969 10.410156 L 22.824219 10.929688 L 22.566406 11.445312 L 22.308594 11.964844 L 22.015625 12.519531 L 21.683594 13.074219 L 20.949219 14.261719 L 20.507812 14.890625 L 20.03125 15.558594 L 19.515625 16.222656 L 18.964844 16.925781 L 18.378906 17.667969 L 17.753906 18.480469 L 17.09375 19.335938 L 16.394531 20.222656 L 15.769531 21.039062 L 15.183594 21.851562 L 14.667969 22.667969 L 14.191406 23.480469 L 13.75 24.257812 L 13.34375 25.035156 L 12.976562 25.777344 L 12.648438 26.519531 L 12.132812 27.925781 L 11.910156 28.589844 L 11.726562 29.222656 L 11.582031 29.8125 L 11.433594 30.332031 L 11.324219 30.851562 L 11.25 31.332031 L 11.175781 31.738281 L 11.140625 32.109375 L 11.066406 32.480469 L 11.03125 32.777344 L 11.03125 33.292969 L 10.992188 34.367188 L 10.992188 35.40625 L 11.03125 36.40625 L 11.105469 37.367188 L 11.25 38.257812 L 11.398438 39.109375 L 11.617188 39.921875 L 11.839844 40.699219 L 12.097656 41.441406 L 12.390625 42.144531 L 12.71875 42.8125 L 13.085938 43.441406 L 13.457031 43.996094 L 13.859375 44.550781 L 14.261719 45.070312 L 14.703125 45.550781 L 15.144531 45.996094 L 15.621094 46.402344 L 16.101562 46.773438 L 16.578125 47.144531 L 17.09375 47.476562 L 17.605469 47.773438 L 18.121094 48.03125 L 18.636719 48.292969 L 19.148438 48.515625 L 20.179688 48.882812 L 20.691406 49.03125 L 21.171875 49.179688 L 21.648438 49.328125 L 22.125 49.441406 L 22.566406 49.550781 L 23.007812 49.625 L 23.410156 49.699219 L 23.816406 49.773438 L 24.183594 49.808594 L 24.515625 49.847656 L 24.808594 49.882812 L 25.359375 49.882812 Z M 25.46875 49.808594" fill="#1a2369"></path></g></svg>