<svg version="1.0" preserveAspectRatio="xMidYMid meet" height="70" viewBox="0 0 52.5 52.499999" zoomAndPan="magnify" width="70" xmlns:xlink="http://www.w3.org/1999/xlink" xmlns="http://www.w3.org/2000/svg"><path fill-rule="evenodd" fill-opacity="1" d="M 48.058594 25.953125 C 48.058594 38.113281 38.199219 47.972656 26.039062 47.972656 C 13.878906 47.972656 4.019531 38.109375 4.019531 25.953125 C 4.019531 13.796875 13.878906 3.933594 26.039062 3.933594 C 38.199219 3.933594 48.058594 13.792969 48.058594 25.953125" fill="#bcd9ad"></path><path stroke-miterlimit="4" stroke-opacity="1" stroke-width="2.5" stroke="#001f60" d="M 22.213581 109.58562 C 14.625927 101.521146 10.676615 93.01095 10.479668 84.303806 C 10.293086 76.177139 13.319855 68.185225 19.466684 60.545743 L 19.943504 60.348795 L 19.943504 60.369527 C 25.022671 67.407801 28.412238 76.425914 29.231124 85.122692 C 29.853063 91.704878 29.345146 101.17908 23.519652 109.51306 C 23.519652 109.51306 23.467824 109.471597 23.447093 109.461232 C 23.519652 109.399038 23.581846 109.336844 23.633674 109.264284 C 28.132365 102.682099 30.05001 94.337753 29.179296 85.133058 C 28.381141 76.757615 25.33364 68.319978 20.565443 61.354263 C 20.389227 61.095122 20.088623 60.918906 19.777654 60.90854 L 19.746557 60.90854 C 19.435587 60.90854 19.145349 61.053659 18.958767 61.302435 C 13.185102 68.724238 10.35528 76.457011 10.541862 84.314172 C 10.738809 92.93839 14.615561 101.376027 22.078827 109.378307 C 22.141021 109.4405 22.203215 109.502694 22.275775 109.544157 C 22.255043 109.554523 22.223946 109.595985 22.223946 109.595985 Z M 22.213581 109.58562" stroke-linejoin="round" fill="none" transform="matrix(0.376846, 0, 0, 0.376846, 0.0000005, 0.000000990566)" stroke-linecap="round"></path><path stroke-miterlimit="4" stroke-opacity="1" stroke-width="2.5" stroke="#001f60" d="M 52.014816 95.902965 C 44.821057 89.289682 40.78882 82.064826 40.032128 74.404613 C 39.316898 67.231585 41.462587 59.965266 46.38627 52.802604 L 46.800896 52.584926 L 46.800896 52.605657 C 51.766041 58.50371 55.36292 66.246849 56.668992 73.865599 C 57.664094 79.618534 57.84031 87.993976 53.310522 95.716384 C 53.310522 95.716384 53.258694 95.685287 53.227597 95.674921 C 53.300157 95.623093 53.351985 95.540168 53.403813 95.457242 C 56.876305 89.372608 57.995795 81.909342 56.606798 73.875965 C 55.36292 66.599281 52.118473 59.38479 47.50576 53.559296 C 47.319178 53.320887 47.02894 53.175768 46.728336 53.175768 C 46.717971 53.175768 46.697239 53.175768 46.686874 53.175768 C 46.365539 53.186133 46.0753 53.362349 45.899084 53.631856 C 41.358931 60.525011 39.410189 67.521823 40.094322 74.404613 C 40.840649 81.981901 44.800326 89.144563 51.859332 95.685287 C 51.931891 95.747481 52.004451 95.799309 52.066645 95.840771 C 52.045913 95.861503 52.014816 95.902965 52.014816 95.902965 Z M 52.014816 95.902965" stroke-linejoin="round" fill="none" transform="matrix(0.376846, 0, 0, 0.376846, 0.0000005, 0.000000990566)" stroke-linecap="round"></path><path stroke-miterlimit="4" stroke-opacity="1" stroke-width="2.5" stroke="#001f60" d="M 74.166204 70.548592 C 67.718772 65.95661 63.727998 60.535377 62.31827 54.440376 C 60.991467 48.687442 61.955472 42.561345 65.210285 36.217569 C 65.210285 36.217569 65.521255 35.99989 65.521255 35.99989 L 65.53162 35.99989 C 70.17543 40.280902 73.917429 46.199687 75.783245 52.253225 C 77.182608 56.783013 78.198441 63.489586 75.420448 70.185795 C 75.420448 70.185795 75.358254 70.165063 75.327157 70.154698 C 75.389351 70.071772 75.441179 69.988847 75.482642 69.895556 C 77.576502 64.640173 77.669793 58.545173 75.731417 52.263591 C 73.969257 46.57285 70.65225 41.110154 66.381603 36.891336 C 66.195022 36.704754 65.935881 36.601098 65.676739 36.601098 C 65.624911 36.601098 65.562717 36.601098 65.510889 36.611463 C 65.189554 36.673657 64.920047 36.870604 64.774928 37.160843 C 61.914009 43.162552 61.095123 48.967315 62.359732 54.40928 C 63.748729 60.421355 67.656578 65.780394 73.969257 70.330914 C 74.052182 70.382742 74.135107 70.43457 74.207667 70.455301 C 74.186936 70.476033 74.155839 70.527861 74.155839 70.527861 Z M 74.166204 70.548592" stroke-linejoin="round" fill="none" transform="matrix(0.376846, 0, 0, 0.376846, 0.0000005, 0.000000990566)" stroke-linecap="round"></path><path stroke-miterlimit="4" stroke-opacity="1" stroke-width="2.5" stroke="#001f60" d="M 91.259157 77.680157 C 86.262915 77.680157 81.028263 76.03202 75.70032 72.777206 C 75.70032 72.777206 75.731417 72.715012 75.752148 72.704647 C 75.814342 72.766841 75.876536 72.818669 75.959461 72.870497 C 81.204479 76.021654 86.335474 77.617964 91.259157 77.617964 C 92.575594 77.617964 93.892031 77.503941 95.167006 77.275897 C 100.671164 76.301526 105.677772 73.264392 110.072806 68.26815 C 110.280119 68.02974 110.37341 67.698039 110.290485 67.376704 C 110.217925 67.065735 109.989881 66.806594 109.689277 66.682206 C 105.304609 64.888949 100.432754 63.935309 95.602363 63.935309 C 94.348119 63.935309 93.104242 64.007869 91.881095 64.132257 C 85.350738 64.816389 79.784385 67.304145 75.762514 71.294919 C 75.689955 71.367478 75.627761 71.450404 75.586298 71.533329 C 75.565567 71.512597 75.524104 71.460769 75.524104 71.460769 C 80.592906 66.257214 87.164726 64.567614 91.87073 64.070063 C 93.093876 63.935309 94.337754 63.883481 95.591997 63.883481 C 100.805918 63.883481 106.216786 65.023702 110.829499 67.096832 L 110.85023 67.096832 C 110.85023 67.096832 110.77767 67.480361 110.77767 67.480361 C 106.227151 72.974154 100.971768 76.270429 95.15664 77.306994 C 93.881665 77.535038 92.554863 77.659426 91.238425 77.659426 Z M 91.259157 77.680157" stroke-linejoin="round" fill="none" transform="matrix(0.376846, 0, 0, 0.376846, 0.0000005, 0.000000990566)" stroke-linecap="round"></path><path stroke-miterlimit="4" stroke-opacity="1" stroke-width="2.5" stroke="#001f60" d="M 78.592336 109.575254 C 77.742353 109.575254 76.871638 109.544157 76.032021 109.461232 C 68.361442 108.714905 61.115855 104.724131 54.492206 97.551103 C 54.492206 97.551103 54.544034 97.509641 54.5544 97.488909 C 54.585497 97.571834 54.637325 97.644394 54.699519 97.696222 C 61.271339 104.744862 68.454733 108.683808 76.032021 109.409404 C 76.871638 109.492329 77.742353 109.533791 78.592336 109.533791 C 84.645874 109.533791 90.771971 107.51249 96.794412 103.532082 C 97.063919 103.3455 97.219404 103.055262 97.240135 102.744292 C 97.250501 102.422957 97.105382 102.111988 96.856606 101.915041 C 91.031112 97.312693 83.795891 94.099343 76.508841 92.865831 C 74.34242 92.503033 72.165634 92.316451 70.071774 92.316451 C 64.453593 92.316451 59.36406 93.612157 54.937929 96.151741 C 54.855004 96.203569 54.79281 96.245032 54.72025 96.317591 C 54.709885 96.29686 54.668422 96.245032 54.668422 96.245032 C 59.136016 93.601792 64.31884 92.264623 70.061408 92.264623 C 72.155269 92.264623 74.332055 92.451205 76.508841 92.814002 C 84.127591 94.099343 91.891461 97.665125 97.79988 102.609539 L 97.820611 102.609539 C 97.820611 102.609539 97.613298 103.034531 97.613298 103.034531 C 91.342082 107.367371 84.936112 109.575254 78.592336 109.575254 Z M 78.592336 109.575254" stroke-linejoin="round" fill="none" transform="matrix(0.376846, 0, 0, 0.376846, 0.0000005, 0.000000990566)" stroke-linecap="round"></path><path stroke-miterlimit="4" stroke-opacity="1" stroke-width="2.5" stroke="#001f60" d="M 55.093414 132.524797 C 51.341049 132.524797 47.723438 131.902858 44.354603 130.690077 C 36.14501 127.725502 29.345146 121.288435 24.089763 111.544727 C 24.089763 111.544727 24.151957 111.51363 24.172688 111.503264 C 24.193419 111.575824 24.224516 111.658749 24.255613 111.741674 C 29.479899 121.360995 36.248667 127.715137 44.364969 130.648615 C 47.74417 131.861395 51.341049 132.483334 55.103779 132.483334 C 59.498814 132.483334 64.132258 131.643717 68.869359 129.974848 C 69.169962 129.871191 69.398007 129.632781 69.501663 129.321812 C 69.594954 129.010842 69.53276 128.679142 69.335813 128.430366 C 64.235914 121.703061 57.208006 116.115977 49.527061 112.705679 C 44.157656 110.331946 38.777885 109.119165 33.532867 109.119165 C 30.557927 109.119165 27.64518 109.523426 24.877552 110.311215 C 24.794627 110.331946 24.711702 110.373409 24.628776 110.414871 C 24.628776 110.404506 24.608045 110.342312 24.608045 110.342312 C 27.458598 109.502694 30.464636 109.077703 33.532867 109.077703 C 38.78825 109.077703 44.178387 110.290484 49.547792 112.684948 C 57.518975 116.219634 65.002972 122.293903 70.071774 129.342543 L 70.071774 129.363274 C 70.071774 129.363274 69.750439 129.736438 69.750439 129.736438 C 64.712734 131.61262 59.789052 132.555894 55.114145 132.555894 Z M 55.093414 132.524797" stroke-linejoin="round" fill="none" transform="matrix(0.376846, 0, 0, 0.376846, 0.0000005, 0.000000990566)" stroke-linecap="round"></path><path stroke-miterlimit="4" stroke-opacity="1" stroke-width="2.5" stroke="#001f60" d="M 88.792133 45.422263 C 84.27271 40.88211 81.816052 36.010256 81.505083 30.931089 C 81.204479 26.100697 82.811154 21.270305 86.294012 16.585033 L 86.58425 16.439914 L 86.58425 16.460645 C 89.776869 20.534344 92.005483 25.820825 92.699982 30.972551 C 93.218264 34.776744 93.145704 40.270537 90.087838 45.277144 C 90.056742 45.256413 90.025645 45.235682 90.004913 45.225316 C 90.087838 45.163122 90.150032 45.080197 90.212226 44.986906 C 92.523766 41.058326 93.363383 36.207203 92.648153 30.982917 C 92.005483 26.23545 90.10857 21.456887 87.320211 17.528307 C 87.133629 17.269166 86.833025 17.113681 86.501325 17.113681 C 86.169624 17.113681 85.86902 17.279531 85.682438 17.538672 C 82.655669 21.944072 81.277038 26.442763 81.556911 30.931089 C 81.86788 35.906599 84.251979 40.705894 88.626282 45.183854 C 88.698842 45.246047 88.781767 45.308241 88.864692 45.36007 C 88.843961 45.380801 88.792133 45.432629 88.792133 45.432629 Z M 88.792133 45.422263" stroke-linejoin="round" fill="none" transform="matrix(0.376846, 0, 0, 0.376846, 0.0000005, 0.000000990566)" stroke-linecap="round"></path><path stroke-miterlimit="4" stroke-opacity="1" stroke-width="2.5" stroke="#001f60" d="M 104.04 52.045912 C 99.448018 52.045912 94.773111 50.314849 90.129301 46.873454 C 90.129301 46.873454 90.170764 46.821626 90.191495 46.790529 C 90.253689 46.873454 90.315883 46.935648 90.398808 46.987476 C 94.949327 50.304483 99.541309 51.983718 104.050365 51.983718 C 104.547916 51.983718 105.035102 51.962987 105.532653 51.921524 C 110.010612 51.548361 114.270893 49.516694 118.178742 45.899083 C 118.417152 45.681405 118.54154 45.349704 118.489712 45.028369 C 118.448249 44.707034 118.251302 44.416796 117.950698 44.282042 C 113.752611 42.136353 108.860026 40.954669 104.174753 40.954669 L 103.863784 40.954669 C 98.577304 41.006498 93.912762 42.550979 90.34698 45.401532 C 90.27442 45.474092 90.201861 45.536286 90.139667 45.629576 C 90.118935 45.598479 90.098204 45.577748 90.077473 45.546651 C 94.586529 41.804653 100.007763 40.944304 103.863784 40.902841 L 104.174753 40.902841 C 109.336845 40.902841 114.644057 42.302204 119.101285 44.841787 L 119.122016 44.841787 C 119.122016 44.841787 119.028725 45.152757 119.028725 45.152757 C 114.892832 49.278284 110.352679 51.569092 105.522287 51.973352 C 105.035102 52.014815 104.527185 52.025181 104.029634 52.025181 Z M 104.04 52.045912" stroke-linejoin="round" fill="none" transform="matrix(0.376846, 0, 0, 0.376846, 0.0000005, 0.000000990566)" stroke-linecap="round"></path><path stroke-miterlimit="4" stroke-opacity="1" stroke-width="2.5" stroke="#001f60" d="M 100.588239 35.295026 C 100.660799 35.305392 100.743724 35.305392 100.805918 35.305392 C 100.837015 35.305392 100.878477 35.305392 100.909574 35.305392 C 104.900348 34.890766 108.7771 32.983487 112.145936 29.790867 C 115.193436 26.898852 117.639729 23.105025 119.039091 19.083154 C 119.153113 18.772184 119.101285 18.419752 118.904338 18.160611 C 118.70739 17.90147 118.406787 17.745985 118.085452 17.745985 L 118.06472 17.745985 C 113.389813 17.891104 109.461233 19.238639 106.413733 21.747125 C 103.013801 24.54585 100.785186 28.71284 99.831547 34.144439 C 99.810816 34.23773 99.810816 34.341387 99.831547 34.445043 C 99.80045 34.445043 99.72789 34.424312 99.72789 34.424312 C 100.671164 28.837228 102.899778 24.556216 106.382636 21.695297 C 109.627083 19.031326 113.825171 17.683791 118.873241 17.683791 L 119.246404 17.683791 C 119.246404 17.683791 119.484814 17.818545 119.484814 17.818545 L 119.484814 17.839276 C 118.199474 22.255042 115.535502 26.629345 112.177033 29.821964 C 109.710009 32.164601 105.750331 34.963325 100.588239 35.388317 C 100.588239 35.35722 100.588239 35.315757 100.588239 35.295026 Z M 100.588239 35.295026" stroke-linejoin="round" fill="none" transform="matrix(0.376846, 0, 0, 0.376846, 0.0000005, 0.000000990566)" stroke-linecap="round"></path><path stroke-miterlimit="4" stroke-opacity="1" stroke-width="2.5" stroke="#001f60" d="M 12.646088 111.555093 C 36.05172 110.010611 58.514077 97.001724 71.450405 77.431382 C 74.497905 72.818669 77.130779 67.749867 79.691094 62.846916 C 82.355066 57.726287 85.101962 52.450172 88.304947 47.723437 C 91.673782 42.758292 95.218834 38.902271 99.116317 35.968793 L 99.147414 36.010256 C 95.249931 38.943734 91.704879 42.789389 88.34641 47.754534 C 85.15379 52.481269 82.396528 57.757384 79.742923 62.878013 C 77.192973 67.79133 74.549733 72.849766 71.502233 77.462479 C 58.545174 97.043186 36.082817 110.062439 12.656454 111.606921 L 12.656454 111.555093 Z M 12.646088 111.555093" stroke-linejoin="round" fill="none" transform="matrix(0.376846, 0, 0, 0.376846, 0.0000005, 0.000000990566)" stroke-linecap="round"></path></svg>