<svg version="1.0" preserveAspectRatio="xMidYMid meet" height="70" viewBox="0 0 52.5 52.499999" zoomAndPan="magnify" width="70" xmlns:xlink="http://www.w3.org/1999/xlink" xmlns="http://www.w3.org/2000/svg"><path fill-rule="evenodd" fill-opacity="1" d="M 26.003906 3.976562 C 38.152344 3.976562 48.015625 13.835938 48.015625 25.988281 C 48.015625 38.136719 38.152344 48 26.003906 48 C 13.851562 48 3.992188 38.132812 3.992188 25.988281 C 3.992188 13.839844 13.851562 3.976562 26.003906 3.976562 Z M 26.003906 3.976562" fill="#bcd9ad"></path><path stroke-miterlimit="4" stroke-opacity="1" stroke-width="2.5" stroke="#1a2369" d="M 47.422835 31.480468 L 47.422835 35.927331" stroke-linejoin="round" fill="none" transform="matrix(0.376846, 0, 0, 0.376846, 0.0000005, 0.000000990566)" stroke-linecap="round"></path><path stroke-miterlimit="4" stroke-opacity="1" stroke-width="2.5" stroke="#1a2369" d="M 40.363829 38.529108 L 44.686304 38.529108" stroke-linejoin="round" fill="none" transform="matrix(0.376846, 0, 0, 0.376846, 0.0000005, 0.000000990566)" stroke-linecap="round"></path><path stroke-miterlimit="4" stroke-opacity="1" stroke-width="2.5" stroke="#1a2369" d="M 47.422835 41.514414 L 47.422835 45.961277" stroke-linejoin="round" fill="none" transform="matrix(0.376846, 0, 0, 0.376846, 0.0000005, 0.000000990566)" stroke-linecap="round"></path><path stroke-miterlimit="4" stroke-opacity="1" stroke-width="2.5" stroke="#1a2369" d="M 50.138634 38.529108 L 54.471475 38.529108" stroke-linejoin="round" fill="none" transform="matrix(0.376846, 0, 0, 0.376846, 0.0000005, 0.000000990566)" stroke-linecap="round"></path><path stroke-miterlimit="4" stroke-opacity="1" stroke-width="2.5" stroke="#1a2369" d="M 69.004112 8.530925 L 121.495749 38.840077 L 121.495749 99.458382 L 69.004112 129.767535 L 16.502109 99.458382 L 16.502109 38.840077 Z M 69.004112 8.530925" stroke-linejoin="round" fill="none" transform="matrix(0.376846, 0, 0, 0.376846, 0.0000005, 0.000000990566)" stroke-linecap="round"></path><path stroke-miterlimit="4" stroke-opacity="1" stroke-width="2.5" stroke="#1a2369" d="M 54.471475 25.115961 L 69.107769 16.626495 L 95.001155 31.470102" stroke-linejoin="round" fill="none" transform="matrix(0.376846, 0, 0, 0.376846, 0.0000005, 0.000000990566)" stroke-linecap="round"></path><path stroke-miterlimit="4" stroke-opacity="1" stroke-width="2.5" stroke="#1a2369" d="M 115.265996 77.804545 L 115.265996 94.721281 C 115.265996 94.721281 89.445168 109.67891 89.445168 109.67891" stroke-linejoin="round" fill="none" transform="matrix(0.376846, 0, 0, 0.376846, 0.0000005, 0.000000990566)" stroke-linecap="round"></path><path fill-rule="nonzero" fill-opacity="1" d="M 14.078125 26.113281 C 14.078125 25.476562 14.1875 24.886719 14.40625 24.351562 C 14.625 23.816406 14.925781 23.359375 15.320312 22.972656 C 15.710938 22.585938 16.171875 22.285156 16.710938 22.066406 C 17.25 21.847656 17.835938 21.738281 18.472656 21.738281 C 18.808594 21.738281 19.121094 21.765625 19.414062 21.824219 C 19.707031 21.875 19.96875 21.945312 20.203125 22.015625 C 20.4375 22.089844 20.636719 22.167969 20.804688 22.257812 C 20.976562 22.34375 21.097656 22.414062 21.1875 22.480469 C 21.367188 22.609375 21.464844 22.746094 21.484375 22.886719 C 21.503906 23.023438 21.457031 23.1875 21.347656 23.363281 L 21.042969 23.84375 C 20.933594 24.023438 20.808594 24.121094 20.664062 24.140625 C 20.519531 24.160156 20.351562 24.117188 20.152344 24.015625 C 19.957031 23.914062 19.742188 23.820312 19.503906 23.738281 C 19.269531 23.652344 18.964844 23.609375 18.601562 23.609375 C 18.179688 23.609375 17.820312 23.671875 17.519531 23.800781 C 17.21875 23.929688 16.96875 24.105469 16.773438 24.328125 C 16.574219 24.550781 16.425781 24.808594 16.335938 25.09375 C 16.246094 25.378906 16.195312 25.683594 16.195312 25.996094 C 16.195312 26.382812 16.261719 26.734375 16.390625 27.039062 C 16.515625 27.34375 16.691406 27.609375 16.902344 27.828125 C 17.117188 28.042969 17.363281 28.210938 17.65625 28.328125 C 17.941406 28.445312 18.246094 28.5 18.566406 28.5 C 18.863281 28.5 19.121094 28.46875 19.339844 28.394531 C 19.558594 28.324219 19.734375 28.25 19.878906 28.160156 C 20.039062 28.066406 20.175781 27.953125 20.285156 27.824219 L 20.285156 27.25 L 19.746094 27.25 C 19.316406 27.25 19.101562 27.035156 19.101562 26.605469 L 19.101562 26.148438 C 19.101562 25.71875 19.316406 25.503906 19.746094 25.503906 L 21.453125 25.503906 C 21.882812 25.503906 22.097656 25.71875 22.097656 26.148438 L 22.097656 29.585938 C 22.097656 30.015625 21.882812 30.230469 21.453125 30.230469 L 21.070312 30.230469 C 20.859375 30.230469 20.699219 30.179688 20.589844 30.082031 C 20.480469 29.984375 20.429688 29.867188 20.429688 29.726562 L 20.429688 29.621094 C 20.429688 29.621094 20.429688 29.59375 20.441406 29.585938 L 20.417969 29.585938 C 20.269531 29.734375 20.085938 29.863281 19.867188 29.980469 C 19.679688 30.082031 19.449219 30.175781 19.175781 30.25 C 18.898438 30.328125 18.570312 30.367188 18.199219 30.367188 C 17.660156 30.367188 17.144531 30.269531 16.648438 30.070312 C 16.15625 29.867188 15.71875 29.585938 15.332031 29.21875 C 14.949219 28.855469 14.648438 28.40625 14.421875 27.875 C 14.195312 27.34375 14.082031 26.753906 14.082031 26.101562 Z M 14.078125 26.113281" fill="#1a2369"></path><path fill-rule="nonzero" fill-opacity="1" d="M 22.761719 26.007812 C 22.761719 25.40625 22.867188 24.847656 23.078125 24.328125 C 23.289062 23.808594 23.585938 23.359375 23.972656 22.972656 C 24.355469 22.589844 24.820312 22.285156 25.355469 22.066406 C 25.894531 21.847656 26.484375 21.738281 27.128906 21.738281 C 27.773438 21.738281 28.367188 21.847656 28.902344 22.066406 C 29.441406 22.285156 29.902344 22.589844 30.285156 22.972656 C 30.671875 23.355469 30.96875 23.808594 31.179688 24.328125 C 31.390625 24.847656 31.496094 25.40625 31.496094 26.007812 C 31.496094 26.605469 31.390625 27.191406 31.179688 27.722656 C 30.96875 28.257812 30.671875 28.714844 30.285156 29.109375 C 29.902344 29.5 29.4375 29.8125 28.902344 30.035156 C 28.363281 30.261719 27.773438 30.375 27.128906 30.375 C 26.484375 30.375 25.890625 30.261719 25.355469 30.035156 C 24.816406 29.808594 24.355469 29.5 23.972656 29.109375 C 23.585938 28.714844 23.289062 28.253906 23.078125 27.722656 C 22.867188 27.191406 22.761719 26.625 22.761719 26.007812 Z M 24.875 26.007812 C 24.875 26.363281 24.933594 26.695312 25.046875 27 C 25.160156 27.304688 25.3125 27.566406 25.511719 27.789062 C 25.710938 28.011719 25.949219 28.183594 26.226562 28.316406 C 26.5 28.445312 26.800781 28.507812 27.128906 28.507812 C 27.457031 28.507812 27.757812 28.445312 28.035156 28.316406 C 28.308594 28.1875 28.546875 28.011719 28.746094 27.789062 C 28.945312 27.566406 29.101562 27.300781 29.214844 27 C 29.324219 26.699219 29.382812 26.367188 29.382812 26.007812 C 29.382812 25.644531 29.324219 25.347656 29.214844 25.050781 C 29.101562 24.757812 28.945312 24.507812 28.746094 24.292969 C 28.546875 24.078125 28.308594 23.910156 28.035156 23.789062 C 27.757812 23.667969 27.453125 23.609375 27.128906 23.609375 C 26.804688 23.609375 26.5 23.667969 26.226562 23.789062 C 25.949219 23.910156 25.710938 24.082031 25.511719 24.292969 C 25.3125 24.507812 25.160156 24.757812 25.046875 25.050781 C 24.933594 25.347656 24.875 25.664062 24.875 26.007812 Z M 24.875 26.007812" fill="#1a2369"></path><path fill-rule="nonzero" fill-opacity="1" d="M 32.339844 29.546875 C 32.277344 29.503906 32.222656 29.449219 32.179688 29.390625 C 32.132812 29.332031 32.101562 29.265625 32.082031 29.191406 C 32.0625 29.113281 32.0625 29.035156 32.082031 28.949219 C 32.101562 28.863281 32.148438 28.765625 32.226562 28.65625 L 32.589844 28.128906 C 32.707031 27.957031 32.835938 27.859375 32.972656 27.839844 C 33.113281 27.824219 33.28125 27.867188 33.476562 27.976562 C 33.546875 28.015625 33.628906 28.0625 33.726562 28.117188 C 33.824219 28.167969 33.9375 28.226562 34.066406 28.285156 C 34.195312 28.347656 34.339844 28.390625 34.492188 28.433594 C 34.648438 28.472656 34.816406 28.492188 34.992188 28.492188 C 35.300781 28.492188 35.519531 28.4375 35.664062 28.324219 C 35.808594 28.210938 35.878906 28.070312 35.878906 27.910156 C 35.878906 27.714844 35.789062 27.546875 35.605469 27.410156 C 35.417969 27.277344 35.195312 27.148438 34.921875 27.027344 C 34.652344 26.90625 34.351562 26.777344 34.03125 26.644531 C 33.710938 26.507812 33.417969 26.335938 33.144531 26.132812 C 32.867188 25.929688 32.640625 25.6875 32.460938 25.390625 C 32.277344 25.097656 32.1875 24.734375 32.1875 24.300781 C 32.1875 23.917969 32.261719 23.566406 32.414062 23.253906 C 32.5625 22.941406 32.773438 22.671875 33.039062 22.445312 C 33.300781 22.21875 33.617188 22.046875 33.984375 21.925781 C 34.347656 21.804688 34.746094 21.742188 35.164062 21.742188 C 35.652344 21.742188 36.101562 21.8125 36.507812 21.949219 C 36.910156 22.082031 37.21875 22.222656 37.421875 22.363281 C 37.589844 22.488281 37.6875 22.621094 37.714844 22.765625 C 37.738281 22.910156 37.707031 23.066406 37.621094 23.234375 L 37.339844 23.785156 C 37.226562 24.011719 37.089844 24.128906 36.9375 24.132812 C 36.789062 24.136719 36.628906 24.09375 36.46875 24.007812 C 36.269531 23.914062 36.070312 23.828125 35.863281 23.746094 C 35.65625 23.664062 35.417969 23.621094 35.144531 23.621094 C 34.816406 23.621094 34.582031 23.675781 34.445312 23.789062 C 34.304688 23.902344 34.234375 24.042969 34.234375 24.203125 C 34.234375 24.410156 34.324219 24.574219 34.507812 24.707031 C 34.691406 24.839844 34.917969 24.960938 35.191406 25.078125 C 35.460938 25.195312 35.757812 25.320312 36.078125 25.449219 C 36.398438 25.578125 36.695312 25.742188 36.96875 25.9375 C 37.238281 26.136719 37.46875 26.382812 37.652344 26.671875 C 37.835938 26.96875 37.925781 27.328125 37.925781 27.765625 C 37.925781 28.117188 37.863281 28.449219 37.734375 28.765625 C 37.605469 29.082031 37.417969 29.355469 37.167969 29.59375 C 36.917969 29.832031 36.609375 30.019531 36.246094 30.160156 C 35.878906 30.296875 35.460938 30.371094 34.992188 30.371094 C 34.695312 30.371094 34.417969 30.34375 34.144531 30.285156 C 33.878906 30.230469 33.625 30.164062 33.398438 30.082031 C 33.171875 30 32.960938 29.914062 32.78125 29.816406 C 32.597656 29.71875 32.453125 29.628906 32.34375 29.539062 Z M 32.339844 29.546875" fill="#1a2369"></path></svg>