<svg version="1.0" preserveAspectRatio="xMidYMid meet" height="70" viewBox="0 0 52.5 52.499999" zoomAndPan="magnify" width="70" xmlns:xlink="http://www.w3.org/1999/xlink" xmlns="http://www.w3.org/2000/svg"><defs><clipPath id="ca7158bbc1"><path clip-rule="nonzero" d="M 0 6 L 52.003906 6 L 52.003906 51 L 0 51 Z M 0 6"></path></clipPath></defs><path fill-rule="nonzero" fill-opacity="1" d="M 48.074219 25.9375 C 48.074219 38.128906 38.191406 48.011719 26.003906 48.011719 C 13.8125 48.011719 3.929688 38.128906 3.929688 25.9375 C 3.929688 13.746094 13.8125 3.863281 26.003906 3.863281 C 38.191406 3.863281 48.074219 13.742188 48.074219 25.9375 Z M 48.074219 25.9375" fill="#d8ebf7"></path><path fill-rule="nonzero" fill-opacity="1" d="M 45.589844 41.351562 L 45.148438 41.351562 C 45.28125 41.265625 45.457031 41.265625 45.589844 41.351562" fill="#001f60"></path><path fill-rule="nonzero" fill-opacity="1" d="M 45.589844 36.792969 L 45.148438 36.792969 C 45.28125 36.703125 45.457031 36.703125 45.589844 36.792969" fill="#001f60"></path><path fill-rule="nonzero" fill-opacity="1" d="M 38.433594 6.355469 C 39.3125 6.355469 40.140625 6.441406 40.90625 6.609375 C 46 7.648438 49.839844 11.460938 50.699219 16.316406 C 51.238281 19.363281 50.734375 22.480469 49.15625 25.855469 C 47.125 30.1875 44.089844 34.054688 39.871094 37.675781 C 36.722656 40.394531 33.410156 43.046875 30.207031 45.609375 C 28.890625 46.667969 27.519531 47.761719 26.179688 48.851562 L 26.15625 48.871094 C 26.109375 48.90625 26.050781 48.957031 26.003906 48.992188 C 25.179688 48.355469 24.355469 47.71875 23.53125 47.082031 C 18.628906 43.308594 13.554688 39.398438 9.214844 34.855469 C 5.664062 31.125 3.417969 27.695312 2.140625 24.066406 C 0.480469 19.363281 0.792969 15.394531 3.078125 11.929688 C 5.390625 8.449219 9.332031 6.371094 13.625 6.371094 C 18.167969 6.371094 22.246094 8.640625 24.542969 12.449219 C 24.628906 12.589844 24.714844 12.730469 24.804688 12.875 C 24.929688 13.082031 25.0625 13.300781 25.234375 13.574219 L 26.011719 14.824219 L 26.820312 13.597656 C 27.035156 13.269531 27.214844 12.980469 27.390625 12.695312 C 27.539062 12.445312 27.683594 12.214844 27.832031 11.992188 C 30.105469 8.515625 34.164062 6.355469 38.425781 6.355469 M 38.425781 5.414062 C 33.890625 5.414062 29.53125 7.675781 27.042969 11.476562 C 26.722656 11.957031 26.4375 12.46875 26.03125 13.078125 C 25.746094 12.613281 25.554688 12.292969 25.34375 11.957031 C 22.730469 7.628906 18.191406 5.429688 13.621094 5.429688 C 9.296875 5.429688 4.949219 7.402344 2.289062 11.410156 C -0.410156 15.515625 -0.3125 19.925781 1.253906 24.382812 C 2.761719 28.664062 5.4375 32.253906 8.535156 35.507812 C 13.648438 40.863281 19.609375 45.222656 25.433594 49.742188 C 25.640625 49.921875 25.851562 49.984375 26.011719 49.984375 C 26.296875 49.984375 26.507812 49.808594 26.777344 49.582031 C 31.363281 45.863281 36.03125 42.242188 40.484375 38.394531 C 44.445312 34.992188 47.78125 31.019531 50.007812 26.257812 C 51.515625 23.035156 52.253906 19.703125 51.628906 16.160156 C 50.695312 10.882812 46.515625 6.796875 41.09375 5.691406 C 40.226562 5.5 39.332031 5.414062 38.433594 5.414062 Z M 38.425781 5.414062" fill="#001f60"></path><g clip-path="url(#ca7158bbc1)"><path stroke-miterlimit="10" stroke-opacity="1" stroke-width="2.5" stroke="#001f60" d="M 12.894864 80.188644 C 19.176446 71.543694 27.759202 64.422495 37.74132 59.550641 C 47.650879 54.709883 58.223839 52.564194 67.511459 53.45564 C 79.597804 54.626958 88.688476 60.90854 93.135339 71.046143 C 93.373749 71.564426 93.259727 72.175999 92.855466 72.611356 C 92.471937 73.036348 91.891461 73.15037 91.342082 72.963788 C 81.94044 69.491296 74.529002 70.26872 71.015048 75.068014 C 68.48583 78.540506 68.444367 83.806255 70.983951 87.050703 C 76.197871 93.715814 85.879386 98.007192 95.674922 98.007192 L 95.902967 98.007192 C 106.434464 97.934632 115.950128 92.979853 122.739627 84.055031" stroke-linejoin="miter" fill="none" transform="matrix(0.376846, 0, 0, 0.376846, 0.0000005, 0.000000990566)" stroke-linecap="butt"></path></g></svg>