<svg version="1.0" preserveAspectRatio="xMidYMid meet" height="80" viewBox="0 0 60 60" zoomAndPan="magnify" width="80" xmlns:xlink="http://www.w3.org/1999/xlink" xmlns="http://www.w3.org/2000/svg"><rect fill-opacity="1" height="72" y="-6" fill="#ffffff" width="72" x="-6"></rect><rect fill-opacity="1" height="72" y="-6" fill="#ffffff" width="72" x="-6"></rect><path fill-rule="evenodd" fill-opacity="1" d="M 55.472656 29.957031 C 55.472656 43.976562 44.074219 55.359375 30.007812 55.359375 C 15.945312 55.359375 4.527344 43.976562 4.527344 29.957031 C 4.527344 15.933594 15.925781 4.550781 29.992188 4.550781 C 44.054688 4.550781 55.457031 15.929688 55.457031 29.957031 L 55.476562 29.957031 Z M 55.472656 29.957031" fill="#cee7f3"></path><path stroke-miterlimit="4" stroke-opacity="1" stroke-width="2.26" stroke="#001f60" d="M 114.128527 25.955857 L 26.153518 25.955857 C 21.832033 25.955857 19.280471 30.798436 21.724221 34.374218 L 57.607818 80.464066 L 57.607818 126.17657 C 57.607818 129.159383 60.824225 131.046102 63.420709 129.590633 L 76.996101 122.00782 C 80.500008 120.049226 82.674227 116.356647 82.674227 112.340631 L 82.674227 80.464066 L 118.557824 34.374218 C 121.001574 30.80742 118.450012 25.955857 114.128527 25.955857 Z M 114.128527 25.955857" stroke-linejoin="round" fill="none" transform="matrix(0.434783, 0, 0, 0.434783, 0, 0.000002)" stroke-linecap="round"></path><path stroke-miterlimit="4" stroke-opacity="1" stroke-width="2.26" stroke="#001f60" d="M 37.536722 54.687891 C 42.181645 51.902735 53.070708 48.497656 73.91446 56.960939 C 84.309383 61.183595 95.180478 58.317579 102.233213 55.325782" stroke-linejoin="round" fill="none" transform="matrix(0.434783, 0, 0, 0.434783, 0, 0.000002)" stroke-linecap="round"></path></svg>