<svg width="248" height="22" viewBox="0 0 248 22" fill="none" xmlns="http://www.w3.org/2000/svg">
<path d="M1.32 16V5.68H5.22C5.8 5.68 6.315 5.75 6.765 5.89C7.215 6.02 7.59 6.22 7.89 6.49C8.2 6.75 8.43 7.07 8.58 7.45C8.74 7.83 8.82 8.26 8.82 8.74C8.82 9.12 8.77 9.475 8.67 9.805C8.58 10.135 8.435 10.435 8.235 10.705C8.045 10.965 7.81 11.19 7.53 11.38C7.25 11.57 6.925 11.715 6.555 11.815L9.18 16H7.68L5.115 11.98H2.7V16H1.32ZM5.28 6.88H2.7V10.78H5.28C5.63 10.78 5.94 10.73 6.21 10.63C6.48 10.52 6.705 10.375 6.885 10.195C7.075 10.005 7.215 9.79 7.305 9.55C7.395 9.3 7.44 9.03 7.44 8.74C7.44 8.46 7.39 8.205 7.29 7.975C7.2 7.745 7.06 7.55 6.87 7.39C6.69 7.22 6.465 7.095 6.195 7.015C5.925 6.925 5.62 6.88 5.28 6.88ZM10.2708 14.14C10.2708 13.83 10.3158 13.555 10.4058 13.315C10.4958 13.075 10.6358 12.86 10.8258 12.67C11.0258 12.48 11.2758 12.32 11.5758 12.19C11.8758 12.06 12.2408 11.96 12.6708 11.89L14.1108 11.65C14.3208 11.61 14.4858 11.575 14.6058 11.545C14.7258 11.515 14.8158 11.48 14.8758 11.44C14.9458 11.4 14.9958 11.355 15.0258 11.305C15.0558 11.245 15.0708 11.17 15.0708 11.08C15.0708 10.86 15.0358 10.66 14.9658 10.48C14.9058 10.29 14.8108 10.13 14.6808 10C14.5508 9.86 14.3858 9.755 14.1858 9.685C13.9858 9.615 13.7608 9.58 13.5108 9.58C13.2508 9.58 13.0158 9.615 12.8058 9.685C12.6058 9.745 12.4358 9.84 12.2958 9.97C12.1558 10.09 12.0458 10.235 11.9658 10.405C11.8958 10.575 11.8508 10.76 11.8308 10.96H10.5708C10.5908 10.61 10.6658 10.285 10.7958 9.985C10.9358 9.685 11.1308 9.425 11.3808 9.205C11.6308 8.985 11.9358 8.815 12.2958 8.695C12.6558 8.565 13.0608 8.5 13.5108 8.5C13.9808 8.5 14.3958 8.56 14.7558 8.68C15.1258 8.8 15.4308 8.98 15.6708 9.22C15.9108 9.45 16.0908 9.735 16.2108 10.075C16.3308 10.405 16.3908 10.78 16.3908 11.2V16H15.1308V15.025H15.0708C14.9708 15.215 14.8408 15.385 14.6808 15.535C14.5208 15.675 14.3408 15.795 14.1408 15.895C13.9408 15.985 13.7208 16.055 13.4808 16.105C13.2508 16.155 13.0008 16.18 12.7308 16.18C12.3508 16.18 12.0058 16.13 11.6958 16.03C11.3858 15.94 11.1258 15.805 10.9158 15.625C10.7058 15.445 10.5458 15.23 10.4358 14.98C10.3258 14.73 10.2708 14.45 10.2708 14.14ZM15.0708 12.94V12.235C15.0308 12.275 14.9858 12.315 14.9358 12.355C14.8858 12.395 14.8258 12.43 14.7558 12.46C14.6958 12.48 14.6258 12.5 14.5458 12.52C14.4658 12.54 14.3808 12.56 14.2908 12.58L12.9108 12.82C12.6708 12.86 12.4658 12.915 12.2958 12.985C12.1358 13.055 12.0008 13.14 11.8908 13.24C11.7908 13.34 11.7158 13.455 11.6658 13.585C11.6158 13.715 11.5908 13.86 11.5908 14.02C11.5908 14.18 11.6158 14.325 11.6658 14.455C11.7258 14.585 11.8108 14.7 11.9208 14.8C12.0408 14.9 12.1858 14.975 12.3558 15.025C12.5358 15.075 12.7408 15.1 12.9708 15.1C13.2608 15.1 13.5308 15.055 13.7808 14.965C14.0408 14.875 14.2658 14.74 14.4558 14.56C14.6458 14.37 14.7958 14.14 14.9058 13.87C15.0158 13.6 15.0708 13.29 15.0708 12.94ZM18.6198 13.84V9.76H17.2398V8.68H18.6198V6.46H19.9398V8.68H21.8598V9.76H19.9398V13.78C19.9398 13.98 19.9598 14.15 19.9998 14.29C20.0398 14.42 20.0998 14.53 20.1798 14.62C20.2598 14.7 20.3648 14.76 20.4948 14.8C20.6248 14.84 20.7798 14.86 20.9598 14.86H21.8598V16H20.7798C20.4198 16 20.1048 15.955 19.8348 15.865C19.5648 15.775 19.3398 15.64 19.1598 15.46C18.9798 15.28 18.8448 15.055 18.7548 14.785C18.6648 14.515 18.6198 14.2 18.6198 13.84ZM22.8217 12.34C22.8217 11.78 22.9067 11.265 23.0767 10.795C23.2567 10.315 23.5017 9.905 23.8117 9.565C24.1317 9.225 24.5017 8.965 24.9217 8.785C25.3517 8.595 25.8117 8.5 26.3017 8.5C26.7817 8.5 27.2167 8.58 27.6067 8.74C28.0067 8.89 28.3517 9.12 28.6417 9.43C28.9317 9.73 29.1517 10.095 29.3017 10.525C29.4617 10.955 29.5417 11.44 29.5417 11.98V12.52H24.2017C24.2117 12.9 24.2717 13.245 24.3817 13.555C24.4917 13.865 24.6417 14.13 24.8317 14.35C25.0217 14.57 25.2417 14.74 25.4917 14.86C25.7517 14.98 26.0417 15.04 26.3617 15.04C26.6217 15.04 26.8567 15.01 27.0667 14.95C27.2767 14.88 27.4567 14.785 27.6067 14.665C27.7567 14.545 27.8767 14.41 27.9667 14.26C28.0567 14.11 28.1217 13.95 28.1617 13.78H29.4817C29.4317 14.11 29.3217 14.42 29.1517 14.71C28.9817 15 28.7567 15.255 28.4767 15.475C28.2067 15.695 27.8917 15.87 27.5317 16C27.1717 16.12 26.7817 16.18 26.3617 16.18C25.8017 16.18 25.2967 16.09 24.8467 15.91C24.4067 15.73 24.0367 15.475 23.7367 15.145C23.4367 14.805 23.2067 14.4 23.0467 13.93C22.8967 13.45 22.8217 12.92 22.8217 12.34ZM26.3017 9.64C26.0517 9.64 25.8167 9.685 25.5967 9.775C25.3767 9.855 25.1767 9.98 24.9967 10.15C24.8267 10.31 24.6767 10.51 24.5467 10.75C24.4267 10.98 24.3367 11.24 24.2767 11.53H28.1917C28.1617 11.2 28.0967 10.92 27.9967 10.69C27.9067 10.45 27.7817 10.255 27.6217 10.105C27.4617 9.945 27.2717 9.83 27.0517 9.76C26.8317 9.68 26.5817 9.64 26.3017 9.64ZM30.8637 12.4C30.8637 11.81 30.9487 11.275 31.1187 10.795C31.2887 10.315 31.5287 9.905 31.8387 9.565C32.1487 9.215 32.5087 8.95 32.9187 8.77C33.3287 8.59 33.7637 8.5 34.2237 8.5C34.4837 8.5 34.7287 8.525 34.9587 8.575C35.1887 8.625 35.4037 8.705 35.6037 8.815C35.8037 8.915 35.9837 9.05 36.1437 9.22C36.3037 9.38 36.4437 9.58 36.5637 9.82H36.6237C36.6137 9.6 36.6037 9.37 36.5937 9.13C36.5837 8.89 36.5737 8.665 36.5637 8.455C36.5637 8.235 36.5637 8.045 36.5637 7.885C36.5637 7.725 36.5637 7.55 36.5637 7.36V5.02H37.8837V16H36.6237V14.86H36.5637C36.4437 15.09 36.2987 15.29 36.1287 15.46C35.9587 15.63 35.7637 15.77 35.5437 15.88C35.3337 15.98 35.1037 16.055 34.8537 16.105C34.6137 16.155 34.3637 16.18 34.1037 16.18C33.6337 16.18 33.1987 16.095 32.7987 15.925C32.4087 15.755 32.0687 15.51 31.7787 15.19C31.4887 14.86 31.2637 14.46 31.1037 13.99C30.9437 13.52 30.8637 12.99 30.8637 12.4ZM32.2437 12.4C32.2437 12.82 32.2987 13.2 32.4087 13.54C32.5187 13.87 32.6687 14.145 32.8587 14.365C33.0587 14.585 33.2887 14.755 33.5487 14.875C33.8187 14.985 34.1037 15.04 34.4037 15.04C34.7037 15.04 34.9837 14.98 35.2437 14.86C35.5137 14.74 35.7437 14.565 35.9337 14.335C36.1337 14.105 36.2887 13.82 36.3987 13.48C36.5087 13.14 36.5637 12.76 36.5637 12.34C36.5637 11.92 36.5087 11.54 36.3987 11.2C36.2887 10.86 36.1337 10.575 35.9337 10.345C35.7437 10.115 35.5137 9.94 35.2437 9.82C34.9837 9.7 34.7037 9.64 34.4037 9.64C34.1037 9.64 33.8187 9.705 33.5487 9.835C33.2887 9.955 33.0587 10.135 32.8587 10.375C32.6687 10.615 32.5187 10.91 32.4087 11.26C32.2987 11.6 32.2437 11.98 32.2437 12.4ZM43.6393 16V5.68H50.5993V6.88H45.0193V10.15H49.4593V11.35H45.0193V14.8H50.7193V16H43.6393ZM51.6839 16L54.2639 12.31L51.7439 8.68H53.3039L55.0589 11.305L56.7839 8.68H58.2239L55.6889 12.295L58.2839 16H56.7239L54.9089 13.285L53.1239 16H51.6839ZM58.8275 12.34C58.8275 11.77 58.9125 11.25 59.0825 10.78C59.2625 10.3 59.5075 9.89 59.8175 9.55C60.1375 9.21 60.5075 8.95 60.9275 8.77C61.3575 8.59 61.8175 8.5 62.3075 8.5C62.7675 8.5 63.1825 8.565 63.5525 8.695C63.9325 8.825 64.2575 9.01 64.5275 9.25C64.7975 9.48 65.0125 9.76 65.1725 10.09C65.3325 10.41 65.4375 10.76 65.4875 11.14H64.1675C64.1275 10.92 64.0625 10.72 63.9725 10.54C63.8825 10.36 63.7575 10.205 63.5975 10.075C63.4475 9.935 63.2625 9.83 63.0425 9.76C62.8325 9.68 62.5875 9.64 62.3075 9.64C62.0075 9.64 61.7275 9.705 61.4675 9.835C61.2175 9.965 60.9975 10.15 60.8075 10.39C60.6175 10.63 60.4675 10.915 60.3575 11.245C60.2575 11.575 60.2075 11.94 60.2075 12.34C60.2075 12.74 60.2575 13.105 60.3575 13.435C60.4675 13.765 60.6175 14.05 60.8075 14.29C60.9975 14.53 61.2175 14.715 61.4675 14.845C61.7275 14.975 62.0075 15.04 62.3075 15.04C62.5875 15.04 62.8325 15.005 63.0425 14.935C63.2625 14.855 63.4475 14.75 63.5975 14.62C63.7575 14.48 63.8825 14.32 63.9725 14.14C64.0625 13.96 64.1275 13.76 64.1675 13.54H65.4875C65.4375 13.92 65.3325 14.275 65.1725 14.605C65.0125 14.925 64.7975 15.205 64.5275 15.445C64.2575 15.675 63.9325 15.855 63.5525 15.985C63.1825 16.115 62.7675 16.18 62.3075 16.18C61.7775 16.18 61.2925 16.09 60.8525 15.91C60.4225 15.73 60.0575 15.475 59.7575 15.145C59.4575 14.805 59.2275 14.4 59.0675 13.93C58.9075 13.45 58.8275 12.92 58.8275 12.34ZM66.7377 12.34C66.7377 11.78 66.8227 11.265 66.9927 10.795C67.1727 10.315 67.4177 9.905 67.7277 9.565C68.0477 9.225 68.4177 8.965 68.8377 8.785C69.2677 8.595 69.7277 8.5 70.2177 8.5C70.6977 8.5 71.1327 8.58 71.5227 8.74C71.9227 8.89 72.2677 9.12 72.5577 9.43C72.8477 9.73 73.0677 10.095 73.2177 10.525C73.3777 10.955 73.4577 11.44 73.4577 11.98V12.52H68.1177C68.1277 12.9 68.1877 13.245 68.2977 13.555C68.4077 13.865 68.5577 14.13 68.7477 14.35C68.9377 14.57 69.1577 14.74 69.4077 14.86C69.6677 14.98 69.9577 15.04 70.2777 15.04C70.5377 15.04 70.7727 15.01 70.9827 14.95C71.1927 14.88 71.3727 14.785 71.5227 14.665C71.6727 14.545 71.7927 14.41 71.8827 14.26C71.9727 14.11 72.0377 13.95 72.0777 13.78H73.3977C73.3477 14.11 73.2377 14.42 73.0677 14.71C72.8977 15 72.6727 15.255 72.3927 15.475C72.1227 15.695 71.8077 15.87 71.4477 16C71.0877 16.12 70.6977 16.18 70.2777 16.18C69.7177 16.18 69.2127 16.09 68.7627 15.91C68.3227 15.73 67.9527 15.475 67.6527 15.145C67.3527 14.805 67.1227 14.4 66.9627 13.93C66.8127 13.45 66.7377 12.92 66.7377 12.34ZM70.2177 9.64C69.9677 9.64 69.7327 9.685 69.5127 9.775C69.2927 9.855 69.0927 9.98 68.9127 10.15C68.7427 10.31 68.5927 10.51 68.4627 10.75C68.3427 10.98 68.2527 11.24 68.1927 11.53H72.1077C72.0777 11.2 72.0127 10.92 71.9127 10.69C71.8227 10.45 71.6977 10.255 71.5377 10.105C71.3777 9.945 71.1877 9.83 70.9677 9.76C70.7477 9.68 70.4977 9.64 70.2177 9.64ZM75.1439 16V5.02H76.4639V16H75.1439ZM78.7474 16V5.02H80.0674V16H78.7474ZM81.8109 12.34C81.8109 11.78 81.8959 11.265 82.0659 10.795C82.2459 10.315 82.4909 9.905 82.8009 9.565C83.1209 9.225 83.4909 8.965 83.9109 8.785C84.3409 8.595 84.8009 8.5 85.2909 8.5C85.7709 8.5 86.2059 8.58 86.5959 8.74C86.9959 8.89 87.3409 9.12 87.6309 9.43C87.9209 9.73 88.1409 10.095 88.2909 10.525C88.4509 10.955 88.5309 11.44 88.5309 11.98V12.52H83.1909C83.2009 12.9 83.2609 13.245 83.3709 13.555C83.4809 13.865 83.6309 14.13 83.8209 14.35C84.0109 14.57 84.2309 14.74 84.4809 14.86C84.7409 14.98 85.0309 15.04 85.3509 15.04C85.6109 15.04 85.8459 15.01 86.0559 14.95C86.2659 14.88 86.4459 14.785 86.5959 14.665C86.7459 14.545 86.8659 14.41 86.9559 14.26C87.0459 14.11 87.1109 13.95 87.1509 13.78H88.4709C88.4209 14.11 88.3109 14.42 88.1409 14.71C87.9709 15 87.7459 15.255 87.4659 15.475C87.1959 15.695 86.8809 15.87 86.5209 16C86.1609 16.12 85.7709 16.18 85.3509 16.18C84.7909 16.18 84.2859 16.09 83.8359 15.91C83.3959 15.73 83.0259 15.475 82.7259 15.145C82.4259 14.805 82.1959 14.4 82.0359 13.93C81.8859 13.45 81.8109 12.92 81.8109 12.34ZM85.2909 9.64C85.0409 9.64 84.8059 9.685 84.5859 9.775C84.3659 9.855 84.1659 9.98 83.9859 10.15C83.8159 10.31 83.6659 10.51 83.5359 10.75C83.4159 10.98 83.3259 11.24 83.2659 11.53H87.1809C87.1509 11.2 87.0859 10.92 86.9859 10.69C86.8959 10.45 86.7709 10.255 86.6109 10.105C86.4509 9.945 86.2609 9.83 86.0409 9.76C85.8209 9.68 85.5709 9.64 85.2909 9.64ZM90.2171 16V8.68H91.4771V9.76H91.5371C91.6371 9.55 91.7621 9.37 91.9121 9.22C92.0621 9.06 92.2321 8.93 92.4221 8.83C92.6221 8.72 92.8371 8.64 93.0671 8.59C93.2971 8.53 93.5471 8.5 93.8171 8.5C94.1971 8.5 94.5471 8.555 94.8671 8.665C95.1871 8.775 95.4721 8.95 95.7221 9.19C95.9721 9.43 96.1671 9.75 96.3071 10.15C96.4471 10.54 96.5171 11.01 96.5171 11.56V16H95.1971V11.74C95.1971 11.36 95.1571 11.035 95.0771 10.765C94.9971 10.495 94.8821 10.28 94.7321 10.12C94.5921 9.95 94.4171 9.83 94.2071 9.76C94.0071 9.68 93.7771 9.64 93.5171 9.64C93.2371 9.64 92.9771 9.7 92.7371 9.82C92.4971 9.94 92.2871 10.11 92.1071 10.33C91.9271 10.55 91.7871 10.82 91.6871 11.14C91.5871 11.46 91.5371 11.815 91.5371 12.205V16H90.2171ZM98.7468 13.84V9.76H97.3668V8.68H98.7468V6.46H100.067V8.68H101.987V9.76H100.067V13.78C100.067 13.98 100.087 14.15 100.127 14.29C100.167 14.42 100.227 14.53 100.307 14.62C100.387 14.7 100.492 14.76 100.622 14.8C100.752 14.84 100.907 14.86 101.087 14.86H101.987V16H100.907C100.547 16 100.232 15.955 99.9618 15.865C99.6918 15.775 99.4668 15.64 99.2868 15.46C99.1068 15.28 98.9718 15.055 98.8818 14.785C98.7918 14.515 98.7468 14.2 98.7468 13.84Z" fill="#071F60"/>
<path d="M128.184 6.63623H135.569V8.03809H132.661V15.9406H131.067V8.03809H128.172L128.184 6.63623ZM135.253 9.20424H136.616V10.5069H136.64C136.689 10.3208 136.774 10.1471 136.896 9.97341C137.017 9.79973 137.163 9.63845 137.346 9.50198C137.516 9.35311 137.711 9.24146 137.93 9.15462C138.137 9.06778 138.356 9.01816 138.575 9.01816C138.745 9.01816 138.867 9.03056 138.928 9.03056C138.988 9.04297 139.061 9.05538 139.122 9.05538V10.4821C139.025 10.4572 138.915 10.4448 138.806 10.4324C138.696 10.42 138.599 10.4076 138.49 10.4076C138.246 10.4076 138.015 10.4572 137.796 10.5565C137.577 10.6557 137.394 10.8046 137.224 10.9907C137.066 11.1892 136.932 11.4249 136.835 11.7102C136.737 11.9956 136.689 12.3305 136.689 12.7027V15.9034H135.229L135.253 9.20424ZM145.814 15.9406H144.379V14.9978H144.354C144.172 15.3452 143.904 15.6057 143.551 15.8166C143.198 16.0275 142.833 16.1267 142.468 16.1267C141.604 16.1267 140.972 15.9158 140.582 15.4692C140.193 15.035 139.998 14.3651 139.998 13.4843V9.20424H141.458V13.3354C141.458 13.9309 141.568 14.3527 141.799 14.5884C142.018 14.8365 142.334 14.9606 142.736 14.9606C143.04 14.9606 143.296 14.9109 143.502 14.8117C143.709 14.7125 143.88 14.5884 144.001 14.4271C144.135 14.2658 144.22 14.0673 144.281 13.844C144.342 13.6207 144.366 13.3726 144.366 13.1121V9.20424H145.826V15.9406H145.814ZM148.296 13.782C148.345 14.2162 148.503 14.514 148.783 14.7C149.063 14.8737 149.404 14.9606 149.793 14.9606C149.927 14.9606 150.085 14.9482 150.255 14.9234C150.426 14.8985 150.596 14.8613 150.742 14.7993C150.9 14.7373 151.022 14.6504 151.119 14.5264C151.217 14.4023 151.265 14.2534 151.253 14.0673C151.241 13.8813 151.18 13.72 151.046 13.5959C150.912 13.4719 150.754 13.385 150.56 13.2982C150.365 13.2237 150.134 13.1617 149.878 13.1121C149.623 13.0625 149.367 13.0004 149.099 12.9384C148.832 12.8764 148.564 12.8019 148.309 12.7151C148.053 12.6283 147.834 12.5166 147.627 12.3553C147.433 12.2065 147.262 12.0204 147.153 11.7847C147.031 11.549 146.97 11.276 146.97 10.9287C146.97 10.5565 147.055 10.2587 147.238 10.0106C147.408 9.76251 147.639 9.56402 147.907 9.41514C148.175 9.26627 148.479 9.15462 148.807 9.09259C149.136 9.03056 149.452 9.00575 149.744 9.00575C150.085 9.00575 150.414 9.04297 150.718 9.1174C151.022 9.19184 151.314 9.30349 151.557 9.47717C151.813 9.63845 152.02 9.86175 152.178 10.1223C152.348 10.3828 152.445 10.7054 152.494 11.0775H150.973C150.9 10.7178 150.742 10.4821 150.499 10.358C150.243 10.2339 149.963 10.1719 149.635 10.1719C149.537 10.1719 149.404 10.1843 149.27 10.1967C149.124 10.2215 149.002 10.2463 148.868 10.296C148.747 10.3456 148.637 10.42 148.552 10.5069C148.467 10.5937 148.418 10.7178 148.418 10.8666C148.418 11.0527 148.479 11.1892 148.601 11.3008C148.722 11.4125 148.88 11.4993 149.087 11.5862C149.282 11.6606 149.513 11.7226 149.769 11.7723C150.024 11.8219 150.292 11.8839 150.56 11.9459C150.827 12.008 151.083 12.0824 151.338 12.1692C151.594 12.2561 151.825 12.3677 152.02 12.529C152.214 12.6779 152.385 12.864 152.506 13.0873C152.628 13.3106 152.689 13.5959 152.689 13.9185C152.689 14.3155 152.604 14.6504 152.421 14.9358C152.239 15.2087 152.007 15.4444 151.728 15.6181C151.448 15.7918 151.119 15.9158 150.779 16.0027C150.426 16.0771 150.085 16.1267 149.744 16.1267C149.331 16.1267 148.941 16.0771 148.588 15.9778C148.236 15.8786 147.919 15.7297 147.664 15.5436C147.408 15.3451 147.201 15.1094 147.055 14.8117C146.909 14.5264 146.824 14.179 146.812 13.7696H148.284V13.782H148.296ZM153.102 9.20424H154.21V7.16968H155.67V9.19184H156.984V10.296H155.67V13.8937C155.67 14.0549 155.682 14.179 155.694 14.3031C155.706 14.4147 155.743 14.514 155.779 14.5884C155.828 14.6628 155.901 14.7249 155.986 14.7621C156.083 14.7993 156.205 14.8241 156.376 14.8241C156.473 14.8241 156.582 14.8241 156.68 14.8117C156.777 14.7993 156.887 14.7869 156.984 14.7621V15.9158C156.826 15.9406 156.668 15.953 156.509 15.9654C156.351 15.9903 156.205 15.9903 156.035 15.9903C155.645 15.9903 155.341 15.953 155.11 15.8786C154.879 15.8042 154.696 15.6925 154.563 15.5561C154.429 15.4072 154.344 15.2335 154.295 15.0226C154.246 14.8117 154.222 14.5512 154.21 14.2782V10.3084H153.102V9.17943V9.20424ZM158.006 9.20424H159.381V10.1223H159.405C159.612 9.72529 159.892 9.45236 160.257 9.27868C160.622 9.105 161.011 9.01816 161.449 9.01816C161.972 9.01816 162.423 9.105 162.812 9.30349C163.201 9.48958 163.518 9.7377 163.773 10.0727C164.029 10.3952 164.223 10.7798 164.345 11.214C164.467 11.6482 164.54 12.1196 164.54 12.6035C164.54 13.0625 164.479 13.4967 164.369 13.9185C164.248 14.3403 164.077 14.7249 163.846 15.0474C163.615 15.37 163.323 15.6305 162.958 15.829C162.593 16.0275 162.179 16.1267 161.693 16.1267C161.486 16.1267 161.267 16.1019 161.06 16.0647C160.853 16.0275 160.646 15.9654 160.452 15.8786C160.257 15.7918 160.074 15.6801 159.916 15.5436C159.746 15.4072 159.612 15.2459 159.503 15.0722H159.478V18.4342H158.018V9.20424H158.006ZM163.104 12.5786C163.104 12.2809 163.068 11.9832 162.982 11.6978C162.909 11.4125 162.788 11.1644 162.63 10.9411C162.471 10.7178 162.277 10.5441 162.058 10.4076C161.826 10.2711 161.559 10.2091 161.267 10.2091C160.658 10.2091 160.196 10.42 159.88 10.8542C159.576 11.2884 159.417 11.8715 159.417 12.591C159.417 12.9384 159.454 13.2486 159.539 13.5339C159.624 13.8192 159.734 14.0673 159.904 14.2782C160.062 14.4891 160.257 14.6504 160.488 14.7745C160.719 14.8985 160.975 14.9606 161.279 14.9606C161.62 14.9606 161.887 14.8861 162.118 14.7497C162.35 14.6132 162.532 14.4271 162.69 14.2162C162.836 13.9929 162.946 13.7448 163.007 13.4595C163.068 13.1617 163.104 12.8764 163.104 12.5786ZM165.671 6.63623H167.131V8.03809H165.671V6.63623ZM165.671 9.20424H167.131V15.9406H165.671V9.20424ZM168.433 6.63623H169.893V15.9406H168.433V6.63623ZM174.347 16.1267C173.823 16.1267 173.349 16.0399 172.935 15.8538C172.522 15.6677 172.181 15.432 171.889 15.1218C171.609 14.8117 171.39 14.4271 171.244 13.9929C171.098 13.5587 171.013 13.0749 171.013 12.5662C171.013 12.0576 171.086 11.5862 171.244 11.152C171.39 10.7178 171.609 10.3456 171.889 10.023C172.169 9.71288 172.522 9.46477 172.935 9.29109C173.349 9.1174 173.823 9.01816 174.347 9.01816C174.87 9.01816 175.344 9.105 175.758 9.29109C176.172 9.46477 176.512 9.71288 176.804 10.023C177.084 10.3332 177.303 10.7178 177.449 11.152C177.595 11.5862 177.681 12.0576 177.681 12.5662C177.681 13.0873 177.608 13.5587 177.449 13.9929C177.291 14.4271 177.084 14.7993 176.804 15.1218C176.525 15.432 176.172 15.6801 175.758 15.8538C175.344 16.0275 174.882 16.1267 174.347 16.1267ZM174.347 14.9482C174.663 14.9482 174.955 14.8737 175.186 14.7373C175.43 14.6008 175.612 14.4147 175.77 14.1914C175.928 13.9681 176.038 13.7076 176.111 13.4346C176.184 13.1493 176.22 12.864 176.22 12.5662C176.22 12.2809 176.184 11.9956 176.111 11.7102C176.038 11.4249 175.928 11.1768 175.77 10.9535C175.612 10.7302 175.417 10.5565 175.186 10.42C174.943 10.2836 174.663 10.2091 174.347 10.2091C174.03 10.2091 173.738 10.2836 173.507 10.42C173.264 10.5565 173.081 10.7426 172.923 10.9535C172.765 11.1768 172.655 11.4249 172.582 11.7102C172.509 11.9956 172.473 12.2809 172.473 12.5662C172.473 12.864 172.509 13.1493 172.582 13.4346C172.655 13.72 172.765 13.9681 172.923 14.1914C173.081 14.4147 173.276 14.6008 173.507 14.7373C173.75 14.8861 174.03 14.9482 174.347 14.9482ZM178.119 9.20424H179.226V7.16968H180.686V9.19184H182V10.296H180.686V13.8937C180.686 14.0549 180.698 14.179 180.71 14.3031C180.722 14.4147 180.759 14.514 180.795 14.5884C180.844 14.6628 180.917 14.7249 181.002 14.7621C181.1 14.7993 181.221 14.8241 181.392 14.8241C181.489 14.8241 181.598 14.8241 181.696 14.8117C181.793 14.7993 181.903 14.7869 182 14.7621V15.9158C181.842 15.9406 181.684 15.953 181.525 15.9654C181.367 15.9903 181.221 15.9903 181.051 15.9903C180.662 15.9903 180.357 15.953 180.126 15.8786C179.895 15.8042 179.712 15.6925 179.579 15.5561C179.445 15.4072 179.36 15.2335 179.311 15.0226C179.262 14.8117 179.238 14.5512 179.226 14.2782V10.3084H178.119V9.17943V9.20424Z" fill="#071F60"/>
<path d="M126.697 6.4809H119.936L117.855 0L115.761 6.4809L109 6.46848L114.468 10.4787L112.374 16.9596L117.842 12.9494L123.31 16.9596L121.229 10.4787L126.697 6.4809Z" fill="#00B67A"/>
<path d="M121.535 11.6347L121.086 10.323L117.849 12.5351L121.535 11.6347Z" fill="#005128"/>
<path d="M200.918 5.01172H190V15.9294H200.918V5.01172Z" fill="#00B67A"/>
<path d="M212.631 5.01172H201.714V15.9294H212.631V5.01172Z" fill="#00B67A"/>
<path d="M224.459 5.01172H213.541V15.9294H224.459V5.01172Z" fill="#00B67A"/>
<path d="M236.173 5.01172H225.255V15.9294H236.173V5.01172Z" fill="#00B67A"/>
<path d="M248 5.01172H237.082V15.9294H248V5.01172Z" fill="#DCDCE6"/>
<path d="M237.082 5.01172H242.541V15.8156H237.082V5.01172Z" fill="#00B67A"/>
<path d="M195.345 12.2901L197.051 11.8352L197.733 13.996L195.345 12.2901ZM199.212 9.56071H196.255L195.345 6.8313L194.435 9.56071H191.592L193.98 11.2666L193.071 13.996L195.459 12.2901L196.937 11.2666L199.212 9.56071Z" fill="white"/>
<path d="M207.172 12.2901L208.878 11.8352L209.561 13.996L207.172 12.2901ZM210.925 9.56071H207.969L207.059 6.8313L206.149 9.56071H203.192L205.58 11.2666L204.671 13.996L207.059 12.2901L208.537 11.2666L210.925 9.56071Z" fill="white"/>
<path d="M219 12.2901L220.706 11.8352L221.388 13.996L219 12.2901ZM222.753 9.56071H219.796L218.886 6.8313L217.976 9.56071H215.02L217.408 11.2666L216.612 13.996L219 12.2901L220.478 11.2666L222.753 9.56071Z" fill="white"/>
<path d="M230.714 12.2901L232.42 11.8352L233.102 13.996L230.714 12.2901ZM234.58 9.56071H231.624L230.714 6.8313L229.804 9.56071H226.847L229.235 11.2666L228.325 13.996L230.714 12.2901L232.192 11.2666L234.58 9.56071Z" fill="white"/>
<path d="M242.541 12.2901L244.247 11.8352L244.929 13.996L242.541 12.2901ZM246.294 9.56071H243.337L242.427 6.8313L241.631 9.56071H238.674L241.063 11.2666L240.153 13.996L242.541 12.2901L244.02 11.2666L246.294 9.56071Z" fill="white"/>
</svg>
