<svg version="1.0" preserveAspectRatio="xMidYMid meet" height="70" viewBox="0 0 52.5 52.499999" zoomAndPan="magnify" width="70" xmlns:xlink="http://www.w3.org/1999/xlink" xmlns="http://www.w3.org/2000/svg"><path fill-rule="nonzero" fill-opacity="1" d="M 48.050781 25.992188 C 48.050781 26.714844 48.015625 27.433594 47.945312 28.152344 C 47.875 28.871094 47.769531 29.585938 47.628906 30.292969 C 47.488281 31 47.3125 31.699219 47.101562 32.390625 C 46.890625 33.082031 46.648438 33.761719 46.375 34.429688 C 46.097656 35.097656 45.789062 35.75 45.449219 36.386719 C 45.109375 37.023438 44.738281 37.640625 44.335938 38.242188 C 43.933594 38.839844 43.503906 39.421875 43.046875 39.980469 C 42.589844 40.539062 42.105469 41.070312 41.59375 41.582031 C 41.082031 42.09375 40.546875 42.578125 39.992188 43.035156 C 39.433594 43.492188 38.851562 43.921875 38.253906 44.324219 C 37.652344 44.726562 37.03125 45.097656 36.394531 45.4375 C 35.757812 45.777344 35.105469 46.085938 34.441406 46.363281 C 33.773438 46.636719 33.09375 46.882812 32.402344 47.089844 C 31.710938 47.300781 31.011719 47.476562 30.304688 47.617188 C 29.59375 47.757812 28.882812 47.863281 28.164062 47.933594 C 27.445312 48.003906 26.722656 48.039062 26.003906 48.039062 C 25.28125 48.039062 24.558594 48.003906 23.839844 47.933594 C 23.121094 47.863281 22.410156 47.757812 21.699219 47.617188 C 20.992188 47.476562 20.292969 47.300781 19.601562 47.089844 C 18.910156 46.882812 18.230469 46.636719 17.566406 46.363281 C 16.898438 46.085938 16.246094 45.777344 15.609375 45.4375 C 14.972656 45.097656 14.351562 44.726562 13.753906 44.324219 C 13.152344 43.921875 12.574219 43.492188 12.015625 43.035156 C 11.457031 42.578125 10.921875 42.09375 10.410156 41.582031 C 9.902344 41.070312 9.417969 40.539062 8.957031 39.980469 C 8.5 39.421875 8.070312 38.839844 7.667969 38.242188 C 7.269531 37.640625 6.898438 37.023438 6.558594 36.386719 C 6.214844 35.75 5.90625 35.097656 5.632812 34.429688 C 5.355469 33.761719 5.113281 33.082031 4.902344 32.390625 C 4.691406 31.699219 4.519531 31 4.375 30.292969 C 4.234375 29.585938 4.128906 28.871094 4.058594 28.152344 C 3.988281 27.433594 3.953125 26.714844 3.953125 25.992188 C 3.953125 25.269531 3.988281 24.546875 4.058594 23.828125 C 4.128906 23.109375 4.234375 22.398438 4.375 21.691406 C 4.519531 20.980469 4.691406 20.28125 4.902344 19.589844 C 5.113281 18.898438 5.355469 18.21875 5.632812 17.554688 C 5.90625 16.886719 6.214844 16.234375 6.558594 15.597656 C 6.898438 14.960938 7.269531 14.339844 7.667969 13.742188 C 8.070312 13.140625 8.5 12.5625 8.957031 12.003906 C 9.417969 11.445312 9.902344 10.910156 10.410156 10.398438 C 10.921875 9.890625 11.457031 9.40625 12.015625 8.945312 C 12.574219 8.488281 13.152344 8.058594 13.753906 7.65625 C 14.351562 7.257812 14.972656 6.886719 15.609375 6.546875 C 16.246094 6.203125 16.898438 5.898438 17.566406 5.621094 C 18.230469 5.34375 18.910156 5.101562 19.601562 4.890625 C 20.292969 4.679688 20.992188 4.507812 21.699219 4.367188 C 22.410156 4.222656 23.121094 4.117188 23.839844 4.046875 C 24.558594 3.976562 25.28125 3.941406 26.003906 3.941406 C 26.722656 3.941406 27.445312 3.976562 28.164062 4.046875 C 28.882812 4.117188 29.59375 4.222656 30.304688 4.367188 C 31.011719 4.507812 31.710938 4.679688 32.402344 4.890625 C 33.09375 5.101562 33.773438 5.34375 34.441406 5.621094 C 35.105469 5.898438 35.757812 6.203125 36.394531 6.546875 C 37.03125 6.886719 37.652344 7.257812 38.253906 7.65625 C 38.851562 8.058594 39.433594 8.488281 39.992188 8.945312 C 40.546875 9.40625 41.082031 9.890625 41.59375 10.398438 C 42.105469 10.910156 42.589844 11.445312 43.046875 12.003906 C 43.503906 12.5625 43.933594 13.140625 44.335938 13.742188 C 44.738281 14.339844 45.109375 14.960938 45.449219 15.597656 C 45.789062 16.234375 46.097656 16.886719 46.375 17.554688 C 46.648438 18.21875 46.890625 18.898438 47.101562 19.589844 C 47.3125 20.28125 47.488281 20.980469 47.628906 21.691406 C 47.769531 22.398438 47.875 23.109375 47.945312 23.828125 C 48.015625 24.546875 48.050781 25.269531 48.050781 25.992188 Z M 48.050781 25.992188" fill="#ffe4a6"></path><path stroke-miterlimit="4" stroke-opacity="1" stroke-width="2.5" stroke="#001f60" d="M 98.51511 85.019036 L 39.202876 53.714781 L 9.78517 68.579119 L 39.202876 84.84282 L 39.202876 121.796352 L 9.78517 106.527754 L 9.78517 68.579119" stroke-linejoin="round" fill="none" transform="matrix(0.376846, 0, 0, 0.376846, 0.0000005, 0.000000990566)" stroke-linecap="round"></path><path stroke-miterlimit="4" stroke-opacity="1" stroke-width="2.5" stroke="#001f60" d="M 39.202876 84.84282 L 98.51511 53.714781 L 128.212689 68.776067" stroke-linejoin="round" fill="none" transform="matrix(0.376846, 0, 0, 0.376846, 0.0000005, 0.000000990566)" stroke-linecap="round"></path><path stroke-miterlimit="4" stroke-opacity="1" stroke-width="2.5" stroke="#001f60" d="M 39.202876 121.796352 L 68.755337 106.548485" stroke-linejoin="round" fill="none" transform="matrix(0.376846, 0, 0, 0.376846, 0.0000005, 0.000000990566)" stroke-linecap="round"></path><path stroke-miterlimit="4" stroke-opacity="1" stroke-width="2.5" stroke="#001f60" d="M 98.51511 53.714781 L 98.51511 15.693587 L 68.755337 31.915825 L 68.755337 106.548485 L 98.51511 121.796352 L 98.51511 85.019036 L 128.212689 68.776067 L 128.212689 106.652141 L 98.51511 121.796352" stroke-linejoin="round" fill="none" transform="matrix(0.376846, 0, 0, 0.376846, 0.0000005, 0.000000990566)" stroke-linecap="round"></path><path stroke-miterlimit="4" stroke-opacity="1" stroke-width="2.5" stroke="#001f60" d="M 39.202876 53.714781 L 39.202876 15.693587 L 68.755337 31.915825" stroke-linejoin="round" fill="none" transform="matrix(0.376846, 0, 0, 0.376846, 0.0000005, 0.000000990566)" stroke-linecap="round"></path><path stroke-miterlimit="4" stroke-opacity="1" stroke-width="2.5" stroke="#001f60" d="M 39.202876 15.693587 L 68.755337 0.145116 L 98.51511 15.693587" stroke-linejoin="round" fill="none" transform="matrix(0.376846, 0, 0, 0.376846, 0.0000005, 0.000000990566)" stroke-linecap="round"></path></svg>