<svg version="1.0" preserveAspectRatio="xMidYMid meet" height="70" viewBox="0 0 52.5 52.499999" zoomAndPan="magnify" width="70" xmlns:xlink="http://www.w3.org/1999/xlink" xmlns="http://www.w3.org/2000/svg"><path fill-rule="nonzero" fill-opacity="1" d="M 47.691406 25.949219 C 47.691406 26.671875 47.65625 27.390625 47.582031 28.105469 C 47.511719 28.824219 47.40625 29.535156 47.265625 30.242188 C 47.125 30.949219 46.953125 31.644531 46.742188 32.335938 C 46.535156 33.027344 46.289062 33.703125 46.015625 34.367188 C 45.738281 35.035156 45.433594 35.683594 45.09375 36.320312 C 44.753906 36.957031 44.382812 37.574219 43.980469 38.171875 C 43.582031 38.769531 43.152344 39.347656 42.695312 39.90625 C 42.238281 40.464844 41.753906 40.996094 41.246094 41.507812 C 40.738281 42.015625 40.203125 42.5 39.644531 42.957031 C 39.089844 43.414062 38.511719 43.84375 37.914062 44.242188 C 37.3125 44.640625 36.695312 45.011719 36.058594 45.351562 C 35.425781 45.691406 34.773438 46 34.109375 46.273438 C 33.441406 46.550781 32.765625 46.792969 32.074219 47.003906 C 31.386719 47.210938 30.6875 47.386719 29.980469 47.527344 C 29.273438 47.667969 28.5625 47.773438 27.847656 47.84375 C 27.128906 47.914062 26.410156 47.949219 25.691406 47.949219 C 24.96875 47.949219 24.25 47.914062 23.53125 47.84375 C 22.816406 47.773438 22.105469 47.667969 21.398438 47.527344 C 20.691406 47.386719 19.992188 47.210938 19.304688 47.003906 C 18.613281 46.792969 17.9375 46.550781 17.269531 46.273438 C 16.605469 46 15.953125 45.691406 15.320312 45.351562 C 14.683594 45.011719 14.066406 44.640625 13.46875 44.242188 C 12.867188 43.84375 12.289062 43.414062 11.734375 42.957031 C 11.175781 42.5 10.640625 42.015625 10.132812 41.507812 C 9.625 40.996094 9.140625 40.464844 8.683594 39.90625 C 8.226562 39.347656 7.796875 38.769531 7.398438 38.171875 C 6.996094 37.574219 6.625 36.957031 6.285156 36.320312 C 5.949219 35.683594 5.640625 35.035156 5.363281 34.367188 C 5.089844 33.703125 4.847656 33.027344 4.636719 32.335938 C 4.425781 31.644531 4.253906 30.949219 4.113281 30.242188 C 3.972656 29.535156 3.867188 28.824219 3.796875 28.105469 C 3.726562 27.390625 3.6875 26.671875 3.6875 25.949219 C 3.6875 25.230469 3.726562 24.511719 3.796875 23.792969 C 3.867188 23.074219 3.972656 22.363281 4.113281 21.65625 C 4.253906 20.949219 4.425781 20.253906 4.636719 19.5625 C 4.847656 18.875 5.089844 18.195312 5.363281 17.53125 C 5.640625 16.863281 5.949219 16.214844 6.285156 15.578125 C 6.625 14.941406 6.996094 14.324219 7.398438 13.726562 C 7.796875 13.128906 8.226562 12.550781 8.683594 11.992188 C 9.140625 11.4375 9.625 10.902344 10.132812 10.394531 C 10.640625 9.882812 11.175781 9.398438 11.734375 8.941406 C 12.289062 8.484375 12.867188 8.058594 13.46875 7.65625 C 14.066406 7.257812 14.683594 6.886719 15.320312 6.546875 C 15.953125 6.207031 16.605469 5.898438 17.269531 5.625 C 17.9375 5.347656 18.613281 5.105469 19.304688 4.898438 C 19.992188 4.6875 20.691406 4.511719 21.398438 4.371094 C 22.105469 4.230469 22.816406 4.125 23.53125 4.054688 C 24.25 3.984375 24.96875 3.949219 25.691406 3.949219 C 26.410156 3.949219 27.128906 3.984375 27.847656 4.054688 C 28.5625 4.125 29.273438 4.230469 29.980469 4.371094 C 30.6875 4.511719 31.386719 4.6875 32.074219 4.898438 C 32.765625 5.105469 33.441406 5.347656 34.109375 5.625 C 34.773438 5.898438 35.425781 6.207031 36.058594 6.546875 C 36.695312 6.886719 37.3125 7.257812 37.914062 7.65625 C 38.511719 8.058594 39.089844 8.484375 39.644531 8.941406 C 40.203125 9.398438 40.738281 9.882812 41.246094 10.394531 C 41.753906 10.902344 42.238281 11.4375 42.695312 11.992188 C 43.152344 12.550781 43.582031 13.128906 43.980469 13.726562 C 44.382812 14.324219 44.753906 14.941406 45.09375 15.578125 C 45.433594 16.214844 45.738281 16.863281 46.015625 17.53125 C 46.289062 18.195312 46.535156 18.875 46.742188 19.5625 C 46.953125 20.253906 47.125 20.949219 47.265625 21.65625 C 47.40625 22.363281 47.511719 23.074219 47.582031 23.792969 C 47.65625 24.511719 47.691406 25.230469 47.691406 25.949219 Z M 47.691406 25.949219" fill="#ffe4a6"></path><path stroke-miterlimit="4" stroke-opacity="1" stroke-width="2.5" stroke="#001f60" d="M 72.81867 54.512936 C 72.81867 54.512936 72.663186 42.219278 87.444598 32.040213 C 98.546207 24.390365 95.353587 15.714319 95.353587 15.714319" stroke-linejoin="round" fill="none" transform="matrix(0.376846, 0, 0, 0.376846, 0.0000005, 0.000000990566)" stroke-linecap="round"></path><path stroke-miterlimit="4" stroke-opacity="1" stroke-width="2.5" stroke="#001f60" d="M 72.81867 92.420108 C 72.81867 94.607259 72.611357 96.784045 72.176 98.929734 C 71.751009 101.075423 71.118704 103.158918 70.279087 105.190585 C 69.439469 107.211886 68.41327 109.129531 67.200489 110.953885 C 65.977343 112.778239 64.598712 114.457474 63.054231 116.012321 C 61.499384 117.556802 59.820149 118.945799 57.995795 120.15858 C 56.171441 121.37136 54.253796 122.397559 52.222129 123.237177 C 50.200828 124.076794 48.117333 124.709099 45.971644 125.13409 C 43.815589 125.569448 41.649169 125.77676 39.462018 125.77676 C 37.2645 125.77676 35.09808 125.569448 32.952391 125.13409 C 30.806702 124.709099 28.712841 124.076794 26.69154 123.237177 C 24.670239 122.397559 22.752594 121.37136 20.92824 120.15858 C 19.103886 118.945799 17.424652 117.556802 15.869805 116.012321 C 14.325323 114.457474 12.936326 112.778239 11.723546 110.953885 C 10.500399 109.129531 9.4742 107.211886 8.634583 105.190585 C 7.805331 103.158918 7.173027 101.075423 6.737669 98.929734 C 6.312678 96.784045 6.094999 94.607259 6.094999 92.420108 C 6.094999 90.232956 6.312678 88.05617 6.737669 85.910481 C 7.173027 83.764792 7.805331 81.681297 8.634583 79.64963 C 9.4742 77.628329 10.500399 75.710685 11.723546 73.886331 C 12.936326 72.061977 14.325323 70.382742 15.869805 68.827895 C 17.424652 67.283413 19.103886 65.894417 20.92824 64.681636 C 22.752594 63.468855 24.670239 62.442656 26.69154 61.603039 C 28.712841 60.763421 30.806702 60.131117 32.952391 59.706125 C 35.09808 59.270768 37.2645 59.063455 39.462018 59.063455 C 41.649169 59.063455 43.815589 59.270768 45.971644 59.706125 C 48.117333 60.131117 50.200828 60.763421 52.222129 61.603039 C 54.253796 62.442656 56.171441 63.468855 57.995795 64.681636 C 59.820149 65.894417 61.499384 67.283413 63.054231 68.827895 C 64.598712 70.382742 65.977343 72.061977 67.200489 73.886331 C 68.41327 75.710685 69.439469 77.628329 70.279087 79.64963 C 71.118704 81.681297 71.751009 83.764792 72.176 85.910481 C 72.611357 88.05617 72.81867 90.232956 72.81867 92.420108 Z M 72.81867 92.420108" stroke-linejoin="round" fill="none" transform="matrix(0.376846, 0, 0, 0.376846, 0.0000005, 0.000000990566)" stroke-linecap="round"></path><path stroke-miterlimit="4" stroke-opacity="1" stroke-width="2.5" stroke="#001f60" d="M 72.787573 55.839739 C 78.913671 48.417935 88.170194 43.680835 98.535841 43.680835 C 116.955596 43.680835 131.902859 58.607367 131.902859 77.037487 C 131.902859 95.467608 116.965962 110.404506 98.535841 110.404506 C 87.94215 110.404506 78.488679 105.449726 72.383313 97.737685" stroke-linejoin="round" fill="none" transform="matrix(0.376846, 0, 0, 0.376846, 0.0000005, 0.000000990566)" stroke-linecap="round"></path><path stroke-miterlimit="4" stroke-opacity="1" stroke-width="2.5" stroke="#001f60" d="M 12.013784 73.471705 C 8.292516 68.091934 6.094999 61.561576 6.094999 54.512936 C 6.094999 36.093181 21.031897 21.145918 39.462018 21.145918 C 57.892138 21.145918 72.81867 36.082815 72.81867 54.512936 C 72.81867 61.416457 70.72481 67.843158 67.117564 73.160735" stroke-linejoin="round" fill="none" transform="matrix(0.376846, 0, 0, 0.376846, 0.0000005, 0.000000990566)" stroke-linecap="round"></path><path stroke-miterlimit="4" stroke-opacity="1" stroke-width="2.5" stroke="#001f60" d="M 35.305393 29.956718 C 35.305393 29.956718 35.398684 36.466344 39.462018 37.482178 C 43.514986 38.498011 45.691772 37.730953 45.691772 37.730953 C 45.691772 37.730953 35.906601 40.612603 41.607707 49.910589 C 41.607707 49.910589 35.906601 42.208913 28.795767 49.910589 C 28.795767 49.910589 34.134075 41.700996 24.649508 37.730953 C 24.649508 37.730953 33.874934 40.778453 35.305393 29.946352 Z M 35.305393 29.956718" stroke-linejoin="round" fill="none" transform="matrix(0.376846, 0, 0, 0.376846, 0.0000005, 0.000000990566)" stroke-linecap="round"></path><path stroke-miterlimit="4" stroke-opacity="1" stroke-width="2.5" stroke="#001f60" d="M 37.616932 81.204478 C 37.616932 81.204478 37.710223 87.714104 41.773557 88.719572 C 45.826525 89.72504 48.003311 88.968347 48.003311 88.968347 C 48.003311 88.968347 38.21814 91.849997 43.919246 101.147983 C 43.919246 101.147983 38.21814 93.446307 31.107306 101.147983 C 31.107306 101.147983 36.435249 92.93839 26.961047 88.968347 C 26.961047 88.968347 36.176107 92.015848 37.616932 81.194112 Z M 37.616932 81.204478" stroke-linejoin="round" fill="none" transform="matrix(0.376846, 0, 0, 0.376846, 0.0000005, 0.000000990566)" stroke-linecap="round"></path><path stroke-miterlimit="4" stroke-opacity="1" stroke-width="2.5" stroke="#001f60" d="M 107.543588 54.782443 C 107.543588 54.782443 107.626514 61.292069 111.689847 62.297537 C 115.753181 63.323736 117.919601 62.546313 117.919601 62.546313 C 117.919601 62.546313 108.144796 65.427962 113.835536 74.725948 C 113.835536 74.725948 108.144796 67.034638 101.033962 74.725948 C 101.033962 74.725948 106.361905 66.516355 96.877337 62.546313 C 96.877337 62.546313 106.102763 65.604178 107.543588 54.772077 Z M 107.543588 54.782443" stroke-linejoin="round" fill="none" transform="matrix(0.376846, 0, 0, 0.376846, 0.0000005, 0.000000990566)" stroke-linecap="round"></path><path stroke-miterlimit="4" stroke-opacity="1" stroke-width="2.5" stroke="#001f60" d="M 100.712627 43.76376 C 114.747713 21.550178 96.110279 1.451188 96.110279 1.451188 C 96.110279 1.451188 96.877337 6.146826 79.255737 15.082014 C 63.53105 23.053197 62.038397 29.956718 62.038397 29.956718" stroke-linejoin="round" fill="none" transform="matrix(0.376846, 0, 0, 0.376846, 0.0000005, 0.000000990566)" stroke-linecap="round"></path></svg>