<svg version="1.0" preserveAspectRatio="xMidYMid meet" height="70" viewBox="0 0 52.5 52.499999" zoomAndPan="magnify" width="70" xmlns:xlink="http://www.w3.org/1999/xlink" xmlns="http://www.w3.org/2000/svg"><path fill-rule="evenodd" fill-opacity="1" d="M 46.703125 25.972656 C 46.703125 38.125 36.855469 47.972656 24.710938 47.972656 C 12.5625 47.972656 2.710938 38.125 2.710938 25.972656 C 2.710938 13.820312 12.554688 3.972656 24.710938 3.972656 C 36.863281 3.972656 46.703125 13.820312 46.703125 25.972656" fill="#ffe4a6"></path><path stroke-miterlimit="4" stroke-opacity="1" stroke-width="2.5" stroke="#001f60" d="M 84.034301 132.815035 C 82.655669 132.815035 81.453254 131.985783 80.934972 130.710809 C 79.100252 126.004805 75.917999 117.546437 72.746111 109.119165 C 65.137726 88.875056 53.631857 58.275666 46.023472 39.959567 C 39.9803 25.458027 31.262791 22.410527 25.00194 22.410527 C 21.964805 22.410527 18.844745 23.105025 15.745417 24.452559 C 15.621029 24.514753 15.47591 24.525119 15.351522 24.525119 C 15.082015 24.525119 14.812509 24.421462 14.615561 24.214149 C 14.325323 23.90318 14.273495 23.436726 14.470442 23.063562 C 18.025859 16.30516 24.234882 8.240687 33.522502 8.240687 C 34.787111 8.240687 36.062085 8.37544 37.295597 8.655313 C 44.593013 10.282719 52.55383 18.564872 60.338431 32.64142 C 65.53162 42.022331 69.1285 51.28922 70.113236 53.911728 L 70.165065 54.046482 L 78.695992 75.171671 C 78.955133 75.814341 79.566707 76.218601 80.240474 76.218601 C 81.028263 76.218601 81.733127 75.617394 81.86788 74.829604 C 84.98794 57.249467 91.746342 36.71512 101.344931 31.770706 C 104.931445 29.925621 108.549056 29.003078 112.104473 29.003078 C 122.37683 29.003078 130.430937 36.870604 135.375351 43.473522 C 135.644858 43.815588 135.644858 44.292408 135.396082 44.64484 C 135.209501 44.914347 134.898531 45.069831 134.577196 45.069831 C 134.483905 45.069831 134.380249 45.059466 134.286958 45.028369 C 131.156533 44.085095 127.466362 43.587544 123.330469 43.587544 C 119.940902 43.587544 117.339125 43.908879 116.831208 43.991804 C 106.258248 44.935078 99.479115 56.689722 96.597465 78.913669 C 94.254829 96.93953 95.198103 116.862304 95.96516 127.124295 C 96.027354 127.880987 95.612728 128.554754 94.897499 128.844992 L 85.236716 132.597356 C 84.832455 132.752841 84.448926 132.815035 84.044666 132.815035 Z M 84.034301 132.815035" stroke-linejoin="round" fill="none" transform="matrix(0.376846, 0, 0, 0.376846, 0.0000005, 0.000000990566)" stroke-linecap="round"></path><path fill-rule="evenodd" fill-opacity="1" d="M 40.222656 48.589844 L 40.222656 48.144531 L 40.367188 48.132812 C 40.539062 48.132812 40.648438 48.199219 40.648438 48.355469 C 40.648438 48.5 40.542969 48.589844 40.375 48.589844 L 40.21875 48.589844 Z M 40.359375 48.015625 L 40.0625 48.03125 L 40.0625 49.242188 L 40.222656 49.242188 L 40.222656 48.710938 L 40.359375 48.710938 C 40.511719 48.722656 40.574219 48.785156 40.601562 48.945312 L 40.683594 49.242188 L 40.847656 49.242188 L 40.753906 48.90625 C 40.726562 48.773438 40.667969 48.691406 40.578125 48.65625 C 40.707031 48.609375 40.8125 48.503906 40.8125 48.339844 C 40.8125 48.242188 40.773438 48.160156 40.71875 48.105469 C 40.648438 48.039062 40.53125 48.011719 40.363281 48.011719" fill="#001f60"></path><path fill-rule="evenodd" fill-opacity="1" d="M 40.367188 47.363281 C 39.679688 47.363281 39.113281 47.925781 39.113281 48.628906 C 39.113281 49.328125 39.679688 49.890625 40.367188 49.890625 C 41.058594 49.890625 41.613281 49.324219 41.613281 48.628906 C 41.613281 47.929688 41.058594 47.363281 40.367188 47.363281 M 40.367188 47.566406 C 40.945312 47.566406 41.417969 48.039062 41.417969 48.628906 C 41.417969 49.214844 40.945312 49.6875 40.367188 49.6875 C 39.792969 49.6875 39.316406 49.210938 39.316406 48.628906 C 39.316406 48.042969 39.792969 47.566406 40.367188 47.566406" fill="#001f60"></path></svg>